{
.appVersion = "3129";
.formatVersion = 3;
axes = (
{
name = wght;
tag = wght;
}
);
customParameters = (
{
name = "Write lastChange";
value = 0;
},
{
name = "Use Typo Metrics";
value = 1;
},
{
name = fsType;
value = (
);
}
);
date = "2022-02-28 16:51:29 +0000";
familyName = "Edu TAS Beginner";
featurePrefixes = (
{
automatic = 1;
code = "languagesystem DFLT dflt;
";
name = Languagesystems;
}
);
fontMaster = (
{
axesValues = (
400
);
customParameters = (
{
name = hheaAscender;
value = 950;
},
{
name = hheaDescender;
value = -300;
},
{
name = hheaLineGap;
value = 0;
},
{
name = typoAscender;
value = 950;
},
{
name = typoDescender;
value = -300;
},
{
name = typoLineGap;
value = 0;
},
{
name = winAscent;
value = 950;
},
{
name = winDescent;
value = 310;
}
);
id = m01;
metricValues = (
{
pos = 650;
},
{
over = 4;
pos = 650;
},
{
over = 4;
pos = 350;
},
{
over = -4;
},
{
over = -4;
pos = -300;
},
{
}
);
name = Regular;
stemValues = (
50,
46
);
userData = {
com.typemytype.robofont.segmentType = curve;
com.typemytype.robofont.smartSets.uniqueKey = "4576934160";
com.typesupply.metricsMachine4.groupColors = {
public.kern1.H_right = (
1,
0,
0,
0.25
);
public.kern1.O_right = (
1,
0,
0.76,
0.25
);
public.kern1.V_right = (
0,
1,
1,
0.25
);
public.kern1.colon_right = (
0.5,
0,
1,
0.25
);
public.kern1.hyphen_right = (
0,
0,
1,
0.25
);
public.kern1.n_right = (
1,
1,
0,
0.25
);
public.kern1.o_right = (
0,
1,
0,
0.25
);
public.kern1.period_right = (
1,
0,
1,
0.25
);
public.kern1.quote_right = (
1,
0,
0.5,
0.25
);
public.kern1.v_right = (
0,
0.5,
1,
0.25
);
public.kern2.H_left = (
0,
0.9,
0.92,
0.25
);
public.kern2.O_left = (
0,
0,
0.98,
0.25
);
public.kern2.V_left = (
0,
1,
0,
0.25
);
public.kern2.colon_left = (
1,
0,
1,
0.25
);
public.kern2.h_left = (
0.48,
0,
1,
0.25
);
public.kern2.hyphen_left = (
0.5,
0,
1,
0.25
);
public.kern2.n_left = (
1,
0,
0,
0.25
);
public.kern2.o_left = (
1,
0,
0.89,
0.25
);
public.kern2.period_left = (
1,
0,
0.5,
0.25
);
public.kern2.quote_left = (
1,
0,

glyphs = (
{
color = 6;
glyphname = A;
layers = (
{
layerId = m01;
shapes = (
{
closed = 1;
nodes = (
(-6,0,o),
(-1,5,o),
(10,23,cs),
(350,575,l),
(334,579,l),
(340,21,ls),
(340,11,o),
(343,0,o),
(364,0,cs),
(382,0,o),
(389,9,o),
(389,24,cs),
(381,630,ls),
(381,640,o),
(372,650,o),
(358,650,cs),
(338,650,o),
(334,640,o),
(326,627,cs),
(-40,33,ls),
(-52,14,o),
(-41,0,o),
(-26,0,cs)
);
},
{
closed = 1;
nodes = (
(361,327,l),
(360,372,l),
(195,372,l),
(170,327,l)
);
}
);
vertWidth = 0;
width = 484;
},
{
layerId = "6449507E-FEE0-4D4A-A81F-7CAB6A5803D5";
shapes = (
{
closed = 1;
nodes = (
(70,0,o),
(79,6,o),
(96,34,cs),
(393,516,l),
(342,530,l),
(347,46,l),
(347,26,o),
(350,0,o),
(397,0,cs),
(434,0,o),
(447,19,o),
(447,49,cs),
(440,605,ls),
(440,625,o),
(423,650,o),
(391,650,cs),
(360,650,o),
(352,637,o),
(338,616,cs),
(3,72,ls),
(-27,23,o),
(9,0,o),
(40,0,cs)
);
},
{
closed = 1;
nodes = (
(398,239,l),
(396,335,l),
(226,335,l),
(172,239,l)
);
}
);
vertWidth = 0;
width = 497;
}
);
unicode = 65;
},
{
color = 6;
glyphname = B;
kernLeft = H_left;
layers = (
{
layerId = m01;
shapes = (
{
closed = 1;
nodes = (
(308,333,o),
(408,366,o),
(430,458,cs),
(459,578,o),
(370,651,o),
(197,650,c),
(208,605,l),
(337,605,o),
(403,551,o),
(381,463,cs),
(365,396,o),
(285,368,o),
(144,378,c),
(133,345,l)
);
},
{
closed = 1;
nodes = (
(254,0,o),
(374,48,o),
(398,144,cs),
(429,269,o),
(332,350,o),
(144,363,c),
(134,328,l),
(292,317,o),
(374,251,o),
(350,155,cs),
(332,81,o),
(237,44,o),
(68,44,c),
(41,0,l)
);
},
{
closed = 1;
nodes = (
(55,-1,o),
(64,7,o),
(69,27,cs),
(216,617,ls),
(222,639,o),
(216,648,o),
(197,650,cs),
(180,651,o),
(171,644,o),
(166,625,cs),
(19,33,ls),
(15,16,o),
(24,1,o),
(41,0,cs)
);
}
);
vertWidth = 0;
width = 467;
},
{
layerId = "6449507E-FEE0-4D4A-A81F-7CAB6A5803D5";
shapes = (
{
closed = 1;
nodes = (
(362,311,o),
(453,348,o),
(476,440,cs),
(505,564,o),
(429,650,o),
(238,650,c),
(243,554,l),
(328,554,o),
(394,525,o),
(377,458,cs),
(364,404,o),
(290,382,o),
(189,387,c),
(175,322,l)
);
},
{
closed = 1;
nodes = (
(311,0,o),
(422,58,o),
(446,153,cs),
(478,280,o),
(395,348,o),
(189,367,c),
(176,300,l),
(283,291,o),
(368,253,o),
(349,176,cs),
(334,115,o),
(244,95,o),
(120,95,c),
(91,0,l)
);
},
{
closed = 1;
nodes = (
(115,0,o),
(135,6,o),
(145,46,cs),
(280,586,ls),
(292,632,o),
(275,646,o),
(238,650,cs),
(207,652,o),
(190,641,o),
(181,607,cs),
(46,64,ls),
(38,29,o),
(59,0,o),
(91,0,cs)
);
}
);
vertWidth = 0;
width = 488;
}
);
unicode = 66;
},
{
color = 6;
glyphname = C;
kernLeft = O_left;
layers = (
{
layerId = m01;
shapes = (
{
closed = 1;
nodes = (
(238,0,o),
(309,47,o),
(370,140,cs),
(391,173,o),
(395,185,o),
(395,191,cs),
(396,203,o),
(386,209,o),
(375,210,cs),
(359,211,o),
(351,198,o),
(335,172,cs),
(279,88,o),
(224,46,o),
(180,46,cs),
(111,46,o),
(80,133,o),
(97,275,cs),
(121,478,o),
(202,604,o),
(315,604,cs),
(352,604,o),
(379,583,o),
(394,542,cs),
(400,528,o),
(413,521,o),
(428,526,cs),
(441,530,o),
(446,540,o),
(443,553,cs),
(426,617,o),
(385,650,o),
(321,650,cs),
(178,650,o),
(72,503,o),
(44,266,cs),
(25,102,o),
(76,0,o),
(179,0,cs)
);
}
);
vertWidth = 0;
width = 468;
},
{
layerId = "6449507E-FEE0-4D4A-A81F-7CAB6A5803D5";
shapes = (
{
closed = 1;
nodes = (
(276,0,o),
(351,44,o),
(414,141,cs),
(440,181,o),
(442,195,o),
(442,202,cs),
(442,222,o),
(426,245,o),
(398,247,cs),
(376,248,o),
(362,239,o),
(336,199,cs),
(294,135,o),
(252,97,o),
(217,97,cs),
(163,97,o),
(159,193,o),
(169,276,cs),
(187,436,o),
(246,553,o),
(341,553,cs),
(364,553,o),
(379,538,o),
(387,514,c),
(399,486,o),
(425,474,o),
(453,483,cs),
(480,491,o),
(492,512,o),
(485,540,cs),
(467,613,o),
(419,650,o),
(346,650,cs),
(206,650,o),
(94,515,o),
(65,274,cs),
(44,91,o),
(111,0,o),
(216,0,cs)
);
}
);
vertWidth = 0;
width = 473;
}
);
unicode = 67;
},
{
color = 6;
glyphname = D;
kernLeft = H_left;
kernRight = O_right;
layers = (
{
layerId = m01;
shapes = (
{
closed = 1;
nodes = (
(60,0,o),
(65,13,o),
(68,23,cs),
(217,618,ls),
(222,636,o),
(220,650,o),
(199,650,cs),
(177,650,o),
(172,641,o),
(168,626,cs),
(17,28,ls),
(13,14,o),
(20,0,o),
(38,0,cs)
);
},
{
closed = 1;
nodes = (
(309,0,o),
(442,131,o),
(496,388,cs),
(529,545,o),
(458,650,o),
(305,650,cs),
(199,650,l),
(191,604,l),
(298,604,ls),
(417,604,o),
(473,520,o),
(444,384,cs),
(397,163,o),
(284,49,o),
(108,46,cs),
(52,45,l),
(38,0,l),
(104,0,ls)
);
}
);
vertWidth = 0;
width = 520;
},
{
layerId = "6449507E-FEE0-4D4A-A81F-7CAB6A5803D5";
shapes = (
{
closed = 1;
nodes = (
(130,0,o),
(139,23,o),
(145,41,cs),
(281,587,ls),
(293,629,o),
(279,650,o),
(238,650,cs),
(199,650,o),
(190,634,o),
(183,608,cs),
(45,60,ls),
(36,30,o),
(52,0,o),
(91,0,cs)
);
},
{
closed = 1;
nodes = (
(351,0,o),
(484,124,o),
(537,377,cs),
(572,543,o),
(494,650,o),
(335,650,cs),
(238,650,l),
(221,553,l),
(329,553,ls),
(420,553,o),
(457,484,o),
(436,385,cs),
(396,200,o),
(304,102,o),
(154,97,cs),
(121,96,l),
(91,0,l),
(151,0,ls)
);
}
);
vertWidth = 0;
width = 524;
}
);
unicode = 68;
},
{
color = 6;
glyphname = E;
kernLeft = H_left;
layers = (
{
layerId = m01;
shapes = (
{
closed = 1;
nodes = (
(61,0,o),
(66,16,o),
(69,26,cs),
(215,615,ls),
(219,633,o),
(220,650,o),
(198,650,c),
(177,650,o),
(170,641,o),
(166,625,cs),
(18,29,ls),
(14,14,o),
(21,0,o),
(39,0,cs)
);
},
{
closed = 1;
nodes = (
(336,0,ls),
(352,0,o),
(362,10,o),
(362,25,cs),
(362,37,o),
(352,45,o),
(336,45,cs),
(52,45,l),
(40,0,l)
);
},
{
closed = 1;
nodes = (
(321,308,ls),
(337,308,o),
(347,317,o),
(347,331,cs),
(347,345,o),
(337,353,o),
(321,353,cs),
(124,353,l),
(113,308,l)
);
},
{
closed = 1;
nodes = (
(465,605,ls),
(481,605,o),
(491,614,o),
(491,628,cs),
(491,642,o),
(481,650,o),
(465,650,cs),
(198,650,l),
(186,605,l)
);
}
);
vertWidth = 0;
width = 477;
},
{
layerId = "6449507E-FEE0-4D4A-A81F-7CAB6A5803D5";
shapes = (
{
closed = 1;
nodes = (
(129,0,o),
(140,25,o),
(145,43,cs),
(279,584,ls),
(289,629,o),
(276,650,o),
(237,650,cs),
(200,650,o),
(188,634,o),
(181,606,cs),
(45,61,ls),
(37,28,o),
(54,0,o),
(91,0,cs)
);
},
{
closed = 1;
nodes = (
(363,0,ls),
(395,0,o),
(414,21,o),
(414,50,cs),
(414,74,o),
(400,96,o),
(363,96,cs),
(111,96,l),
(91,0,l)
);
},
{
closed = 1;
nodes = (
(349,282,ls),
(383,282,o),
(401,303,o),
(401,330,cs),
(401,358,o),
(384,378,o),
(349,378,cs),
(155,378,l),
(131,282,l)
);
},
{
closed = 1;
nodes = (
(481,554,ls),
(515,554,o),
(532,575,o),
(532,602,cs),
(532,630,o),
(516,650,o),
(481,650,cs),
(237,650,l),
(214,554,l)
);
}
);
vertWidth = 0;
width = 483;
}
);
unicode = 69;
},
{
color = 6;
glyphname = F;
kernLeft = H_left;
layers = (
{
layerId = m01;
shapes = (
{
closed = 1;
nodes = (
(61,0,o),
(66,16,o),
(69,26,cs),
(215,615,ls),
(219,633,o),
(220,650,o),
(198,650,c),
(177,650,o),
(170,641,o),
(166,625,cs),
(18,29,ls),
(14,14,o),
(21,0,o),
(39,0,cs)
);
},
{
closed = 1;
nodes = (
(321,300,ls),
(337,300,o),
(347,309,o),
(347,323,cs),
(347,337,o),
(337,345,o),
(321,345,cs),
(122,345,l),
(111,300,l)
);
},
{
closed = 1;
nodes = (
(465,605,ls),
(481,605,o),
(491,614,o),
(491,628,cs),
(491,642,o),
(481,650,o),
(465,650,cs),
(198,650,l),
(186,605,l)
);
}
);
vertWidth = 0;
width = 455;
},
{
layerId = "6449507E-FEE0-4D4A-A81F-7CAB6A5803D5";
shapes = (
{
closed = 1;
nodes = (
(129,0,o),
(140,25,o),
(145,43,cs),
(279,584,ls),
(290,629,o),
(277,650,o),
(237,650,cs),
(201,650,o),
(188,634,o),
(181,606,cs),
(46,61,ls),
(37,28,o),
(54,0,o),
(92,0,cs)
);
},
{
closed = 1;
nodes = (
(351,275,ls),
(385,275,o),
(402,296,o),
(402,323,cs),
(402,351,o),
(386,371,o),
(351,371,cs),
(173,371,l),
(149,275,l)
);
},
{
closed = 1;
nodes = (
(482,554,ls),
(515,554,o),
(533,575,o),
(533,602,cs),
(533,630,o),
(516,650,o),
(482,650,c),
(237,650,l),
(214,554,l)
);
}
);
vertWidth = 0;
width = 465;
}
);
unicode = 70;
},
{
color = 6;
glyphname = G;
kernLeft = O_left;
layers = (
{
layerId = m01;
shapes = (
{
closed = 1;
nodes = (
(228,0,o),
(296,47,o),
(356,157,c),
(350,160,l),
(315,28,ls),
(312,16,o),
(315,0,o),
(334,0,cs),
(357,0,o),
(363,14,o),
(366,25,cs),
(438,307,ls),
(443,327,o),
(428,336,o),
(415,336,cs),
(397,336,o),
(393,333,o),
(359,247,cs),
(310,122,o),
(232,45,o),
(154,45,cs),
(78,45,o),
(63,169,o),
(114,370,cs),
(153,525,o),
(228,604,o),
(317,604,cs),
(349,604,o),
(373,583,o),
(389,542,cs),
(394,528,o),
(407,521,o),
(423,526,cs),
(437,530,o),
(442,541,o),
(438,553,cs),
(415,617,o),
(376,650,o),
(321,650,cs),
(196,650,o),
(105,540,o),
(60,362,cs),
(4,138,o),
(38,0,o),
(148,0,cs)
);
}
);
vertWidth = 0;
width = 481;
},
{
layerId = "6449507E-FEE0-4D4A-A81F-7CAB6A5803D5";
shapes = (
{
closed = 1;
nodes = (
(271,0,o),
(307,61,o),
(355,148,c),
(339,154,l),
(315,60,ls),
(308,32,o),
(319,0,o),
(359,0,cs),
(398,0,o),
(409,24,o),
(414,43,cs),
(480,302,ls),
(491,343,o),
(460,363,o),
(433,363,cs),
(406,363,o),
(393,354,o),
(356,264,cs),
(316,165,o),
(258,96,o),
(194,96,cs),
(131,96,o),
(171,309,o),
(184,359,cs),
(214,481,o),
(270,553,o),
(343,553,cs),
(363,553,o),
(374,537,o),
(383,514,cs),
(393,488,o),
(417,473,o),
(448,483,cs),
(479,492,o),
(489,516,o),
(480,542,cs),
(454,616,o),
(408,650,o),
(347,650,cs),
(223,650,o),
(127,547,o),
(81,366,cs),
(13,93,o),
(79,0,o),
(188,0,cs)
);
}
);
vertWidth = 0;
width = 485;
}
);
unicode = 71;
},
{
color = 6;
glyphname = H;
kernLeft = H_left;
kernRight = H_right;
layers = (
{
layerId = m01;
shapes = (
{
closed = 1;
nodes = (
(61,0,o),
(67,13,o),
(69,23,cs),
(215,617,ls),
(219,635,o),
(214,650,o),
(197,650,cs),
(178,650,o),
(170,641,o),
(166,625,cs),
(18,29,ls),
(14,14,o),
(21,0,o),
(39,0,cs)
);
},
{
closed = 1;
nodes = (
(455,328,l),
(466,373,l),
(132,373,l),
(121,328,l)
);
},
{
closed = 1;
nodes = (
(397,0,o),
(405,11,o),
(407,20,cs),
(553,620,ls),
(557,637,o),
(552,650,o),
(533,650,cs),
(515,650,o),
(506,640,o),
(504,630,cs),
(357,28,ls),
(354,16,o),
(356,0,o),
(378,0,cs)
);
}
);
vertWidth = 0;
width = 567;
},
{
layerId = "6449507E-FEE0-4D4A-A81F-7CAB6A5803D5";
shapes = (
{
closed = 1;
nodes = (
(133,0,o),
(142,25,o),
(146,43,cs),
(280,586,ls),
(289,630,o),
(268,650,o),
(236,650,cs),
(203,650,o),
(189,635,o),
(181,606,cs),
(46,61,ls),
(37,28,o),
(54,0,o),
(92,0,cs)
);
},
{
closed = 1;
nodes = (
(494,300,l),
(518,396,l),
(155,396,l),
(132,300,l)
);
},
{
closed = 1;
nodes = (
(439,0,o),
(452,23,o),
(456,40,cs),
(589,589,ls),
(598,627,o),
(582,650,o),
(544,650,cs),
(508,650,o),
(495,628,o),
(491,610,cs),
(356,60,ls),
(350,34,o),
(355,0,o),
(402,0,cs)
);
}
);
vertWidth = 0;
width = 566;
}
);
unicode = 72;
},
{
color = 6;
glyphname = I;
layers = (
{
layerId = m01;
shapes = (
{
closed = 1;
nodes = (
(156,24,l),
(306,626,l),
(255,626,l),
(104,24,l)
);
},
{
closed = 1;
nodes = (
(406,605,ls),
(426,605,o),
(432,615,o),
(432,627,cs),
(432,639,o),
(426,650,o),
(406,650,cs),
(153,650,ls),
(133,650,o),
(127,639,o),
(127,627,cs),
(127,615,o),
(133,605,o),
(153,605,cs)
);
},
{
closed = 1;
nodes = (
(257,0,ls),
(277,0,o),
(283,11,o),
(283,23,cs),
(283,35,o),
(277,45,o),
(257,45,cs),
(4,45,ls),
(-16,45,o),
(-22,35,o),
(-22,23,cs),
(-22,11,o),
(-16,0,o),
(4,0,cs)
);
}
);
vertWidth = 0;
width = 398;
},
{
layerId = "6449507E-FEE0-4D4A-A81F-7CAB6A5803D5";
shapes = (
{
closed = 1;
nodes = (
(238,22,l),
(388,626,l),
(285,628,l),
(133,22,l)
);
},
{
closed = 1;
nodes = (
(445,554,ls),
(488,554,o),
(496,578,o),
(496,601,cs),
(496,625,o),
(487,650,o),
(445,650,cs),
(213,650,ls),
(171,650,o),
(162,625,o),
(162,601,cs),
(162,578,o),
(170,554,o),
(213,554,cs)
);
},
{
closed = 1;
nodes = (
(309,0,ls),
(351,0,o),
(360,25,o),
(360,49,cs),
(360,72,o),
(352,96,o),
(309,96,cs),
(77,96,ls),
(34,96,o),
(26,72,o),
(26,49,cs),
(26,25,o),
(35,0,o),
(77,0,cs)
);
}
);
vertWidth = 0;
width = 440;
}
);
unicode = 73;
},
{
color = 6;
glyphname = J;
kernRight = H_right;
layers = (
{
layerId = m01;
shapes = (
{
closed = 1;
nodes = (
(218,0,o),
(281,65,o),
(312,192,cs),
(418,618,ls),
(422,635,o),
(420,649,o),
(400,650,cs),
(380,651,o),
(372,641,o),
(368,625,cs),
(261,195,ls),
(235,96,o),
(190,46,o),
(135,46,cs),
(80,46,o),
(60,87,o),
(60,150,cs),
(60,178,o),
(54,192,o),
(37,192,cs),
(22,192,o),
(10,179,o),
(10,150,cs),
(9,57,o),
(53,0,o),
(132,0,cs)
);
}
);
vertWidth = 0;
width = 429;
},
{
layerId = "6449507E-FEE0-4D4A-A81F-7CAB6A5803D5";
shapes = (
{
closed = 1;
nodes = (
(273,0,o),
(343,62,o),
(375,197,cs),
(473,587,ls),
(482,626,o),
(469,648,o),
(431,650,cs),
(396,652,o),
(381,635,o),
(373,606,cs),
(275,213,ls),
(257,143,o),
(229,97,o),
(187,97,cs),
(151,97,o),
(146,130,o),
(146,165,cs),
(146,224,o),
(124,231,o),
(97,231,cs),
(74,231,o),
(45,221,o),
(45,165,cs),
(45,59,o),
(97,0,o),
(184,0,cs)
);
}
);
vertWidth = 0;
width = 447;
}
);
unicode = 74;
},
{
color = 6;
glyphname = K;
kernLeft = H_left;
layers = (
{
layerId = m01;
shapes = (
{
closed = 1;
nodes = (
(519,602,ls),
(531,611,o),
(538,620,o),
(538,631,cs),
(538,641,o),
(531,650,o),
(518,650,cs),
(510,651,o),
(499,646,o),
(487,637,cs),
(126,350,l),
(126,338,l),
(184,336,l)
);
},
{
closed = 1;
nodes = (
(419,0,o),
(438,19,o),
(420,42,cs),
(184,344,l),
(126,346,l),
(126,335,l),
(373,19,ls),
(381,9,o),
(390,0,o),
(403,0,cs)
);
},
{
closed = 1;
nodes = (
(58,0,o),
(65,16,o),
(68,29,cs),
(216,617,ls),
(221,635,o),
(217,650,o),
(198,650,cs),
(178,650,o),
(171,639,o),
(167,625,cs),
(18,34,ls),
(14,19,o),
(20,0,o),
(38,0,cs)
);
}
);
vertWidth = 0;
width = 522;
},
{
layerId = "6449507E-FEE0-4D4A-A81F-7CAB6A5803D5";
shapes = (
{
closed = 1;
nodes = (
(549,557,ls),
(566,570,o),
(576,583,o),
(576,606,cs),
(576,628,o),
(560,650,o),
(531,650,cs),
(519,650,o),
(505,647,o),
(486,633,cs),
(144,361,l),
(144,310,l),
(234,307,l)
);
},
{
closed = 1;
nodes = (
(458.017,0,o),
(499,35,o),
(462,83,cs),
(239,369,l),
(144,373,l),
(144,325,l),
(376,28,ls),
(390,11,o),
(405,0,o),
(425,0,cs)
);
},
{
closed = 1;
nodes = (
(125,0,o),
(140,24,o),
(145,48,cs),
(281,586,ls),
(293,628,o),
(274,650,o),
(238,650,cs),
(203,650,o),
(190,632,o),
(183,607,cs),
(46,65,ls),
(37,32,o),
(57,0,o),
(91,0,cs)
);
}
);
vertWidth = 0;
width = 516;
}
);
unicode = 75;
},
{
color = 6;
glyphname = L;
kernLeft = H_left;
layers = (
{
layerId = m01;
shapes = (
{
closed = 1;
nodes = (
(61,0,o),
(66,16,o),
(69,26,cs),
(215,615,ls),
(219,633,o),
(220,650,o),
(198,650,c),
(177,650,o),
(170,641,o),
(166,625,cs),
(18,29,ls),
(14,14,o),
(21,0,o),
(39,0,cs)
);
},
{
closed = 1;
nodes = (
(306,0,ls),
(328,0,o),
(342,11,o),
(342,28,cs),
(342,39,o),
(332,45,o),
(316,45,cs),
(59,45,l),
(40,0,l)
);
}
);
vertWidth = 0;
width = 436;
},
{
layerId = "6449507E-FEE0-4D4A-A81F-7CAB6A5803D5";
shapes = (
{
closed = 1;
nodes = (
(129,0,o),
(141,25,o),
(146,43,cs),
(280,584,ls),
(290,629,o),
(277,650,o),
(237,650,cs),
(201,650,o),
(188,634,o),
(181,606,cs),
(46,61,ls),
(37,28,o),
(54,0,o),
(92,0,cs)
);
},
{
closed = 1;
nodes = (
(336,0,ls),
(378,0,o),
(397,25,o),
(397,53,cs),
(397,75,o),
(386,96,o),
(345,96,cs),
(117,96,l),
(93,0,l)
);
}
);
vertWidth = 0;
width = 436;
}
);
unicode = 76;
},
{
color = 6;
glyphname = M;
kernLeft = H_left;
kernRight = H_right;
layers = (
{
guides = (
{
name = " [#uzSYBaR9Es]";
pos = (245,548);
}
);
layerId = m01;
shapes = (
{
closed = 1;
nodes = (
(57,0,o),
(65,12,o),
(68,24,cs),
(204,575,l),
(195,576,l),
(249,18,ls),
(250,6,o),
(258,0,o),
(272,0,cs),
(284,0,o),
(295,6,o),
(302,18,cs),
(650,595,l),
(631,595,l),
(489,30,ls),
(486,19,o),
(490,0,o),
(510,0,cs),
(531,0,o),
(536,11,o),
(539,21,cs),
(683,602,ls),
(690,632,o),
(678,650,o),
(650,650,cs),
(631,650,o),
(617,637,o),
(596,601,cs),
(275,61,l),
(293,57,l),
(243,599,ls),
(240,631,o),
(227,650,o),
(205,650,cs),
(183,650,o),
(166,632,o),
(160,603,cs),
(18,30,ls),
(15,16,o),
(22,0,o),
(39,0,cs)
);
}
);
vertWidth = 0;
width = 699;
},
{
guides = (
{
name = " [#uzSYBaR9Es]";
pos = (305,548);
}
);
layerId = "6449507E-FEE0-4D4A-A81F-7CAB6A5803D5";
shapes = (
{
closed = 1;
nodes = (
(125,0,o),
(140,21,o),
(146,43,cs),
(278,578,l),
(205,586,l),
(257,41,ls),
(259,16,o),
(274,0,o),
(306,0,cs),
(326,0,o),
(345,10,o),
(357,30,cs),
(700,600,l),
(613,600,l),
(478,62,ls),
(471,38,o),
(483,0,o),
(524,0,cs),
(562,0,o),
(571,21,o),
(576,39,cs),
(709,572,ls),
(721,624,o),
(696,650,o),
(652,650,cs),
(628,650,o),
(607,640,o),
(579,592,cs),
(299,121,l),
(350,110,l),
(307,578,ls),
(302,631,o),
(276,650,o),
(244,650,cs),
(214,650,o),
(185,629,o),
(176,585,cs),
(47,62,ls),
(40,30,o),
(59,0,o),
(92,0,cs)
);
}
);
vertWidth = 0;
width = 686;
}
);
unicode = 77;
},
{
color = 6;
glyphname = N;
kernLeft = H_left;
kernRight = H_right;
layers = (
{
layerId = m01;
shapes = (
{
closed = 1;
nodes = (
(60,0,o),
(67,14,o),
(70,26,cs),
(207,585,l),
(191,584,l),
(354,18,ls),
(357,8,o),
(367,0,o),
(381,0,cs),
(397,0,o),
(406,13,o),
(408,23,cs),
(553,619,ls),
(557,637,o),
(554,650,o),
(534,650,cs),
(516,650,o),
(506,640,o),
(503,626,cs),
(369,74,l),
(386,75,l),
(227,630,ls),
(224,639,o),
(215,650,o),
(197,650,cs),
(176,650,o),
(170,641,o),
(166,625,cs),
(18,29,ls),
(14,14,o),
(20,0,o),
(39,0,cs)
);
}
);
vertWidth = 0;
width = 567;
},
{
layerId = "6449507E-FEE0-4D4A-A81F-7CAB6A5803D5";
shapes = (
{
closed = 1;
nodes = (
(128,0,o),
(141,23,o),
(146,45,cs),
(252,472,l),
(235,471,l),
(354,34,ls),
(359,14,o),
(378,0,o),
(404,0,cs),
(435,0,o),
(451,24,o),
(456,43,cs),
(589,587,ls),
(600,630,o),
(585,650,o),
(546,650,cs),
(515,650,o),
(497,633,o),
(491,608,cs),
(388,187,l),
(405,188,l),
(290,614,ls),
(286,629,o),
(268,650,o),
(237,650,cs),
(199,650,o),
(188,634,o),
(181,606,cs),
(46,61,ls),
(37,28,o),
(52,0,o),
(92,0,cs)
);
}
);
vertWidth = 0;
width = 565;
}
);
unicode = 78;
},
{
color = 6;
glyphname = O;
kernLeft = O_left;
kernRight = O_right;
layers = (
{
layerId = m01;
shapes = (
{
closed = 1;
nodes = (
(301,0,o),
(403,135,o),
(450,353,cs),
(489,534,o),
(440,650,o),
(321,650,cs),
(178,650,o),
(72,503,o),
(44,266,cs),
(25,102,o),
(76,0,o),
(179,0,cs)
);
},
{
closed = 1;
nodes = (
(111,46,o),
(80,133,o),
(97,275,cs),
(121,478,o),
(202,604,o),
(315,604,cs),
(398,604,o),
(431,507,o),
(397,350,cs),
(356,162,o),
(274,46,o),
(180,46,cs)
);
}
);
vertWidth = 0;
width = 483;
},
{
layerId = "6449507E-FEE0-4D4A-A81F-7CAB6A5803D5";
shapes = (
{
closed = 1;
nodes = (
(336,0,o),
(443,124,o),
(491,345,cs),
(535,548,o),
(467,650,o),
(346,650,cs),
(206,650,o),
(94,515,o),
(65,274,cs),
(44,91,o),
(111,0,o),
(216,0,cs)
);
},
{
closed = 1;
nodes = (
(163,97,o),
(158,193,o),
(168,276,cs),
(187,436,o),
(246,553,o),
(341,553,cs),
(407,553,o),
(409,446,o),
(389,354,cs),
(356,205,o),
(296,97,o),
(217,97,cs)
);
}
);
vertWidth = 0;
width = 485;
}
);
unicode = 79;
},
{
color = 6;
glyphname = P;
kernLeft = H_left;
layers = (
{
layerId = m01;
shapes = (
{
closed = 1;
nodes = (
(328,332,o),
(485,344,o),
(517,471,cs),
(547,591,o),
(409,650,o),
(197,650,c),
(185,600,l),
(396,600,o),
(487,555,o),
(468,480,cs),
(446,393,o),
(303,381,o),
(132,381,c),
(120,332,l)
);
},
{
closed = 1;
nodes = (
(60,0,o),
(67,17,o),
(69,26,cs),
(215,618,ls),
(219,636,o),
(218,650,o),
(197,650,cs),
(175,650,o),
(170,641,o),
(166,625,cs),
(18,32,ls),
(14,17,o),
(21,0,o),
(39,0,cs)
);
}
);
vertWidth = 0;
width = 520;
},
{
layerId = "6449507E-FEE0-4D4A-A81F-7CAB6A5803D5";
shapes = (
{
closed = 1;
nodes = (
(378,304,o),
(524,327,o),
(556,452,cs),
(586,572,o),
(490,650,o),
(236,650,c),
(212,549,l),
(320,549,o),
(473,535,o),
(458,474,cs),
(439,401,o),
(310,404,o),
(192,404,c),
(167,304,l)
);
},
{
closed = 1;
nodes = (
(128,0,o),
(142,29,o),
(146,45,cs),
(279,587,ls),
(289,631,o),
(276,650,o),
(236,650,cs),
(198,650,o),
(188,635,o),
(181,606,cs),
(46,63,ls),
(37,31,o),
(56,0,o),
(91,0,cs)
);
}
);
vertWidth = 0;
width = 523;
}
);
unicode = 80;
},
{
color = 6;
glyphname = Q;
kernLeft = O_left;
kernRight = O_right;
layers = (
{
layerId = m01;
shapes = (
{
closed = 1;
nodes = (
(301,0,o),
(403,135,o),
(450,353,cs),
(489,534,o),
(440,650,o),
(321,650,cs),
(178,650,o),
(72,503,o),
(44,266,cs),
(25,102,o),
(76,0,o),
(179,0,cs)
);
},
{
closed = 1;
nodes = (
(111,46,o),
(80,133,o),
(97,275,cs),
(121,478,o),
(202,604,o),
(315,604,cs),
(398,604,o),
(431,507,o),
(397,350,cs),
(356,162,o),
(274,46,o),
(180,46,cs)
);
},
{
closed = 1;
nodes = (
(383,-26,o),
(386,-12,o),
(376,3,cs),
(273,166,ls),
(262,183,o),
(248,187,o),
(235,178,cs),
(223,169,o),
(222,154,o),
(232,138,cs),
(335,-22,ls),
(344,-36,o),
(357,-40,o),
(369,-34,cs)
);
}
);
vertWidth = 0;
width = 483;
},
{
layerId = "6449507E-FEE0-4D4A-A81F-7CAB6A5803D5";
shapes = (
{
closed = 1;
nodes = (
(336,0,o),
(443,124,o),
(491,345,cs),
(535,548,o),
(467,650,o),
(346,650,cs),
(206,650,o),
(94,515,o),
(65,274,cs),
(44,91,o),
(111,0,o),
(216,0,cs)
);
},
{
closed = 1;
nodes = (
(163,97,o),
(158,193,o),
(168,276,cs),
(187,436,o),
(246,553,o),
(341,553,cs),
(407,553,o),
(409,446,o),
(389,354,cs),
(356,205,o),
(296,97,o),
(217,97,cs)
);
},
{
closed = 1;
nodes = (
(417,-18,o),
(425,17,o),
(409,44,cs),
(315,192,ls),
(297,220,o),
(269,229,o),
(241,210,cs),
(215,193,o),
(213,165,o),
(231,137,cs),
(322,-5,ls),
(342,-36,o),
(371,-43,o),
(393,-31,cs)
);
}
);
vertWidth = 0;
width = 485;
}
);
unicode = 81;
},
{
color = 6;
glyphname = R;
kernLeft = H_left;
layers = (
{
layerId = m01;
shapes = (
{
closed = 1;
nodes = (
(313,328,o),
(487,337,o),
(523,481,cs),
(553,600,o),
(415,650,o),
(196,650,c),
(198,604,l),
(383,604,o),
(494,572,o),
(474,491,cs),
(447,383,o),
(294,374,o),
(128,374,c),
(117,328,l)
);
},
{
closed = 1;
nodes = (
(407,0,o),
(417,26,o),
(405,42,cs),
(177,341,l),
(114,341,l),
(360,19,ls),
(370,6,o),
(377,0,o),
(385,0,cs)
);
},
{
closed = 1;
nodes = (
(60,0,o),
(66,14,o),
(69,28,cs),
(215,618,ls),
(219,636,o),
(218,650,o),
(197,650,cs),
(175,650,o),
(170,641,o),
(166,625,cs),
(19,34,ls),
(15,17,o),
(20,0,o),
(38,0,cs)
);
}
);
vertWidth = 0;
width = 524;
},
{
layerId = "6449507E-FEE0-4D4A-A81F-7CAB6A5803D5";
shapes = (
{
closed = 1;
nodes = (
(363,300,o),
(526,320,o),
(561,461,cs),
(591,580,o),
(505,650,o),
(237,650,c),
(237,553,l),
(410,553,o),
(476,533,o),
(463,484,cs),
(440,393,o),
(304,397,o),
(178,397,c),
(158,300,l)
);
},
{
closed = 1;
nodes = (
(451,0,o),
(473,50,o),
(449,82,cs),
(257,334,l),
(138,323,l),
(364,28,ls),
(382,4,o),
(395,0,o),
(408,0,cs)
);
},
{
closed = 1;
nodes = (
(128,0,o),
(141,22,o),
(146,47,cs),
(280,587,ls),
(289,629,o),
(278,650,o),
(238,650,cs),
(200,650,o),
(189,636,o),
(181,606,cs),
(47,65,ls),
(37,25,o),
(58,0,o),
(91,0,cs)
);
}
);
vertWidth = 0;
width = 528;
}
);
unicode = 82;
},
{
color = 6;
glyphname = S;
layers = (
{
layerId = m01;
shapes = (
{
closed = 1;
nodes = (
(269,0,o),
(342,63,o),
(368,164,cs),
(395,278,o),
(356,338,o),
(234,370,cs),
(162,389,o),
(132,424,o),
(145,473,cs),
(163,546,o),
(240,604,o),
(309,604,cs),
(351,604,o),
(378,573,o),
(399,509,cs),
(403,496,o),
(417,492,o),
(429,494,cs),
(445,497,o),
(451,512,o),
(448,522,cs),
(424,607,o),
(382,650,o),
(314,650,cs),
(219,650,o),
(119,579,o),
(96,484,cs),
(77,403,o),
(120,348,o),
(225,320,cs),
(310,297,o),
(337,254,o),
(318,172,cs),
(300,94,o),
(247,46,o),
(179,46,cs),
(114,46,o),
(70,93,o),
(62,168,cs),
(61,182,o),
(51,188,o),
(35,187,cs),
(19,186,o),
(11,178,o),
(12,163,cs),
(23,62,o),
(86,0,o),
(176,0,cs)
);
}
);
vertWidth = 0;
width = 447;
},
{
layerId = "6449507E-FEE0-4D4A-A81F-7CAB6A5803D5";
shapes = (
{
closed = 1;
nodes = (
(322,0,o),
(403,64,o),
(427,171,cs),
(454,293,o),
(416,358,o),
(285,393,cs),
(239,404,o),
(215,425,o),
(223,453,cs),
(236,509,o),
(294,553,o),
(346,553,cs),
(376,553,o),
(390,525,o),
(403,485,cs),
(410,460,o),
(436,448,o),
(461,453,cs),
(496,459,o),
(506,493,o),
(500,513,cs),
(473,607,o),
(424,650,o),
(351,650,cs),
(252,650,o),
(149,576,o),
(125,477,cs),
(104,389,o),
(144,325,o),
(262,294,cs),
(321,278,o),
(341,249,o),
(328,191,cs),
(315,135,o),
(278,97,o),
(227,97,cs),
(181,97,o),
(153,133,o),
(148,184,cs),
(146,211,o),
(129,228,o),
(94,226,cs),
(60,224,o),
(45,205,o),
(47,175,cs),
(59,64,o),
(129,0,o),
(225,0,cs)
);
}
);
vertWidth = 0;
width = 464;
}
);
unicode = 83;
},
{
color = 6;
glyphname = T;
layers = (
{
layerId = m01;
shapes = (
{
closed = 1;
nodes = (
(176,0,o),
(184,13,o),
(186,23,cs),
(337,626,l),
(285,626,l),
(136,31,ls),
(133,17,o),
(140,0,o),
(158,0,cs)
);
},
{
closed = 1;
nodes = (
(487,605,ls),
(507,605,o),
(513,615,o),
(513,627,cs),
(513,639,o),
(507,650,o),
(487,650,cs),
(133,650,ls),
(113,650,o),
(107,639,o),
(107,627,cs),
(107,615,o),
(113,605,o),
(133,605,cs)
);
}
);
vertWidth = 0;
width = 458;
},
{
layerId = "6449507E-FEE0-4D4A-A81F-7CAB6A5803D5";
shapes = (
{
closed = 1;
nodes = (
(240,0,o),
(253,24,o),
(258,43,cs),
(398,601,l),
(294,601,l),
(159,63,ls),
(151,32,o),
(171,0,o),
(206,0,cs)
);
},
{
closed = 1;
nodes = (
(507,554,ls),
(550,554,o),
(558,578,o),
(558,601,cs),
(558,625,o),
(549,650,o),
(507,650,cs),
(183,650,ls),
(141,650,o),
(132,625,o),
(132,601,cs),
(132,578,o),
(140,554,o),
(183,554,cs)
);
}
);
vertWidth = 0;
width = 480;
}
);
unicode = 84;
},
{
color = 6;
glyphname = U;
kernLeft = H_left;
kernRight = H_right;
layers = (
{
layerId = m01;
shapes = (
{
closed = 1;
nodes = (
(276,0,o),
(392,131,o),
(435,307,c),
(464,434,l),
(451,435,l),
(391,212,o),
(273,45,o),
(175,45,cs),
(111,45,o),
(90,115,o),
(119,229,cs),
(217,620,ls),
(221,634,o),
(213,650,o),
(198,650,cs),
(182,650,o),
(170,638,o),
(166,622,cs),
(69,235,ls),
(32,90,o),
(69,0,o),
(164,0,cs)
);
},
{
closed = 1;
nodes = (
(382,-1,o),
(395,6,o),
(399,21,cs),
(550,622,ls),
(554,637,o),
(547,650,o),
(528,650,cs),
(510,650,o),
(502,639,o),
(499,627,cs),
(349,29,ls),
(345,11,o),
(356,1,o),
(370,0,cs)
);
}
);
vertWidth = 0;
width = 560;
},
{
layerId = "6449507E-FEE0-4D4A-A81F-7CAB6A5803D5";
shapes = (
{
closed = 1;
nodes = (
(316,0,o),
(389,123,o),
(429,302,cs),
(463,453,l),
(448,455,l),
(396,250,o),
(300,96,o),
(216,96,cs),
(168,96,o),
(178,180,o),
(191,230,cs),
(281,588,ls),
(289,617,o),
(271,650,o),
(240,650,cs),
(212,650,o),
(188,633,o),
(181,604,cs),
(92,249,ls),
(48,76,o),
(106,0,o),
(206,0,cs)
);
},
{
closed = 1;
nodes = (
(415,0,o),
(440,11,o),
(447,40,cs),
(586,590,ls),
(594,620,o),
(583,650,o),
(542,650,cs),
(507,650,o),
(491,631,o),
(486,608,cs),
(348,61,ls),
(340,22,o),
(364,0,o),
(392,0,cs)
);
}
);
vertWidth = 0;
width = 559;
}
);
unicode = 85;
},
{
color = 6;
glyphname = V;
kernLeft = V_left;
kernRight = V_right;
layers = (
{
layerId = m01;
shapes = (
{
closed = 1;
nodes = (
(186,0,o),
(192,11,o),
(199,25,cs),
(492,618,ls),
(502,638,o),
(490,650,o),
(475,650,cs),
(456,650,o),
(448,642,o),
(440,625,cs),
(175,84,l),
(186,81,l),
(158,626,ls),
(157,636,o),
(153,650,o),
(131,650,c),
(113,650,o),
(107,639,o),
(108,624,cs),
(141,25,ls),
(142,15,o),
(148,0,o),
(167,0,cs)
);
}
);
vertWidth = 0;
width = 459;
},
{
layerId = "6449507E-FEE0-4D4A-A81F-7CAB6A5803D5";
shapes = (
{
closed = 1;
nodes = (
(245,0,o),
(257,15,o),
(268,38,cs),
(537,581,ls),
(560,628,o),
(528,650,o),
(496,650,cs),
(466,650,o),
(454,639,o),
(440,611,cs),
(203,128,l),
(259,114,l),
(234,602,ls),
(233,623,o),
(224,650,o),
(182,650,cs),
(145,650,o),
(131,629,o),
(133,597,cs),
(163,48,ls),
(164,28,o),
(178,0,o),
(214,0,cs)
);
}
);
vertWidth = 0;
width = 474;
}
);
unicode = 86;
},
{
color = 6;
glyphname = W;
kernLeft = V_left;
kernRight = V_right;
layers = (
{
layerId = m01;
shapes = (
{
closed = 1;
nodes = (
(159,0,o),
(170,8,o),
(178,25,cs),
(416,552,l),
(411,555,l),
(419,28,ls),
(419,9,o),
(427,0,o),
(444,0,c),
(458,0,o),
(469,8,o),
(477,25,cs),
(750,618,ls),
(758,635,o),
(748,650,o),
(730,650,cs),
(716,650,o),
(705,640,o),
(698,625,cs),
(456,89,l),
(464,86,l),
(456,625,ls),
(456,640,o),
(448,650,o),
(431,650,cs),
(416,650,o),
(405,640,o),
(398,625,cs),
(157,89,l),
(165,86,l),
(157,625,ls),
(157,640,o),
(147,650,o),
(132,650,cs),
(117,650,o),
(107,640,o),
(107,624,cs),
(120,28,ls),
(120,9,o),
(128,0,o),
(145,0,c)
);
}
);
vertWidth = 0;
width = 717;
},
{
layerId = "6449507E-FEE0-4D4A-A81F-7CAB6A5803D5";
shapes = (
{
closed = 1;
nodes = (
(215,0,o),
(235,10,o),
(248,39,cs),
(459,508,l),
(410,509,l),
(416,53,l),
(416,15,o),
(435,0,o),
(467,0,cs),
(489,0,o),
(509,10,o),
(522,39,cs),
(772,582,ls),
(789,618,o),
(767,650,o),
(729,650,cs),
(706,650,o),
(686,637,o),
(674,611,cs),
(464,145,l),
(512,135,l),
(505,600,ls),
(505,630,o),
(489,650,o),
(455,650,cs),
(431,650,o),
(411,636,o),
(400,611,cs),
(186,136,l),
(238,123,l),
(232,600,ls),
(232,630,o),
(211,650,o),
(181,650,cs),
(152,650,o),
(131,631,o),
(131,599,cs),
(143,52,ls),
(144,14,o),
(161,0,o),
(193,0,cs)
);
}
);
vertWidth = 0;
width = 708;
}
);
unicode = 87;
},
{
color = 6;
glyphname = X;
layers = (
{
layerId = m01;
shapes = (
{
closed = 1;
nodes = (
(-24,-3,o),
(-7,-3,o),
(6,12,cs),
(246,297,l),
(257,300,l),
(518,609,ls),
(531,624,o),
(527,638,o),
(518,645,cs),
(508,653,o),
(491,652,o),
(478,637,cs),
(238,353,l),
(227,350,l),
(-36,38,ls),
(-46,26,o),
(-44,13,o),
(-35,6,cs)
);
},
{
closed = 1;
nodes = (
(364,8,o),
(369,20,o),
(364,35,cs),
(159,631,ls),
(152,650,o),
(133,654,o),
(121,649,cs),
(109,645,o),
(106,632,o),
(112,614,cs),
(316,21,ls),
(323,2,o),
(341,-3,o),
(354,3,cs)
);
}
);
vertWidth = 0;
width = 481;
},
{
layerId = "6449507E-FEE0-4D4A-A81F-7CAB6A5803D5";
shapes = (
{
closed = 1;
nodes = (
(52,-5,o),
(84,-8,o),
(108,21,cs),
(315,266,l),
(337,277,l),
(583,567,ls),
(611,600,o),
(596,626,o),
(579,639,cs),
(562,653,o),
(527,657,o),
(503,628,cs),
(290,376,l),
(271,369,l),
(26,80,ls),
(4,54,o),
(14,26,o),
(33,11,cs)
);
},
{
closed = 1;
nodes = (
(437,14,o),
(452,37,o),
(441,68,cs),
(254,614,ls),
(240,650,o),
(204,655,o),
(182,647,cs),
(162,639,o),
(145,622,o),
(159,581,cs),
(345,38,ls),
(359,1,o),
(394,-5,o),
(418,5,cs)
);
}
);
vertWidth = 0;
width = 516;
}
);
unicode = 88;
},
{
color = 6;
glyphname = Y;
layers = (
{
layerId = m01;
shapes = (
{
closed = 1;
nodes = (
(297,309,l),
(159,631,ls),
(151,650,o),
(133,654,o),
(121,649,cs),
(109,645,o),
(104,632,o),
(112,614,cs),
(264,257,l)
);
},
{
closed = 1;
nodes = (
(107,-3,o),
(124,-4,o),
(134,11,cs),
(524,609,ls),
(534,624,o),
(530,638,o),
(521,645,cs),
(510,653,o),
(491,650,o),
(481,635,cs),
(91,38,ls),
(83,26,o),
(85,13,o),
(95,6,cs)
);
}
);
vertWidth = 0;
width = 494;
},
{
layerId = "6449507E-FEE0-4D4A-A81F-7CAB6A5803D5";
shapes = (
{
closed = 1;
nodes = (
(353,337,l),
(233,616,ls),
(218,652,o),
(184,656,o),
(162,647,c),
(142,640,o),
(122,620,o),
(140,578,cs),
(287,233,l)
);
},
{
closed = 1;
nodes = (
(155,-6,o),
(188,-7,o),
(208,22,cs),
(565,570,ls),
(585,600,o),
(573,626,o),
(556,640,cs),
(535,655,o),
(499,653,o),
(479,624,cs),
(122,77,ls),
(105,51,o),
(114,26,o),
(133,11,cs)
);
}
);
vertWidth = 0;
width = 507;
}
);
unicode = 89;
},
{
color = 6;
glyphname = Z;
layers = (
{
layerId = m01;
shapes = (
{
closed = 1;
nodes = (
(380,0,ls),
(400,0,o),
(406,11,o),
(406,23,cs),
(406,35,o),
(400,46,o),
(380,46,cs),
(23,46,l),
(34,23,l),
(518,609,ls),
(530,624,o),
(527,638,o),
(520,644,cs),
(515,648,o),
(510,650,o),
(501,650,cs),
(153,650,ls),
(133,650,o),
(127,639,o),
(127,627,cs),
(127,615,o),
(133,604,o),
(153,604,cs),
(480,604,l),
(469,627,l),
(-18,38,ls),
(-25,29,o),
(-26,16,o),
(-20,8,cs),
(-17,4,o),
(-7,0,o),
(4,0,cs)
);
}
);
vertWidth = 0;
width = 521;
},
{
layerId = "6449507E-FEE0-4D4A-A81F-7CAB6A5803D5";
shapes = (
{
closed = 1;
nodes = (
(411,0,ls),
(453,0,o),
(462,25,o),
(462,49,cs),
(462,72,o),
(453,97,o),
(411,97,cs),
(111,97,l),
(132,52,l),
(558,567,ls),
(586,601,o),
(570,626,o),
(557,638,cs),
(547,647,o),
(538,650,o),
(522,650,cs),
(203,650,ls),
(161,650,o),
(152,625,o),
(152,601,cs),
(152,578,o),
(161,553,o),
(203,553,cs),
(475,553,l),
(454,598,l),
(25,80,ls),
(9,61,o),
(11,34,o),
(22,18,cs),
(28,11,o),
(45,0,o),
(66,0,cs)
);
}
);
vertWidth = 0;
width = 532;
}
);
unicode = 90;
},
{
color = 6;
glyphname = a;
kernLeft = o_left;
kernRight = n_right;
layers = (
{
layerId = m01;
shapes = (
{
closed = 1;
nodes = (
(155,0,o),
(207,87,o),
(248,228,cs),
(268,297,o),
(247,354,o),
(184,354,cs),
(104,354,o),
(37,276,o),
(9,156,cs),
(-10,76,o),
(8,0,o),
(84,0,cs)
);
},
{
closed = 1;
nodes = (
(54,45,o),
(43,87,o),
(63,169,cs),
(81,247,o),
(130,309,o),
(176,309,cs),
(222,309,o),
(239,281,o),
(227,234,cs),
(201,126,o),
(144,45,o),
(94,45,cs)
);
},
{
closed = 1;
nodes = (
(220,0,o),
(223,14,o),
(228,32,cs),
(301,322,ls),
(305,338,o),
(301,350,o),
(284,350,cs),
(265,350,o),
(255,343,o),
(250,325,cs),
(177,35,ls),
(173,18,o),
(173,0,o),
(195,0,cs)
);
}
);
vertWidth = 0;
width = 331;
},
{
layerId = "6449507E-FEE0-4D4A-A81F-7CAB6A5803D5";
shapes = (
{
closed = 1;
nodes = (
(189,0,o),
(220,75,o),
(248,180,cs),
(277,288,o),
(281,359,o),
(212,359,cs),
(135,359,o),
(63,292,o),
(36,184,cs),
(8,70,o),
(43,0,o),
(123,0,cs)
);
},
{
closed = 1;
nodes = (
(123,90,o),
(117,118,o),
(129,164,cs),
(145,229,o),
(176,269,o),
(210,269,cs),
(230,269,o),
(236,243,o),
(225,200,cs),
(208,132,o),
(177,90,o),
(144,90,cs)
);
},
{
closed = 1;
nodes = (
(268,0,o),
(276,17,o),
(283,46,cs),
(347,303,ls),
(356,340,o),
(342,359,o),
(309,359,cs),
(278,359,o),
(262,347,o),
(255,319,cs),
(191,62,ls),
(181,23,o),
(194,0,o),
(231,0,cs)
);
}
);
vertWidth = 0;
width = 353;
}
);
unicode = 97;
},
{
color = 6;
glyphname = b;
kernLeft = h_left;
kernRight = o_right;
layers = (
{
layerId = m01;
shapes = (
{
closed = 1;
nodes = (
(42,0,o),
(46,14,o),
(50,32,cs),
(198,622,ls),
(202,638,o),
(198,650,o),
(181,650,cs),
(162,650,o),
(152,643,o),
(147,625,cs),
(-1,35,ls),
(-5,18,o),
(-5,0,o),
(17,0,cs)
);
},
{
closed = 1;
nodes = (
(187,0,o),
(254,74,o),
(281,182,cs),
(307,286,o),
(274,354,o),
(207,354,cs),
(140,354,o),
(81,285,o),
(53,172,cs),
(26,66,o),
(47,0,o),
(107,0,cs)
);
},
{
closed = 1;
nodes = (
(78,45,o),
(64,85,o),
(83,163,cs),
(104,248,o),
(148,309,o),
(196,309,cs),
(236,309,o),
(250,269,o),
(231,191,cs),
(210,106,o),
(166,45,o),
(118,45,cs)
);
}
);
vertWidth = 0;
width = 336;
},
{
layerId = "6449507E-FEE0-4D4A-A81F-7CAB6A5803D5";
shapes = (
{
closed = 1;
nodes = (
(109,0,o),
(111,20,o),
(119,51,cs),
(254,590,ls),
(264,630,o),
(254,650,o),
(219,650,cs),
(187,650,o),
(170,637,o),
(162,607,cs),
(26,66,ls),
(16,25,o),
(29,0,o),
(69,0,cs)
);
},
{
closed = 1;
nodes = (
(237,0,o),
(309,69,o),
(337,180,cs),
(364,291,o),
(329,359,o),
(263,359,cs),
(176,359,o),
(151,291,o),
(125,184,cs),
(95,63,o),
(94,0,o),
(172,0,cs)
);
},
{
closed = 1;
nodes = (
(142,90,o),
(136,118,o),
(148,164,cs),
(164,229,o),
(195,269,o),
(229,269,cs),
(249,269,o),
(255,243,o),
(244,200,cs),
(227,132,o),
(196,90,o),
(163,90,cs)
);
}
);
vertWidth = 0;
width = 362;
}
);
unicode = 98;
},
{
color = 6;
glyphname = c;
kernLeft = o_left;
layers = (
{
layerId = m01;
shapes = (
{
closed = 1;
nodes = (
(158,0,o),
(216,49,o),
(241,112,cs),
(248,129,o),
(237,141,o),
(227,145,cs),
(218,149,o),
(201,145,o),
(195,131,cs),
(174,82,o),
(131,45,o),
(99,45,cs),
(56,45,o),
(44,88,o),
(66,173,cs),
(85,251,o),
(132,309,o),
(176,309,cs),
(201,309,o),
(212,289,o),
(212,265,cs),
(212,252,o),
(229,249,o),
(243,254,cs),
(255,258,o),
(260,271,o),
(258,284,cs),
(251,324,o),
(231,354,o),
(187,354,cs),
(102,354,o),
(40,280,o),
(10,160,cs),
(-13,68,o),
(21,0,o),
(90,0,cs)
);
}
);
vertWidth = 0;
width = 298;
},
{
layerId = "6449507E-FEE0-4D4A-A81F-7CAB6A5803D5";
shapes = (
{
closed = 1;
nodes = (
(193,0,o),
(250,43,o),
(278,112,cs),
(288,136,o),
(277,162,o),
(252,173,cs),
(228,183,o),
(202,173,o),
(191,148,cs),
(177,115,o),
(155,90,o),
(140,90,cs),
(121,90,o),
(118,119,o),
(130,167,cs),
(139,203,o),
(170,268,o),
(201,268,cs),
(207,268,o),
(210,264,o),
(210,256,cs),
(210,232,o),
(233,210,o),
(270,224,cs),
(291,231,o),
(304,252,o),
(300,277,cs),
(292,326,o),
(263,359,o),
(212,359,cs),
(126,359,o),
(61,283,o),
(32,169,cs),
(8,72,o),
(50,0,o),
(130,0,cs)
);
}
);
vertWidth = 0;
width = 301;
}
);
unicode = 99;
},
{
color = 6;
glyphname = d;
kernLeft = o_left;
layers = (
{
layerId = m01;
shapes = (
{
closed = 1;
nodes = (
(275,0,o),
(309,26,o),
(349,77,cs),
(369,103,o),
(373,109,o),
(373,120,cs),
(373,134,o),
(365,143,o),
(353,143,cs),
(340,143,o),
(333,134,o),
(315,110,cs),
(284,67,o),
(263,45,o),
(252,45,cs),
(236,45,o),
(235,79,o),
(248,133,cs),
(371,622,ls),
(375,638,o),
(371,650,o),
(354,650,cs),
(335,650,o),
(325,643,o),
(320,625,cs),
(199,144,ls),
(177,55,o),
(196,0,o),
(247,0,cs)
);
},
{
closed = 1;
nodes = (
(154,0,o),
(213,69,o),
(241,182,cs),
(268,288,o),
(247,354,o),
(187,354,cs),
(107,354,o),
(40,280,o),
(13,172,cs),
(-13,68,o),
(20,0,o),
(87,0,cs)
);
},
{
closed = 1;
nodes = (
(58,45,o),
(44,85,o),
(63,163,cs),
(84,248,o),
(128,309,o),
(176,309,cs),
(216,309,o),
(230,269,o),
(211,191,cs),
(190,106,o),
(146,45,o),
(98,45,cs)
);
}
);
vertWidth = 0;
width = 414;
},
{
layerId = "6449507E-FEE0-4D4A-A81F-7CAB6A5803D5";
shapes = (
{
closed = 1;
nodes = (
(316,0,o),
(362,29,o),
(406,86,cs),
(423,109,o),
(428,126,o),
(428,143,cs),
(428,164,o),
(414,181,o),
(393,181,cs),
(371,181,o),
(357,167,o),
(344,141,cs),
(331,115,o),
(308,87,o),
(302,87,cs),
(294,87,o),
(299,115,o),
(303,130,cs),
(419,596,ls),
(428,632,o),
(413,650,o),
(381,650,cs),
(351,650,o),
(335,639,o),
(328,611,cs),
(213,151,ls),
(183,32,o),
(225,0,o),
(277,0,cs)
);
},
{
closed = 1;
nodes = (
(189,0,o),
(220,75,o),
(248,180,cs),
(277,288,o),
(281,359,o),
(212,359,cs),
(135,359,o),
(63,292,o),
(36,184,cs),
(8,70,o),
(43,0,o),
(123,0,cs)
);
},
{
closed = 1;
nodes = (
(123,90,o),
(117,118,o),
(129,164,cs),
(145,229,o),
(176,269,o),
(210,269,cs),
(230,269,o),
(236,243,o),
(225,200,cs),
(208,132,o),
(177,90,o),
(144,90,cs)
);
}
);
vertWidth = 0;
width = 455;
}
);
unicode = 100;
},
{
color = 6;
glyphname = e;
kernLeft = o_left;
layers = (
{
layerId = m01;
shapes = (
{
closed = 1;
nodes = (
(152,0,o),
(217,42,o),
(290,126,cs),
(300,138,o),
(299,153,o),
(289,161,cs),
(277,170,o),
(261,169,o),
(252,158,cs),
(185,83,o),
(136,45,o),
(98,45,cs),
(58,45,o),
(44,85,o),
(63,163,cs),
(84,248,o),
(128,309,o),
(176,309,cs),
(195,309,o),
(209,300,o),
(209,287,cs),
(209,245,o),
(135,194,o),
(36,166,c),
(26,111,l),
(159,152,o),
(259,228,o),
(259,290,cs),
(259,327,o),
(228,354,o),
(187,354,cs),
(107,354,o),
(40,280,o),
(13,172,cs),
(-13,68,o),
(20,0,o),
(87,0,cs)
);
}
);
vertWidth = 0;
width = 347;
},
{
layerId = "6449507E-FEE0-4D4A-A81F-7CAB6A5803D5";
shapes = (
{
closed = 1;
nodes = (
(190,0,o),
(256,36,o),
(317,107,cs),
(337,131,o),
(331,159,o),
(313,173,cs),
(290,190,o),
(261,186,o),
(245,167,cs),
(201,116,o),
(164,90,o),
(139,90,cs),
(119,90,o),
(117,119,o),
(128,159,cs),
(141,213,o),
(165,269,o),
(196,269,cs),
(200,269,o),
(202,267,o),
(202,263,cs),
(202,234,o),
(138,194,o),
(90,183,c),
(79,113,l),
(211,152,o),
(296,224,o),
(296,283,cs),
(296,323,o),
(260,359,o),
(209,359,cs),
(131,359,o),
(62,287,o),
(35,179,cs),
(4,55,o),
(55,0,o),
(123,0,cs)
);
}
);
vertWidth = 0;
width = 346;
}
);
unicode = 101;
},
{
color = 6;
glyphname = f;
layers = (
{
layerId = m01;
shapes = (
{
closed = 1;
nodes = (
(197,305,ls),
(217,305,o),
(223,316,o),
(223,328,cs),
(223,340,o),
(217,350,o),
(197,350,cs),
(39,350,ls),
(19,350,o),
(13,340,o),
(13,328,cs),
(13,316,o),
(19,305,o),
(39,305,cs)
);
},
{
closed = 1;
nodes = (
(41,0,o),
(47,13,o),
(52,32,cs),
(172,514,ls),
(187,574,o),
(205,604,o),
(226,604,cs),
(238,604,o),
(249,589,o),
(260,560,cs),
(266,544,o),
(279,539,o),
(293,545,cs),
(307,551,o),
(312,563,o),
(307,578,cs),
(290,625,o),
(264,650,o),
(230,650,cs),
(180,650,o),
(144,608,o),
(123,524,cs),
(2,38,ls),
(-2,22,o),
(-4,0,o),
(19,0,cs)
);
}
);
vertWidth = 0;
width = 218;
},
{
layerId = "6449507E-FEE0-4D4A-A81F-7CAB6A5803D5";
shapes = (
{
closed = 1;
nodes = (
(266,261,ls),
(309,261,o),
(318,286,o),
(318,310,cs),
(318,333,o),
(310,357,o),
(266,357,cs),
(92,357,ls),
(48,357,o),
(40,333,o),
(40,310,cs),
(40,286,o),
(50,261,o),
(92,261,cs)
);
},
{
closed = 1;
nodes = (
(123,0,o),
(137,17,o),
(145,50,cs),
(255,491,ls),
(261,517,o),
(266,544,o),
(272,544,cs),
(278,544,o),
(281,535,o),
(283,530,cs),
(295,498,o),
(322,489,o),
(350,501,cs),
(377,513,o),
(388,536,o),
(378,565,cs),
(357,625,o),
(322,650,o),
(282,650,cs),
(227,650,o),
(181,612,o),
(157,514,cs),
(46,69,ls),
(36,29,o),
(49,0,o),
(88,0,cs)
);
}
);
vertWidth = 0;
width = 288;
}
);
unicode = 102;
},
{
color = 6;
glyphname = g;
kernLeft = o_left;
layers = (
{
layerId = m01;
shapes = (
{
closed = 1;
nodes = (
(154,0,o),
(213,69,o),
(241,182,cs),
(268,288,o),
(247,354,o),
(187,354,cs),
(107,354,o),
(40,280,o),
(13,172,cs),
(-13,68,o),
(20,0,o),
(87,0,cs)
);
},
{
closed = 1;
nodes = (
(58,45,o),
(44,85,o),
(63,163,cs),
(84,248,o),
(128,309,o),
(176,309,cs),
(216,309,o),
(230,269,o),
(211,191,cs),
(190,106,o),
(146,45,o),
(98,45,cs)
);
},
{
closed = 1;
nodes = (
(113,-300,o),
(150,-264,o),
(168,-193,cs),
(298,328,ls),
(301,340,o),
(290,349,o),
(276,350,cs),
(262,350,o),
(249,341,o),
(247,331,cs),
(117,-189,ls),
(106,-233,o),
(88,-255,o),
(62,-255,cs),
(37,-255,o),
(12,-236,o),
(-10,-199,cs),
(-14,-192,o),
(-23,-188,o),
(-35,-190,cs),
(-48,-192,o),
(-64,-206,o),
(-55,-222,cs),
(-27,-274,o),
(11,-300,o),
(58,-300,cs)
);
}
);
vertWidth = 0;
width = 326;
},
{
layerId = "6449507E-FEE0-4D4A-A81F-7CAB6A5803D5";
shapes = (
{
closed = 1;
nodes = (
(189,0,o),
(220,75,o),
(248,180,cs),
(277,288,o),
(281,359,o),
(212,359,cs),
(135,359,o),
(63,292,o),
(36,184,cs),
(8,70,o),
(43,0,o),
(123,0,cs)
);
},
{
closed = 1;
nodes = (
(123,90,o),
(117,118,o),
(129,164,cs),
(145,229,o),
(176,269,o),
(210,269,cs),
(230,269,o),
(236,243,o),
(225,200,cs),
(208,132,o),
(177,90,o),
(144,90,cs)
);
},
{
closed = 1;
nodes = (
(169,-300,o),
(207,-263,o),
(227,-181,cs),
(347,305,ls),
(353,330,o),
(347,359,o),
(310,359,cs),
(272,359,o),
(260,340,o),
(255,320,cs),
(135,-164,ls),
(130,-185,o),
(123,-204,o),
(108,-204,cs),
(95,-204,o),
(82,-188,o),
(69,-166,cs),
(61,-152,o),
(44,-141,o),
(18,-145,cs),
(-13,-150,o),
(-38,-183,o),
(-20,-215,cs),
(11,-273,o),
(55,-300,o),
(107,-300,cs)
);
}
);
vertWidth = 0;
width = 351;
}
);
unicode = 103;
},
{
color = 6;
glyphname = h;
kernLeft = h_left;
kernRight = n_right;
layers = (
{
layerId = m01;
shapes = (
{
closed = 1;
nodes = (
(264,-1,o),
(267,13,o),
(272,31,cs),
(310,183,ls),
(340,301,o),
(326,354,o),
(262,354,cs),
(210,354,o),
(137,290,o),
(90,209,c),
(66,96,l),
(85,168,o),
(205,308,o),
(250,308,cs),
(277,308,o),
(280,270,o),
(260,188,cs),
(221,34,ls),
(217,17,o),
(217,-1,o),
(239,-1,cs)
);
},
{
closed = 1;
nodes = (
(42,0,o),
(45,14,o),
(50,32,cs),
(198,622,ls),
(202,638,o),
(198,649,o),
(181,650,cs),
(162,651,o),
(152,643,o),
(147,625,cs),
(-1,35,ls),
(-5,18,o),
(-5,0,o),
(17,0,cs)
);
}
);
vertWidth = 0;
width = 374;
},
{
layerId = "6449507E-FEE0-4D4A-A81F-7CAB6A5803D5";
shapes = (
{
closed = 1;
nodes = (
(289,0,o),
(297,18,o),
(304,46,cs),
(338,184,ls),
(378,345,o),
(338,359,o),
(295,359,cs),
(240,359,o),
(167,296,o),
(121,217,c),
(122,64,l),
(152,163,o),
(217,266,o),
(246,266,cs),
(263,266,o),
(253,219,o),
(249,201,cs),
(215,61,ls),
(206,25,o),
(215,0,o),
(254,0,cs)
);
},
{
closed = 1;
nodes = (
(101,0,o),
(111,18,o),
(118,46,cs),
(255,592,ls),
(264,629,o),
(251,650,o),
(219,650,cs),
(187,650,o),
(170,640,o),
(162,607,cs),
(26,64,ls),
(16,25,o),
(29,0,o),
(65,0,cs)
);
}
);
vertWidth = 0;
width = 373;
}
);
unicode = 104;
},
{
color = 6;
glyphname = i;
layers = (
{
layerId = m01;
shapes = (
{
closed = 1;
nodes = (
(42,0,o),
(45,14,o),
(50,32,cs),
(123,322,ls),
(127,338,o),
(123,350,o),
(106,350,cs),
(87,350,o),
(77,343,o),
(72,325,cs),
(-1,35,ls),
(-5,18,o),
(-5,0,o),
(17,0,cs)
);
},
{
closed = 1;
nodes = (
(151,438,o),
(165,453,o),
(165,468,cs),
(165,485,o),
(149,497,o),
(134,497,cs),
(116,497,o),
(104,482,o),
(104,468,cs),
(104,453,o),
(117,438,o),
(134,438,cs)
);
}
);
vertWidth = 0;
width = 163;
},
{
layerId = "6449507E-FEE0-4D4A-A81F-7CAB6A5803D5";
shapes = (
{
closed = 1;
nodes = (
(101,0,o),
(111,18,o),
(118,46,cs),
(181,299,ls),
(190,336,o),
(177,357,o),
(145,357,cs),
(113,357,o),
(96,347,o),
(88,314,cs),
(26,64,ls),
(16,25,o),
(29,0,o),
(65,0,cs)
);
},
{
closed = 1;
nodes = (
(200,393,o),
(224,418,o),
(224,444,cs),
(224,472,o),
(199,494,o),
(172,494,cs),
(141,494,o),
(121,469,o),
(121,444,cs),
(121,418,o),
(144,393,o),
(172,393,cs)
);
}
);
vertWidth = 0;
width = 197;
}
);
unicode = 105;
},
{
color = 6;
glyphname = j;
layers = (
{
layerId = m01;
shapes = (
{
closed = 1;
nodes = (
(-58,-300,o),
(-26,-273,o),
(-13,-220,cs),
(123,322,ls),
(127,338,o),
(123,350,o),
(106,350,cs),
(87,350,o),
(77,343,o),
(72,325,cs),
(-63,-208,ls),
(-71,-239,o),
(-83,-255,o),
(-100,-255,cs),
(-113,-255,o),
(-124,-240,o),
(-129,-225,cs),
(-134,-209,o),
(-143,-206,o),
(-158,-210,cs),
(-175,-215,o),
(-182,-225,o),
(-176,-243,cs),
(-164,-278,o),
(-136,-300,o),
(-104,-300,cs)
);
},
{
closed = 1;
nodes = (
(151,438,o),
(165,453,o),
(165,468,cs),
(165,485,o),
(149,497,o),
(134,497,cs),
(116,497,o),
(104,482,o),
(104,468,cs),
(104,453,o),
(117,438,o),
(134,438,cs)
);
}
);
vertWidth = 0;
width = 163;
},
{
layerId = "6449507E-FEE0-4D4A-A81F-7CAB6A5803D5";
shapes = (
{
closed = 1;
nodes = (
(7,-300,o),
(39,-270,o),
(55,-205,cs),
(181,299,ls),
(190,336,o),
(177,357,o),
(145,357,cs),
(113,357,o),
(96,347,o),
(88,314,cs),
(-35,-180,ls),
(-38,-190,o),
(-42,-198,o),
(-45,-198,cs),
(-46,-198,o),
(-48,-196,o),
(-49,-193,cs),
(-60,-161,o),
(-74,-152,o),
(-106,-161,cs),
(-141,-171,o),
(-154,-192,o),
(-142,-228,cs),
(-126,-274,o),
(-89,-300,o),
(-48,-300,cs)
);
},
{
closed = 1;
nodes = (
(200,393,o),
(224,418,o),
(224,444,cs),
(224,472,o),
(199,494,o),
(172,494,cs),
(141,494,o),
(121,469,o),
(121,444,cs),
(121,418,o),
(144,393,o),
(172,393,cs)
);
}
);
vertWidth = 0;
width = 197;
}
);
unicode = 106;
},
{
color = 6;
glyphname = k;
kernLeft = h_left;
layers = (
{
layerId = m01;
shapes = (
{
closed = 1;
nodes = (
(42,0,o),
(46,14,o),
(50,32,cs),
(198,622,ls),
(202,638,o),
(198,649,o),
(181,650,cs),
(162,651,o),
(152,643,o),
(147,625,cs),
(-1,35,ls),
(-5,18,o),
(-5,0,o),
(17,0,cs)
);
},
{
closed = 1;
nodes = (
(260,0,o),
(276,19,o),
(260,42,cs),
(91,288,l),
(74,226,l),
(222,8,ls),
(226,2,o),
(232,0,o),
(237,0,cs)
);
},
{
closed = 1;
nodes = (
(233,186,o),
(301,237,o),
(301,307,cs),
(301,336,o),
(284,354,o),
(256,354,cs),
(169,354,o),
(93,287,o),
(93,243,cs),
(93,210,o),
(113,186,o),
(140,186,cs)
);
},
{
closed = 1;
nodes = (
(136,229,o),
(128,232,o),
(128,239,cs),
(128,264,o),
(197,303,o),
(237,303,cs),
(244,303,o),
(248,299,o),
(248,292,cs),
(248,260,o),
(201,229,o),
(146,229,cs)
);
}
);
vertWidth = 0;
width = 361;
},
{
layerId = "6449507E-FEE0-4D4A-A81F-7CAB6A5803D5";
shapes = (
{
closed = 1;
nodes = (
(109,0,o),
(111,20,o),
(119,51,cs),
(254,590,ls),
(264,628,o),
(256,648,o),
(221,650,cs),
(188,652,o),
(170,638,o),
(162,607,cs),
(26,66,ls),
(16,25,o),
(29,0,o),
(69,0,cs)
);
},
{
closed = 1;
nodes = (
(316,0,o),
(344,38,o),
(314,82,cs),
(145,328,l),
(110,202,l),
(234,19,ls),
(244,5,o),
(258,0,o),
(271,0,cs)
);
},
{
closed = 1;
nodes = (
(298,159,o),
(367,213,o),
(367,289,cs),
(367,333,o),
(340,359,o),
(298,359,cs),
(197,359,o),
(131,278,o),
(131,230,cs),
(131,188,o),
(164,159,o),
(192,159,cs)
);
},
{
closed = 1;
nodes = (
(215,226,o),
(209,232,o),
(209,240,cs),
(209,259,o),
(243,280,o),
(264,280,cs),
(273,280,o),
(279,275,o),
(279,267,cs),
(279,248,o),
(245,226,o),
(224,226,cs)
);
}
);
vertWidth = 0;
width = 366;
}
);
unicode = 107;
},
{
color = 6;
glyphname = l;
kernLeft = h_left;
layers = (
{
layerId = m01;
shapes = (
{
closed = 1;
nodes = (
(102,0,o),
(136,26,o),
(176,77,cs),
(196,103,o),
(200,109,o),
(200,120,cs),
(200,134,o),
(192,143,o),
(180,143,cs),
(167,143,o),
(160,134,o),
(142,110,cs),
(111,67,o),
(90,45,o),
(79,45,cs),
(63,45,o),
(62,79,o),
(75,133,cs),
(198,622,ls),
(202,638,o),
(198,650,o),
(181,650,cs),
(162,650,o),
(152,643,o),
(147,625,cs),
(26,144,ls),
(4,55,o),
(23,0,o),
(74,0,cs)
);
}
);
vertWidth = 0;
width = 241;
},
{
layerId = "6449507E-FEE0-4D4A-A81F-7CAB6A5803D5";
shapes = (
{
closed = 1;
nodes = (
(151,0,o),
(197,29,o),
(241,86,cs),
(258,109,o),
(263,126,o),
(263,143,cs),
(263,164,o),
(249,181,o),
(228,181,cs),
(206,181,o),
(192,167,o),
(179,141,cs),
(166,115,o),
(143,87,o),
(137,87,cs),
(131,87,o),
(136,115,o),
(140,130,cs),
(256,596,ls),
(265,632,o),
(248,650,o),
(216,650,cs),
(186,650,o),
(170,639,o),
(163,611,cs),
(48,151,ls),
(18,32,o),
(60,0,o),
(112,0,cs)
);
}
);
vertWidth = 0;
width = 290;
}
);
unicode = 108;
},
{
color = 6;
glyphname = m;
kernLeft = n_left;
kernRight = n_right;
layers = (
{
layerId = m01;
shapes = (
{
closed = 1;
nodes = (
(234,-1,o),
(237,13,o),
(242,31,cs),
(280,183,ls),
(310,301,o),
(296,354,o),
(232,354,cs),
(180,354,o),
(127,290,o),
(80,209,c),
(56,96,l),
(75,168,o),
(175,308,o),
(220,308,cs),
(247,308,o),
(251,270,o),
(230,188,cs),
(191,34,ls),
(187,17,o),
(187,-1,o),
(209,-1,cs)
);
},
{
closed = 1;
nodes = (
(32,0,o),
(35,14,o),
(40,32,cs),
(113,322,ls),
(117,338,o),
(113,349,o),
(96,350,cs),
(77,351,o),
(67,343,o),
(62,325,cs),
(-11,35,ls),
(-15,18,o),
(-15,0,o),
(7,0,cs)
);
},
{
closed = 1;
nodes = (
(435,-1,o),
(438,13,o),
(443,31,cs),
(481,183,ls),
(511,301,o),
(497,354,o),
(433,354,cs),
(381,354,o),
(328,290,o),
(281,209,c),
(257,96,l),
(276,168,o),
(376,308,o),
(421,308,cs),
(448,308,o),
(452,270,o),
(431,188,cs),
(392,34,ls),
(388,17,o),
(388,-1,o),
(410,-1,cs)
);
}
);
vertWidth = 0;
width = 545;
},
{
layerId = "6449507E-FEE0-4D4A-A81F-7CAB6A5803D5";
shapes = (
{
closed = 1;
nodes = (
(269,0,o),
(277,18,o),
(284,46,cs),
(318,184,ls),
(358,345,o),
(318,359,o),
(275,359,cs),
(220,359,o),
(157,296,o),
(111,217,c),
(112,64,l),
(142,163,o),
(197,266,o),
(226,266,cs),
(243,266,o),
(233,219,o),
(229,201,cs),
(195,61,ls),
(186,25,o),
(195,0,o),
(234,0,cs)
);
},
{
closed = 1;
nodes = (
(91,0,o),
(101,18,o),
(108,46,cs),
(171,299,ls),
(180,336,o),
(167,357,o),
(135,357,cs),
(103,357,o),
(86,347,o),
(78,314,cs),
(16,64,ls),
(6,25,o),
(19,0,o),
(55,0,cs)
);
},
{
closed = 1;
nodes = (
(445,0,o),
(453,18,o),
(460,46,cs),
(494,184,ls),
(534,345,o),
(494,359,o),
(451,359,cs),
(396,359,o),
(333,296,o),
(287,217,c),
(288,64,l),
(318,163,o),
(373,266,o),
(402,266,cs),
(419,266,o),
(409,219,o),
(405,201,cs),
(371,61,ls),
(362,25,o),
(371,0,o),
(410,0,cs)
);
}
);
vertWidth = 0;
width = 529;
}
);
unicode = 109;
},
{
color = 6;
glyphname = n;
kernLeft = n_left;
kernRight = n_right;
layers = (
{
layerId = m01;
shapes = (
{
closed = 1;
nodes = (
(254,0,o),
(257,14,o),
(262,32,cs),
(300,183,ls),
(330,301,o),
(316,354,o),
(252,354,cs),
(200,354,o),
(127,290,o),
(80,209,c),
(56,96,l),
(75,168,o),
(195,308,o),
(240,308,cs),
(267,308,o),
(271,270,o),
(250,188,cs),
(211,35,ls),
(207,18,o),
(207,0,o),
(229,0,cs)
);
},
{
closed = 1;
nodes = (
(32,0,o),
(35,14,o),
(40,32,cs),
(113,322,ls),
(117,338,o),
(113,350,o),
(96,350,cs),
(77,350,o),
(67,343,o),
(62,325,cs),
(-11,35,ls),
(-15,18,o),
(-15,0,o),
(7,0,cs)
);
}
);
vertWidth = 0;
width = 364;
},
{
layerId = "6449507E-FEE0-4D4A-A81F-7CAB6A5803D5";
shapes = (
{
closed = 1;
nodes = (
(279,0,o),
(287,18,o),
(294,46,cs),
(328,184,ls),
(368,345,o),
(328,359,o),
(285,359,cs),
(230,359,o),
(157,296,o),
(111,217,c),
(112,64,l),
(142,163,o),
(207,266,o),
(236,266,cs),
(253,266,o),
(243,219,o),
(239,201,cs),
(205,61,ls),
(196,25,o),
(205,0,o),
(244,0,cs)
);
},
{
closed = 1;
nodes = (
(91,0,o),
(101,18,o),
(108,46,cs),
(171,299,ls),
(180,336,o),
(167,357,o),
(135,357,cs),
(103,357,o),
(86,347,o),
(78,314,cs),
(16,64,ls),
(6,25,o),
(19,0,o),
(55,0,cs)
);
}
);
vertWidth = 0;
width = 363;
}
);
unicode = 110;
},
{
color = 6;
glyphname = o;
kernLeft = o_left;
kernRight = o_right;
layers = (
{
layerId = m01;
shapes = (
{
closed = 1;
nodes = (
(167,0,o),
(234,74,o),
(261,182,cs),
(287,286,o),
(254,354,o),
(187,354,cs),
(107,354,o),
(40,280,o),
(13,172,cs),
(-13,68,o),
(20,0,o),
(87,0,cs)
);
},
{
closed = 1;
nodes = (
(58,45,o),
(44,85,o),
(63,163,cs),
(84,248,o),
(128,309,o),
(176,309,cs),
(216,309,o),
(230,269,o),
(211,191,cs),
(190,106,o),
(146,45,o),
(98,45,cs)
);
}
);
vertWidth = 0;
width = 316;
},
{
layerId = "6449507E-FEE0-4D4A-A81F-7CAB6A5803D5";
shapes = (
{
closed = 1;
nodes = (
(218,0,o),
(290,69,o),
(318,180,cs),
(345,291,o),
(310,359,o),
(225,359,cs),
(135,359,o),
(63,292,o),
(36,184,cs),
(8,70,o),
(43,0,o),
(129,0,cs)
);
},
{
closed = 1;
nodes = (
(123,90,o),
(117,118,o),
(129,164,cs),
(145,229,o),
(176,269,o),
(210,269,cs),
(230,269,o),
(236,243,o),
(225,200,cs),
(208,132,o),
(177,90,o),
(144,90,cs)
);
}
);
vertWidth = 0;
width = 343;
}
);
unicode = 111;
},
{
color = 6;
glyphname = p;
kernLeft = n_left;
kernRight = o_right;
layers = (
{
layerId = m01;
shapes = (
{
closed = 1;
nodes = (
(-43,-300,o),
(-39,-286,o),
(-35,-268,cs),
(113,322,ls),
(117,338,o),
(113,350,o),
(96,350,cs),
(77,350,o),
(67,343,o),
(62,325,cs),
(-86,-265,ls),
(-90,-282,o),
(-90,-300,o),
(-68,-300,cs)
);
},
{
closed = 1;
nodes = (
(177,0,o),
(244,74,o),
(271,182,cs),
(297,286,o),
(264,354,o),
(197,354,cs),
(130,354,o),
(71,285,o),
(43,172,cs),
(16,66,o),
(37,0,o),
(97,0,cs)
);
},
{
closed = 1;
nodes = (
(68,45,o),
(54,85,o),
(73,163,cs),
(94,248,o),
(138,309,o),
(186,309,cs),
(226,309,o),
(240,269,o),
(221,191,cs),
(200,106,o),
(156,45,o),
(108,45,cs)
);
}
);
vertWidth = 0;
width = 326;
},
{
layerId = "6449507E-FEE0-4D4A-A81F-7CAB6A5803D5";
shapes = (
{
closed = 1;
nodes = (
(25,-300,o),
(27,-280,o),
(35,-249,cs),
(171,298,ls),
(181,337,o),
(171,357,o),
(136,357,cs),
(103,357,o),
(86,345,o),
(78,314,cs),
(-58,-234,ls),
(-68,-275,o),
(-55,-300,o),
(-15,-300,cs)
);
},
{
closed = 1;
nodes = (
(227,0,o),
(299,69,o),
(327,180,cs),
(354,291,o),
(319,359,o),
(253,359,cs),
(166,359,o),
(141,291,o),
(115,184,cs),
(85,63,o),
(84,0,o),
(162,0,cs)
);
},
{
closed = 1;
nodes = (
(132,90,o),
(126,118,o),
(138,164,cs),
(154,229,o),
(185,269,o),
(219,269,cs),
(239,269,o),
(245,243,o),
(234,200,cs),
(217,132,o),
(186,90,o),
(153,90,cs)
);
}
);
vertWidth = 0;
width = 352;
}
);
unicode = 112;
},
{
color = 6;
glyphname = q;
kernLeft = o_left;
layers = (
{
layerId = m01;
shapes = (
{
closed = 1;
nodes = (
(179,-300,o),
(230,-262,o),
(292,-200,cs),
(302,-190,o),
(307,-180,o),
(308,-169,cs),
(310,-157,o),
(301,-149,o),
(290,-147,cs),
(279,-145,o),
(270,-152,o),
(257,-165,cs),
(208,-214,o),
(177,-243,o),
(167,-243,cs),
(158,-243,o),
(157,-234,o),
(164,-206,cs),
(296,322,ls),
(300,338,o),
(296,350,o),
(279,350,cs),
(260,350,o),
(250,343,o),
(245,325,cs),
(114,-197,ls),
(97,-265,o),
(107,-300,o),
(143,-300,cs)
);
},
{
closed = 1;
nodes = (
(154,0,o),
(213,69,o),
(241,182,cs),
(268,288,o),
(247,354,o),
(187,354,cs),
(107,354,o),
(40,280,o),
(13,172,cs),
(-13,68,o),
(20,0,o),
(87,0,cs)
);
},
{
closed = 1;
nodes = (
(58,45,o),
(44,85,o),
(63,163,cs),
(84,248,o),
(128,309,o),
(176,309,cs),
(216,309,o),
(230,269,o),
(211,191,cs),
(190,106,o),
(146,45,o),
(98,45,cs)
);
}
);
vertWidth = 0;
width = 326;
},
{
layerId = "6449507E-FEE0-4D4A-A81F-7CAB6A5803D5";
shapes = (
{
closed = 1;
nodes = (
(241,-300,o),
(287,-271,o),
(331,-214,cs),
(348,-191,o),
(353,-174,o),
(353,-157,cs),
(353,-136,o),
(339,-119,o),
(318,-119,cs),
(296,-119,o),
(282,-133,o),
(269,-159,cs),
(256,-185,o),
(233,-213,o),
(227,-213,cs),
(219,-213,o),
(225,-185,o),
(229,-170,cs),
(347,305,ls),
(356,341,o),
(340,359,o),
(308,359,cs),
(278,359,o),
(262,348,o),
(255,320,cs),
(138,-149,ls),
(108,-268,o),
(150,-300,o),
(202,-300,cs)
);
},
{
closed = 1;
nodes = (
(189,0,o),
(220,75,o),
(248,180,cs),
(277,288,o),
(281,359,o),
(212,359,cs),
(135,359,o),
(63,292,o),
(36,184,cs),
(8,70,o),
(43,0,o),
(123,0,cs)
);
},
{
closed = 1;
nodes = (
(123,90,o),
(117,118,o),
(129,164,cs),
(145,229,o),
(176,269,o),
(210,269,cs),
(230,269,o),
(236,243,o),
(225,200,cs),
(208,132,o),
(177,90,o),
(144,90,cs)
);
}
);
vertWidth = 0;
width = 351;
}
);
unicode = 113;
},
{
color = 6;
glyphname = r;
kernLeft = n_left;
layers = (
{
layerId = m01;
shapes = (
{
closed = 1;
nodes = (
(32,0,o),
(35,14,o),
(40,32,cs),
(113,322,ls),
(117,338,o),
(113,349,o),
(96,350,cs),
(77,351,o),
(67,343,o),
(62,325,cs),
(-11,35,ls),
(-15,18,o),
(-15,0,o),
(7,0,cs)
);
},
{
closed = 1;
nodes = (
(75,168,o),
(189,308,o),
(234,308,cs),
(245,308,o),
(253,299,o),
(257,280,cs),
(260,265,o),
(272,260,o),
(289,264,cs),
(301,267,o),
(311,277,o),
(308,290,cs),
(297,332,o),
(276,354,o),
(246,354,cs),
(194,354,o),
(127,290,o),
(80,209,c),
(56,96,l)
);
}
);
vertWidth = 0;
width = 318;
},
{
layerId = "6449507E-FEE0-4D4A-A81F-7CAB6A5803D5";
shapes = (
{
closed = 1;
nodes = (
(95,0,o),
(102,18,o),
(110,48,cs),
(175,302,ls),
(183,335,o),
(167,357,o),
(134,357,cs),
(105,357,o),
(86,346,o),
(79,317,cs),
(17,63,ls),
(8,26,o),
(17,0,o),
(57,0,cs)
);
},
{
closed = 1;
nodes = (
(139,155,o),
(213,274,o),
(243,274,cs),
(248,274,o),
(252,270,o),
(254,263,cs),
(261,236,o),
(284,223,o),
(314,230,cs),
(344,238,o),
(356,258,o),
(350,281,cs),
(337,333,o),
(310,359,o),
(272,359,cs),
(221,359,o),
(168,304,o),
(121,222,c),
(110,51,l)
);
}
);
vertWidth = 0;
width = 335;
}
);
unicode = 114;
},
{
color = 6;
glyphname = s;
layers = (
{
layerId = m01;
shapes = (
{
closed = 1;
nodes = (
(164,0,o),
(228,53,o),
(237,123,cs),
(244,177,o),
(222,208,o),
(145,208,cs),
(100,208,o),
(79,220,o),
(84,249,cs),
(91,287,o),
(119,309,o),
(155,309,cs),
(177,309,o),
(195,299,o),
(210,280,cs),
(220,267,o),
(236,254,o),
(249,263,cs),
(263,273,o),
(269,285,o),
(251,310,cs),
(228,339,o),
(200,354,o),
(166,354,cs),
(101,354,o),
(47,310,o),
(36,251,cs),
(25,190,o),
(56,160,o),
(126,160,cs),
(182,160,o),
(191,148,o),
(187,116,cs),
(182,75,o),
(144,45,o),
(99,45,cs),
(70,45,o),
(49,56,o),
(36,79,cs),
(26,96,o),
(16,106,o),
(2,98,cs),
(-13,89,o),
(-13,71,o),
(-2,54,cs),
(20,18,o),
(51,0,o),
(92,0,cs)
);
}
);
vertWidth = 0;
width = 307;
},
{
layerId = "6449507E-FEE0-4D4A-A81F-7CAB6A5803D5";
shapes = (
{
closed = 1;
nodes = (
(213,0,o),
(278,55,o),
(287,127,cs),
(295,188,o),
(276,230,o),
(183,230,c),
(164,230,o),
(163,242,o),
(164,249,cs),
(166,261,o),
(179,269,o),
(196,269,cs),
(210,269,o),
(219,265,o),
(227,258,cs),
(253,236,o),
(280,234,o),
(298,252,cs),
(321,275,o),
(319,304,o),
(291,328,cs),
(267,349,o),
(238,359,o),
(205,359,cs),
(136,359,o),
(81,315,o),
(69,254,cs),
(57,184,o),
(84,136,o),
(167,136,cs),
(175,136,o),
(194,135,o),
(192,119,cs),
(190,105,o),
(168,90,o),
(144,90,cs),
(130,90,o),
(119,96,o),
(113,106,cs),
(91,142,o),
(71,144,o),
(49,132,cs),
(24,117,o),
(16,89,o),
(36,58,cs),
(60,19,o),
(94,0,o),
(138,0,cs)
);
}
);
vertWidth = 0;
width = 326;
}
);
unicode = 115;
},
{
color = 6;
glyphname = t;
layers = (
{
layerId = m01;
shapes = (
{
closed = 1;
nodes = (
(223,305,ls),
(243,305,o),
(249,316,o),
(249,328,cs),
(249,340,o),
(243,350,o),
(223,350,cs),
(37,350,ls),
(17,350,o),
(11,340,o),
(11,328,cs),
(11,316,o),
(17,305,o),
(37,305,cs)
);
},
{
closed = 1;
nodes = (
(121,0,o),
(162,33,o),
(225,114,cs),
(247,142,o),
(256,163,o),
(256,171,cs),
(256,179,o),
(251,180,o),
(247,180,cs),
(235,180,o),
(224,170,o),
(203,147,cs),
(139,80,o),
(109,52,o),
(98,52,cs),
(82,52,o),
(81,76,o),
(95,133,cs),
(178,463,ls),
(182,479,o),
(178,491,o),
(161,491,cs),
(142,491,o),
(132,484,o),
(127,466,cs),
(46,144,ls),
(20,42,o),
(34,0,o),
(86,0,cs)
);
}
);
vertWidth = 0;
width = 299;
},
{
layerId = "6449507E-FEE0-4D4A-A81F-7CAB6A5803D5";
shapes = (
{
closed = 1;
nodes = (
(266,263,ls),
(305,263,o),
(316,288,o),
(316,310,cs),
(316,333,o),
(308,357,o),
(266,357,cs),
(90,357,ls),
(49,357,o),
(40,333,o),
(40,310,cs),
(40,288,o),
(50,263,o),
(90,263,cs)
);
},
{
closed = 1;
nodes = (
(179,0,o),
(242,29,o),
(308,113,cs),
(334,146,o),
(342,171,o),
(342,180,cs),
(342,211,o),
(322,215,o),
(307,215,cs),
(292,215,o),
(274,209,o),
(248,176,cs),
(211,130,o),
(184,100,o),
(176,100,cs),
(169,100,o),
(174,125,o),
(178,139,c),
(251,433,ls),
(261,472,o),
(245,491,o),
(210,491,cs),
(179,491,o),
(163,478,o),
(155,450,cs),
(81,162,ls),
(42,6,o),
(87,0,o),
(144,0,cs)
);
}
);
vertWidth = 0;
width = 370;
}
);
unicode = 116;
},
{
color = 6;
glyphname = u;
kernLeft = n_left;
kernRight = n_right;
layers = (
{
layerId = m01;
shapes = (
{
closed = 1;
nodes = (
(121,0,o),
(184,59,o),
(231,140,c),
(255,253,l),
(236,181,o),
(126,46,o),
(81,46,cs),
(54,46,o),
(50,79,o),
(71,161,cs),
(112,322,ls),
(116,338,o),
(112,350,o),
(95,350,cs),
(76,350,o),
(66,343,o),
(61,325,cs),
(21,166,ls),
(-9,48,o),
(5,0,o),
(69,0,cs)
);
},
{
closed = 1;
nodes = (
(243,0,o),
(246,14,o),
(251,32,cs),
(324,322,ls),
(328,338,o),
(324,350,o),
(307,350,cs),
(288,350,o),
(278,343,o),
(273,325,cs),
(200,35,ls),
(196,18,o),
(196,0,o),
(218,0,cs)
);
}
);
vertWidth = 0;
width = 354;
},
{
layerId = "6449507E-FEE0-4D4A-A81F-7CAB6A5803D5";
shapes = (
{
closed = 1;
nodes = (
(142,0,o),
(215,63,o),
(261,142,c),
(260,293,l),
(230,194,o),
(165,93,o),
(136,93,cs),
(119,93,o),
(129,140,o),
(133,158,cs),
(167,296,ls),
(176,332,o),
(167,357,o),
(128,357,cs),
(93,357,o),
(85,339,o),
(78,311,cs),
(44,175,ls),
(4,14,o),
(44,0,o),
(87,0,cs)
);
},
{
closed = 1;
nodes = (
(268,0,o),
(285,10,o),
(293,43,cs),
(356,293,ls),
(366,332,o),
(353,357,o),
(317,357,cs),
(281,357,o),
(271,339,o),
(264,311,cs),
(200,58,ls),
(191,21,o),
(204,0,o),
(236,0,cs)
);
}
);
vertWidth = 0;
width = 363;
}
);
unicode = 117;
},
{
color = 6;
glyphname = v;
kernLeft = v_left;
kernRight = v_right;
layers = (
{
layerId = m01;
shapes = (
{
closed = 1;
nodes = (
(108,0,o),
(113,4,o),
(119,16,cs),
(285,318,ls),
(293,333,o),
(283,350,o),
(263,350,cs),
(252,350,o),
(243,346,o),
(237,334,cs),
(92,59,l),
(109,56,l),
(82,328,ls),
(80,345,o),
(69,350,o),
(58,350,cs),
(37,350,o),
(30,333,o),
(32,320,cs),
(67,19,ls),
(69,6,o),
(79,0,o),
(92,0,cs)
);
}
);
vertWidth = 0;
width = 306;
},
{
layerId = "6449507E-FEE0-4D4A-A81F-7CAB6A5803D5";
shapes = (
{
closed = 1;
nodes = (
(155,0,o),
(163,8,o),
(174,28,cs),
(320,292,ls),
(335,320,o),
(321,357,o),
(279,357,cs),
(260,357,o),
(245,350,o),
(234,329,cs),
(114,104,l),
(165,104,l),
(144,315,ls),
(141,348,o),
(119,357,o),
(98,357,cs),
(59,357,o),
(47,326,o),
(50,302,cs),
(81,39,ls),
(84,14,o),
(102,0,o),
(128,0,cs)
);
}
);
vertWidth = 0;
width = 318;
}
);
unicode = 118;
},
{
color = 6;
glyphname = w;
kernLeft = v_left;
kernRight = v_right;
layers = (
{
layerId = m01;
shapes = (
{
closed = 1;
nodes = (
(108,0,o),
(113,4,o),
(119,16,cs),
(258,272,l),
(246,276,l),
(272,19,ls),
(273,6,o),
(284,0,o),
(297,0,cs),
(313,0,o),
(318,4,o),
(324,16,cs),
(490,318,ls),
(498,333,o),
(488,350,o),
(468,350,cs),
(457,350,o),
(448,346,o),
(442,334,cs),
(297,59,l),
(314,56,l),
(287,328,ls),
(285,345,o),
(274,350,o),
(263,350,cs),
(251,350,o),
(243,345,o),
(237,334,cs),
(92,59,l),
(109,56,l),
(82,328,ls),
(80,345,o),
(69,350,o),
(58,350,cs),
(37,350,o),
(30,333,o),
(32,320,cs),
(67,19,ls),
(69,6,o),
(79,0,o),
(92,0,cs)
);
}
);
vertWidth = 0;
width = 511;
},
{
layerId = "6449507E-FEE0-4D4A-A81F-7CAB6A5803D5";
shapes = (
{
closed = 1;
nodes = (
(155,0,o),
(163,8,o),
(174,28,cs),
(309,281,l),
(232,307,l),
(256,39,ls),
(258,15,o),
(276,0,o),
(303,0,cs),
(330,0,o),
(338,8,o),
(349,28,cs),
(495,292,ls),
(510,320,o),
(496,357,o),
(454,357,cs),
(435,357,o),
(420,350,o),
(409,329,cs),
(277,82,l),
(343,79,l),
(322,315,ls),
(319,348,o),
(297,357,o),
(276,357,cs),
(255,357,o),
(241,349,o),
(231,330,cs),
(102,82,l),
(167,79,l),
(144,315,ls),
(141,348,o),
(119,357,o),
(98,357,cs),
(59,357,o),
(47,326,o),
(50,302,cs),
(81,39,ls),
(84,14,o),
(102,0,o),
(128,0,cs)
);
}
);
vertWidth = 0;
width = 493;
}
);
unicode = 119;
},
{
color = 6;
glyphname = x;
layers = (
{
layerId = m01;
shapes = (
{
closed = 1;
nodes = (
(4,0,o),
(12,4,o),
(29,24,cs),
(132,147,l),
(149,157,l),
(276,308,ls),
(292,327,o),
(287,350,o),
(263,350,cs),
(254,350,o),
(247,346,o),
(237,335,cs),
(129,207,l),
(114,198,l),
(-15,44,ls),
(-30,27,o),
(-27,0,o),
(-5,0,cs)
);
},
{
closed = 1;
nodes = (
(198,0,o),
(209,15,o),
(200,42,cs),
(103,329,ls),
(98,344,o),
(88,350,o),
(78,350,cs),
(55,350,o),
(50,329,o),
(57,309,cs),
(154,25,ls),
(162,3,o),
(170,0,o),
(179,0,cs)
);
}
);
vertWidth = 0;
width = 298;
},
{
layerId = "6449507E-FEE0-4D4A-A81F-7CAB6A5803D5";
shapes = (
{
closed = 1;
nodes = (
(63,0,o),
(75,1,o),
(100,30,cs),
(187,128,l),
(211,142,l),
(323,268,ls),
(372,323,o),
(342,357,o),
(308,357,cs),
(287,357,o),
(272,349,o),
(255,330,cs),
(165,228,l),
(142,214,l),
(23,80,ls),
(-18,33,o),
(16,0,o),
(51,0,cs)
);
},
{
closed = 1;
nodes = (
(258,0,o),
(292,17,o),
(270,70,cs),
(164,322,ls),
(153,348,o),
(135,357,o),
(118,357,cs),
(81,357,o),
(59,327,o),
(76,288,cs),
(183,39,ls),
(200,0,o),
(214,0,o),
(228,0,cs)
);
}
);
vertWidth = 0;
width = 339;
}
);
unicode = 120;
},
{
color = 6;
glyphname = y;
kernLeft = n_left;
kernRight = n_right;
layers = (
{
layerId = m01;
shapes = (
{
closed = 1;
nodes = (
(121,-1,o),
(184,59,o),
(231,140,c),
(255,253,l),
(236,181,o),
(126,45,o),
(81,45,cs),
(54,45,o),
(50,79,o),
(71,161,cs),
(112,322,ls),
(116,338,o),
(112,349,o),
(95,350,cs),
(76,351,o),
(66,343,o),
(61,325,cs),
(21,166,ls),
(-9,48,o),
(5,-1,o),
(69,-1,cs)
);
},
{
closed = 1;
nodes = (
(135,-300,o),
(176,-266,o),
(191,-207,cs),
(324,322,ls),
(328,338,o),
(324,349,o),
(307,350,cs),
(288,351,o),
(278,343,o),
(273,325,cs),
(140,-203,ls),
(132,-234,o),
(113,-250,o),
(86,-250,cs),
(58,-250,o),
(26,-232,o),
(2,-203,cs),
(-7,-191,o),
(-21,-182,o),
(-34,-192,cs),
(-46,-201,o),
(-51,-213,o),
(-38,-231,cs),
(-7,-274,o),
(39,-300,o),
(82,-300,cs)
);
}
);
vertWidth = 0;
width = 354;
},
{
layerId = "6449507E-FEE0-4D4A-A81F-7CAB6A5803D5";
shapes = (
{
closed = 1;
nodes = (
(142,0,o),
(215,63,o),
(261,142,c),
(260,293,l),
(230,194,o),
(165,93,o),
(136,93,cs),
(119,93,o),
(129,140,o),
(133,158,cs),
(167,296,ls),
(176,332,o),
(167,357,o),
(128,357,cs),
(93,357,o),
(85,339,o),
(78,311,cs),
(44,175,ls),
(4,14,o),
(44,0,o),
(87,0,cs)
);
},
{
closed = 1;
nodes = (
(179,-300,o),
(215,-262,o),
(233,-191,cs),
(355,296,ls),
(364,333,o),
(361,357,o),
(325,357,cs),
(290,357,o),
(272,344,o),
(264,311,cs),
(143,-176,ls),
(140,-188,o),
(133,-196,o),
(120,-196,cs),
(102,-196,o),
(77,-183,o),
(61,-163,cs),
(44,-138,o),
(13,-130,o),
(-10,-148,cs),
(-32,-166,o),
(-45,-188,o),
(-20,-224,cs),
(16,-272,o),
(70,-300,o),
(118,-300,cs)
);
}
);
vertWidth = 0;
width = 361;
}
);
unicode = 121;
},
{
color = 6;
glyphname = z;
layers = (
{
layerId = m01;
shapes = (
{
closed = 1;
nodes = (
(229,0,ls),
(249,0,o),
(255,11,o),
(255,23,cs),
(255,35,o),
(249,45,o),
(229,45,cs),
(38,45,l),
(41,28,l),
(286,308,ls),
(302,326,o),
(295,350,o),
(271,350,cs),
(78,350,ls),
(58,350,o),
(52,339,o),
(52,327,cs),
(52,315,o),
(58,305,o),
(78,305,cs),
(240,305,l),
(236,322,l),
(-8,44,ls),
(-20,30,o),
(-17,0,o),
(5,0,cs)
);
}
);
vertWidth = 0;
width = 350;
},
{
layerId = "6449507E-FEE0-4D4A-A81F-7CAB6A5803D5";
shapes = (
{
closed = 1;
nodes = (
(255,0,ls),
(294,0,o),
(302,23,o),
(302,45,cs),
(302,67,o),
(295,90,o),
(255,90,cs),
(109,90,l),
(119,42,l),
(329,278,ls),
(363,317,o),
(339,357,o),
(297,357,cs),
(126,357,ls),
(86,357,o),
(78,334,o),
(78,312,c),
(78,290,o),
(85,267,o),
(126,267,cs),
(264,267,l),
(247,316,l),
(33,81,ls),
(3,49,o),
(27,0,o),
(63,0,cs)
);
}
);
vertWidth = 0;
width = 363;
}
);
unicode = 122;
},
{
color = 6;
glyphname = zero;
layers = (
{
layerId = m01;
shapes = (
{
closed = 1;
nodes = (
(252,0,o),
(344,135,o),
(391,353,cs),
(431,537,o),
(393,650,o),
(292,650,cs),
(167,650,o),
(73,503,o),
(45,266,cs),
(26,102,o),
(66,0,o),
(150,0,cs)
);
},
{
closed = 1;
nodes = (
(101,46,o),
(81,133,o),
(98,275,cs),
(122,478,o),
(194,604,o),
(286,604,cs),
(352,604,o),
(372,507,o),
(338,350,cs),
(297,162,o),
(226,46,o),
(151,46,cs)
);
}
);
vertWidth = 0;
width = 424;
},
{
layerId = "6449507E-FEE0-4D4A-A81F-7CAB6A5803D5";
shapes = (
{
closed = 1;
nodes = (
(300,0,o),
(398,121,o),
(447,345,cs),
(494,563,o),
(432,650,o),
(329,650,cs),
(207,650,o),
(105,517,o),
(76,274,cs),
(54,81,o),
(113,0,o),
(199,0,cs)
);
},
{
closed = 1;
nodes = (
(161,97,o),
(172,219,o),
(179,276,cs),
(197,432,o),
(247,553,o),
(324,553,cs),
(377,553,o),
(358,416,o),
(345,354,cs),
(313,209,o),
(263,97,o),
(200,97,cs)
);
}
);
vertWidth = 0;
width = 451;
}
);
unicode = 48;
},
{
color = 6;
glyphname = one;
layers = (
{
layerId = m01;
shapes = (
{
closed = 1;
nodes = (
(61,0,o),
(67,13,o),
(69,23,cs),
(215,617,ls),
(219,635,o),
(214,650,o),
(197,650,cs),
(178,650,o),
(170,641,o),
(166,625,cs),
(18,29,ls),
(14,14,o),
(21,0,o),
(39,0,cs)
);
}
);
vertWidth = 0;
width = 228;
},
{
layerId = "6449507E-FEE0-4D4A-A81F-7CAB6A5803D5";
shapes = (
{
closed = 1;
nodes = (
(143,0,o),
(152,25,o),
(156,43,cs),
(289,586,ls),
(299,630,o),
(278,650,o),
(246,650,cs),
(213,650,o),
(198,635,o),
(191,606,cs),
(56,61,ls),
(47,28,o),
(64,0,o),
(102,0,cs)
);
}
);
vertWidth = 0;
width = 280;
}
);
unicode = 49;
},
{
color = 6;
glyphname = two;
layers = (
{
layerId = m01;
shapes = (
{
closed = 1;
nodes = (
(268,0,ls),
(288,0,o),
(294,12,o),
(294,24,cs),
(294,36,o),
(288,45,o),
(268,45,cs),
(35,45,l),
(39,29,l),
(123,113,o),
(264,270,o),
(277,285,cs),
(363,390,o),
(425,465,o),
(425,540,cs),
(425,600,o),
(376,650,o),
(308,650,cs),
(246,650,o),
(177,623,o),
(134,587,cs),
(110,567,o),
(114,552,o),
(122,543,cs),
(130,534,o),
(146,532,o),
(171,553,cs),
(206,582,o),
(262,605,o),
(308,605,cs),
(351,605,o),
(375,570,o),
(375,538,cs),
(375,493,o),
(324,409,o),
(242,317,cs),
(215,286,o),
(121,178,o),
(-9,48,cs),
(-36,21,o),
(-23,0,o),
(4,0,cs)
);
}
);
vertWidth = 0;
width = 415;
},
{
layerId = "6449507E-FEE0-4D4A-A81F-7CAB6A5803D5";
shapes = (
{
closed = 1;
nodes = (
(314,0,ls),
(355,0,o),
(365,26,o),
(365,49,cs),
(365,73,o),
(358,96,o),
(314,96,cs),
(110,96,l),
(140,48,l),
(218,125,o),
(335,257,o),
(347,270,cs),
(432,374,o),
(485,449,o),
(485,522,cs),
(485,591,o),
(430,650,o),
(350,650,cs),
(287,650,o),
(217,623,o),
(174,586,cs),
(125,546,o),
(146,521,o),
(160,506,cs),
(172,492,o),
(192,470,o),
(243,513,cs),
(270,535,o),
(314,554,o),
(350,554,cs),
(372,554,o),
(384,536,o),
(384,520,cs),
(384,482,o),
(338,413,o),
(270,336,cs),
(245,307,o),
(159,209,o),
(41,91,cs),
(-24,26,o),
(26,0,o),
(72,0,cs)
);
}
);
vertWidth = 0;
width = 450;
}
);
unicode = 50;
},
{
color = 6;
glyphname = three;
layers = (
{
layerId = m01;
shapes = (
{
closed = 1;
nodes = (
(254,0,o),
(334,56,o),
(361,165,cs),
(390,280,o),
(318,362,o),
(184,377,c),
(184,369,l),
(420,600,ls),
(434,614,o),
(438,619,o),
(438,629,cs),
(438,642,o),
(428,650,o),
(414,650,cs),
(167,650,ls),
(147,650,o),
(141,639,o),
(141,627,cs),
(141,615,o),
(147,605,o),
(167,605,cs),
(376,605,l),
(375,620,l),
(126,377,ls),
(108,359,o),
(115,335,o),
(142,333,cs),
(274,325,o),
(337,273,o),
(310,163,cs),
(292,85,o),
(229,45,o),
(165,45,cs),
(115,45,o),
(70,87,o),
(58,155,cs),
(54,178,o),
(44,182,o),
(31,182,cs),
(20,182,o),
(5,173,o),
(11,141,cs),
(26,54,o),
(88,0,o),
(164,0,cs)
);
}
);
vertWidth = 0;
width = 440;
},
{
layerId = "6449507E-FEE0-4D4A-A81F-7CAB6A5803D5";
shapes = (
{
closed = 1;
nodes = (
(311,0,o),
(396,57,o),
(424,172,cs),
(454,293,o),
(384,383,o),
(238,399,c),
(239,325,l),
(471,557,ls),
(493,580,o),
(495,588,o),
(495,603,cs),
(495,630,o),
(477,650,o),
(446,650,cs),
(220,650,ls),
(178,650,o),
(168,625,o),
(168,601,cs),
(168,578,o),
(176,554,o),
(220,554,cs),
(397,554,l),
(376,605,l),
(163,392,ls),
(127,356,o),
(142,309,o),
(195,305,cs),
(288,299,o),
(345,267,o),
(324,183,cs),
(311,126,o),
(265,96,o),
(218,96,cs),
(183,96,o),
(155,129,o),
(147,174,cs),
(139,218,o),
(118,222,o),
(95,222,cs),
(77,222,o),
(36,224,o),
(50,151,cs),
(66,57,o),
(135,0,o),
(217,0,cs)
);
}
);
vertWidth = 0;
width = 471;
}
);
unicode = 51;
},
{
color = 6;
glyphname = four;
layers = (
{
layerId = m01;
shapes = (
{
closed = 1;
nodes = (
(326,135,ls),
(342,135,o),
(352,146,o),
(352,158,cs),
(352,170,o),
(342,180,o),
(326,180,cs),
(39,180,l),
(55,153,l),
(292,610,ls),
(307,638,o),
(288,650,o),
(276,650,cs),
(264,650,o),
(257,646,o),
(248,628,cs),
(17,181,ls),
(3,154,o),
(11,135,o),
(37,135,cs)
);
},
{
closed = 1;
nodes = (
(208,0,o),
(221,4,o),
(226,23,cs),
(311,360,ls),
(316,379,o),
(305,391,o),
(289,391,cs),
(277,391,o),
(265,384,o),
(262,371,cs),
(176,32,ls),
(171,12,o),
(183,0,o),
(196,0,cs)
);
}
);
vertWidth = 0;
width = 433;
},
{
layerId = "6449507E-FEE0-4D4A-A81F-7CAB6A5803D5";
shapes = (
{
closed = 1;
nodes = (
(383,124,ls),
(416,124,o),
(434,148,o),
(434,172,cs),
(434,196,o),
(417,220,o),
(383,220,cs),
(127,220,l),
(152,180,l),
(356,573,ls),
(392,641,o),
(338,650,o),
(317,650,cs),
(297,650,o),
(283,647,o),
(267,615,cs),
(55,206,ls),
(25,148,o),
(54,124,o),
(98,124,cs)
);
},
{
closed = 1;
nodes = (
(285,0,o),
(309,7,o),
(318,42,cs),
(395,350,ls),
(405,390,o),
(381,413,o),
(349,413,cs),
(325,413,o),
(303,398,o),
(297,373,cs),
(219,64,ls),
(207,18,o),
(238,0,o),
(264,0,cs)
);
}
);
vertWidth = 0;
width = 483;
}
);
unicode = 52;
},
{
color = 6;
glyphname = five;
layers = (
{
layerId = m01;
shapes = (
{
closed = 1;
nodes = (
(238,0,o),
(335,57,o),
(374,210,cs),
(398,306,o),
(351,390,o),
(222,390,cs),
(192,390,o),
(155,385,o),
(128,375,c),
(145,355,l),
(252,633,l),
(215,605,l),
(436,605,ls),
(456,605,o),
(462,615,o),
(462,627,cs),
(462,639,o),
(456,650,o),
(436,650,cs),
(251,650,ls),
(216,650,o),
(205,643,o),
(194,614,cs),
(99,362,ls),
(89,335,o),
(109,329,o),
(119,329,cs),
(128,329,o),
(135,332,o),
(147,336,cs),
(171,344,o),
(189,345,o),
(212,345,cs),
(311,345,o),
(348,301,o),
(324,208,cs),
(291,80,o),
(203,45,o),
(157,45,cs),
(104,45,o),
(69,78,o),
(53,141,cs),
(49,158,o),
(38,162,o),
(29,162,cs),
(12,162,o),
(0,145,o),
(7,121,cs),
(31,33,o),
(91,0,o),
(149,0,cs)
);
}
);
vertWidth = 0;
width = 442;
},
{
layerId = "6449507E-FEE0-4D4A-A81F-7CAB6A5803D5";
shapes = (
{
closed = 1;
nodes = (
(291,0,o),
(392,55,o),
(433,213,cs),
(459,318,o),
(410,412,o),
(267,412,cs),
(236,412,o),
(199,407,o),
(171,397,c),
(230,353,l),
(314,571,l),
(288,554,l),
(463,554,ls),
(506,554,o),
(514,578,o),
(514,601,cs),
(514,625,o),
(505,650,o),
(463,650,cs),
(293,650,ls),
(245,650,o),
(231,639,o),
(216,599,cs),
(129,369,ls),
(107,309,o),
(153,301,o),
(173,301,cs),
(184,301,o),
(192,304,o),
(207,309,cs),
(226,315,o),
(240,316,o),
(258,316,cs),
(323,316,o),
(350,288,o),
(334,225,cs),
(309,128,o),
(243,96,o),
(207,96,cs),
(171,96,o),
(149,122,o),
(139,163,cs),
(131,197,o),
(108,203,o),
(90,203,cs),
(61,203,o),
(29,181,o),
(44,131,cs),
(70,34,o),
(137,0,o),
(200,0,cs)
);
}
);
vertWidth = 0;
width = 470;
}
);
unicode = 53;
},
{
color = 6;
glyphname = six;
layers = (
{
layerId = m01;
shapes = (
{
closed = 1;
nodes = (
(241,0,o),
(338,120,o),
(338,237,cs),
(338,310,o),
(306,354,o),
(252,354,cs),
(215,354,o),
(168,330,o),
(145,314,cs),
(127,301,o),
(128,284,o),
(134,276,cs),
(140,268,o),
(153,264,o),
(170,276,cs),
(189,290,o),
(216,309,o),
(240,309,cs),
(272,309,o),
(288,274,o),
(288,231,cs),
(288,135,o),
(208,45,o),
(140,45,cs),
(94,45,o),
(62,72,o),
(62,144,cs),
(62,261,o),
(186,469,o),
(285,611,cs),
(298,630,o),
(288,650,o),
(272,650,cs),
(261,650,o),
(252,648,o),
(241,632,cs),
(149,499,o),
(12,266,o),
(12,143,cs),
(12,52,o),
(58,0,o),
(128,0,cs)
);
}
);
vertWidth = 0;
width = 406;
},
{
layerId = "6449507E-FEE0-4D4A-A81F-7CAB6A5803D5";
shapes = (
{
closed = 1;
nodes = (
(297,0,o),
(400,122,o),
(400,245,cs),
(400,335,o),
(356,379,o),
(294,379,cs),
(254,379,o),
(204,355,o),
(180,338,cs),
(142,310,o),
(153,278,o),
(163,264,cs),
(175,249,o),
(197,232,o),
(234,258,cs),
(247,268,o),
(266,283,o),
(283,283,cs),
(301,283,o),
(299,254,o),
(299,239,cs),
(299,169,o),
(243,96,o),
(191,96,cs),
(162,96,o),
(147,119,o),
(147,159,cs),
(147,263,o),
(263,446,o),
(348,571,cs),
(380,617,o),
(342,650,o),
(312,650,cs),
(294,650,o),
(279,648,o),
(261,622,cs),
(174,496,o),
(46,275,o),
(46,158,cs),
(46,54,o),
(102,0,o),
(180,0,cs)
);
}
);
vertWidth = 0;
width = 436;
}
);
unicode = 54;
},
{
color = 6;
glyphname = seven;
layers = (
{
layerId = m01;
shapes = (
{
closed = 1;
nodes = (
(92,0,o),
(100,6,o),
(110,24,cs),
(442,606,l),
(458,636,o),
(450,650,o),
(424,650,c),
(154,650,ls),
(136,650,o),
(127,639,o),
(127,628,cs),
(127,616,o),
(136,605,o),
(154,605,cs),
(420,605,l),
(401,632,l),
(66,44,ls),
(47,11,o),
(67,0,o),
(80,0,cs)
);
}
);
vertWidth = 0;
width = 414;
},
{
layerId = "6449507E-FEE0-4D4A-A81F-7CAB6A5803D5";
shapes = (
{
closed = 1;
nodes = (
(152,0,o),
(168,12,o),
(185,43,cs),
(483,565,ls),
(520,630,o),
(487,644,o),
(443,644,cs),
(201,644,ls),
(163,644,o),
(150,618,o),
(150,597,cs),
(150,574,o),
(164,550,o),
(201,550,cs),
(420,550,l),
(392,596,l),
(102,87,ls),
(63,19,o),
(99,0,o),
(128,0,cs)
);
}
);
vertWidth = 0;
width = 438;
}
);
unicode = 55;
},
{
color = 6;
glyphname = eight;
layers = (
{
layerId = m01;
shapes = (
{
closed = 1;
nodes = (
(208,0,o),
(284,70,o),
(307,164,cs),
(324,233,o),
(291,307,o),
(220,358,c),
(190,319,l),
(244,281,o),
(269,224,o),
(256,168,cs),
(239,98,o),
(188,46,o),
(129,46,cs),
(76,46,o),
(46,91,o),
(59,152,cs),
(72,209,o),
(125,267,o),
(216,322,cs),
(307,378,o),
(362,439,o),
(378,503,cs),
(399,587,o),
(351,650,o),
(266,650,cs),
(193,650,o),
(128,611,o),
(106,524,cs),
(88,452,o),
(118,376,o),
(186,326,c),
(216,363,l),
(165,399,o),
(143,459,o),
(157,521,cs),
(171,578,o),
(216,605,o),
(257,605,cs),
(312,605,o),
(342,561,o),
(328,503,cs),
(316,458,o),
(270,411,o),
(190,362,cs),
(86,299,o),
(25,228,o),
(8,151,cs),
(-12,65,o),
(38,0,o),
(123,0,cs)
);
}
);
vertWidth = 0;
width = 386;
},
{
layerId = "6449507E-FEE0-4D4A-A81F-7CAB6A5803D5";
shapes = (
{
closed = 1;
nodes = (
(264,0,o),
(346,71,o),
(370,171,cs),
(388,244,o),
(356,323,o),
(280,378,c),
(220,297,l),
(260,270,o),
(279,229,o),
(270,187,cs),
(258,138,o),
(224,97,o),
(180,97,cs),
(148,97,o),
(136,128,o),
(143,161,cs),
(154,208,o),
(200,254,o),
(274,299,cs),
(366,355,o),
(419,417,o),
(435,481,cs),
(459,578,o),
(403,650,o),
(306,650,cs),
(227,650,o),
(157,608,o),
(133,514,cs),
(114,438,o),
(144,357,o),
(216,304,c),
(276,382,l),
(238,409,o),
(223,453,o),
(233,498,cs),
(242,535,o),
(270,554,o),
(298,554,cs),
(330,554,o),
(344,526,o),
(336,494,cs),
(327,458,o),
(286,422,o),
(222,382,cs),
(118,320,o),
(60,248,o),
(43,172,cs),
(20,73,o),
(78,0,o),
(175,0,cs)
);
}
);
vertWidth = 0;
width = 417;
}
);
unicode = 56;
},
{
color = 6;
glyphname = nine;
layers = (
{
layerId = m01;
shapes = (
{
closed = 1;
nodes = (
(287,0,o),
(293,13,o),
(295,23,cs),
(432,581,ls),
(436,599,o),
(431,614,o),
(414,614,cs),
(395,614,o),
(387,605,o),
(383,589,cs),
(244,29,ls),
(240,14,o),
(247,0,o),
(265,0,cs)
);
},
{
closed = 1;
nodes = (
(260,246,o),
(375,355,o),
(411,501,cs),
(431,580,o),
(401,650,o),
(329,650,cs),
(219,650,o),
(105,541,o),
(68,395,cs),
(45,303,o),
(77,246,o),
(150,246,cs)
);
},
{
closed = 1;
nodes = (
(119,291,o),
(104,331,o),
(120,395,cs),
(149,515,o),
(237,605,o),
(318,605,cs),
(364,605,o),
(372,556,o),
(359,501,cs),
(331,381,o),
(242,292,o),
(161,291,cs)
);
}
);
vertWidth = 0;
width = 453;
},
{
layerId = "6449507E-FEE0-4D4A-A81F-7CAB6A5803D5";
shapes = (
{
closed = 1;
nodes = (
(347,0,o),
(357,25,o),
(361,43,cs),
(486,553,ls),
(496,597,o),
(475,617,o),
(443,617,cs),
(410,617,o),
(395,602,o),
(388,573,cs),
(261,61,ls),
(252,28,o),
(269,0,o),
(306,0,cs)
);
},
{
closed = 1;
nodes = (
(311,225,o),
(380,331,o),
(417,480,cs),
(442,578,o),
(446,650,o),
(365,650,cs),
(255,650,o),
(137,544,o),
(99,396,cs),
(71,282,o),
(119,225,o),
(201,225,cs)
);
},
{
closed = 1;
nodes = (
(185,321,o),
(196,365,o),
(200,382,cs),
(223,476,o),
(289,554,o),
(355,554,cs),
(384,554,o),
(371,507,o),
(368,492,cs),
(346,398,o),
(276,322,o),
(211,321,cs)
);
}
);
vertWidth = 0;
width = 485;
}
);
unicode = 57;
},
{
color = 6;
glyphname = .notdef;
layers = (
{
layerId = m01;
shapes = (
{
closed = 1;
nodes = (
(383,0,ls),
(394,0,o),
(405,12,o),
(409,27,cs),
(566,673,ls),
(570,689,o),
(562,700,o),
(548,700,cs),
(209,700,ls),
(192,700,o),
(182,689,o),
(178,673,cs),
(18,27,ls),
(14,12,o),
(23,0,o),
(42,0,cs)
);
},
{
closed = 1;
nodes = (
(232,684,l),
(195,655,l),
(540,655,l),
(517,684,l),
(354,16,l),
(391,45,l),
(42,45,l),
(65,16,l)
);
}
);
vertWidth = 0;
width = 567;
},
{
layerId = "6449507E-FEE0-4D4A-A81F-7CAB6A5803D5";
shapes = (
{
closed = 1;
nodes = (
(469,0,ls),
(488,0,o),
(511,16,o),
(518,45,cs),
(667,641,ls),
(677,679,o),
(654,700,o),
(624,700,cs),
(259,700,ls),
(230,700,o),
(211,683,o),
(203,654,cs),
(55,59,ls),
(47,29,o),
(61,0,o),
(104,0,cs)
);
},
{
closed = 1;
nodes = (
(301,624,l),
(274,603,l),
(590,603,l),
(564,638,l),
(422,76,l),
(449,97,l),
(132,97,l),
(158,62,l)
);
}
);
vertWidth = 0;
width = 642;
}
);
},
{
color = 6;
glyphname = period;
kernLeft = period_left;
kernRight = period_right;
layers = (
{
layerId = m01;
shapes = (
{
closed = 1;
nodes = (
(78,0,o),
(96,18,o),
(96,39,cs),
(96,59,o),
(78,76,o),
(58,76,cs),
(37,76,o),
(21,59,o),
(21,39,cs),
(21,19,o),
(37,0,o),
(58,0,cs)
);
}
);
vertWidth = 0;
width = 252;
},
{
layerId = "6449507E-FEE0-4D4A-A81F-7CAB6A5803D5";
shapes = (
{
closed = 1;
nodes = (
(126,0,o),
(156,30,o),
(156,65,cs),
(156,98,o),
(126,126,o),
(93,126,cs),
(58,126,o),
(31,98,o),
(31,65,cs),
(31,30,o),
(58,0,o),
(93,0,cs)
);
}
);
vertWidth = 0;
width = 219;
}
);
unicode = 46;
},
{
color = 6;
glyphname = comma;
kernLeft = period_left;
kernRight = period_right;
layers = (
{
layerId = m01;
shapes = (
{
closed = 1;
nodes = (
(47,-73,o),
(58,-67,o),
(63,-49,cs),
(87,46,ls),
(92,67,o),
(78,76,o),
(65,76,cs),
(50,76,o),
(39,70,o),
(34,52,cs),
(10,-43,ls),
(5,-64,o),
(19,-73,o),
(32,-73,cs)
);
}
);
vertWidth = 0;
width = 252;
},
{
layerId = "6449507E-FEE0-4D4A-A81F-7CAB6A5803D5";
shapes = (
{
closed = 1;
nodes = (
(80,-79,o),
(101,-68,o),
(109,-37,cs),
(135,67,ls),
(147,113,o),
(114,129,o),
(87,129,cs),
(61,129,o),
(41,119,o),
(33,87,cs),
(7,-17,ls),
(-4,-62,o),
(28,-79,o),
(54,-79,cs)
);
}
);
vertWidth = 0;
width = 219;
}
);
unicode = 44;
},
{
color = 6;
glyphname = colon;
kernLeft = colon_left;
kernRight = colon_right;
layers = (
{
layerId = m01;
shapes = (
{
closed = 1;
nodes = (
(78,0,o),
(96,18,o),
(96,39,cs),
(96,59,o),
(78,76,o),
(58,76,cs),
(37,76,o),
(21,59,o),
(21,39,cs),
(21,19,o),
(37,0,o),
(58,0,cs)
);
},
{
closed = 1;
nodes = (
(146,273,o),
(164,291,o),
(164,312,cs),
(164,332,o),
(146,349,o),
(126,349,cs),
(105,349,o),
(89,332,o),
(89,312,cs),
(89,292,o),
(105,273,o),
(126,273,cs)
);
}
);
vertWidth = 0;
width = 252;
},
{
layerId = "6449507E-FEE0-4D4A-A81F-7CAB6A5803D5";
shapes = (
{
closed = 1;
nodes = (
(126,0,o),
(156,30,o),
(156,65,cs),
(156,98,o),
(126,126,o),
(93,126,cs),
(58,126,o),
(31,98,o),
(31,65,cs),
(31,30,o),
(58,0,o),
(93,0,cs)
);
},
{
closed = 1;
nodes = (
(171,233,o),
(201,263,o),
(201,298,cs),
(201,331,o),
(171,359,o),
(138,359,cs),
(103,359,o),
(76,331,o),
(76,298,cs),
(76,263,o),
(103,233,o),
(138,233,cs)
);
}
);
vertWidth = 0;
width = 219;
}
);
unicode = 58;
},
{
color = 6;
glyphname = semicolon;
kernLeft = colon_left;
kernRight = colon_right;
layers = (
{
layerId = m01;
shapes = (
{
closed = 1;
nodes = (
(47,-73,o),
(58,-67,o),
(63,-49,cs),
(87,46,ls),
(92,67,o),
(78,76,o),
(65,76,cs),
(50,76,o),
(39,70,o),
(34,52,cs),
(10,-43,ls),
(5,-64,o),
(19,-73,o),
(32,-73,cs)
);
},
{
closed = 1;
nodes = (
(146,273,o),
(164,291,o),
(164,312,cs),
(164,332,o),
(146,349,o),
(126,349,cs),
(105,349,o),
(89,332,o),
(89,312,cs),
(89,292,o),
(105,273,o),
(126,273,cs)
);
}
);
vertWidth = 0;
width = 252;
},
{
layerId = "6449507E-FEE0-4D4A-A81F-7CAB6A5803D5";
shapes = (
{
closed = 1;
nodes = (
(90,-79,o),
(111,-68,o),
(119,-37,cs),
(145,67,ls),
(157,113,o),
(124,129,o),
(97,129,cs),
(71,129,o),
(51,119,o),
(43,87,cs),
(17,-17,ls),
(6,-62,o),
(38,-79,o),
(64,-79,cs)
);
},
{
closed = 1;
nodes = (
(171,233,o),
(201,263,o),
(201,298,cs),
(201,331,o),
(171,359,o),
(138,359,cs),
(103,359,o),
(76,331,o),
(76,298,cs),
(76,263,o),
(103,233,o),
(138,233,cs)
);
}
);
vertWidth = 0;
width = 219;
}
);
unicode = 59;
},
{
color = 6;
glyphname = ellipsis;
layers = (
{
layerId = m01;
shapes = (
{
closed = 1;
nodes = (
(78,0,o),
(96,18,o),
(96,39,cs),
(96,59,o),
(78,76,o),
(58,76,cs),
(37,76,o),
(21,59,o),
(21,39,cs),
(21,19,o),
(37,0,o),
(58,0,cs)
);
},
{
closed = 1;
nodes = (
(218,0,o),
(236,18,o),
(236,39,cs),
(236,59,o),
(218,76,o),
(198,76,cs),
(177,76,o),
(161,59,o),
(161,39,cs),
(161,19,o),
(177,0,o),
(198,0,cs)
);
},
{
closed = 1;
nodes = (
(358,0,o),
(376,18,o),
(376,39,cs),
(376,59,o),
(358,76,o),
(338,76,cs),
(317,76,o),
(301,59,o),
(301,39,cs),
(301,19,o),
(317,0,o),
(338,0,cs)
);
}
);
vertWidth = 0;
width = 532;
},
{
layerId = "6449507E-FEE0-4D4A-A81F-7CAB6A5803D5";
shapes = (
{
closed = 1;
nodes = (
(113,0,o),
(143,30,o),
(143,65,cs),
(143,98,o),
(113,126,o),
(80,126,cs),
(45,126,o),
(18,98,o),
(18,65,cs),
(18,30,o),
(45,0,o),
(80,0,cs)
);
},
{
closed = 1;
nodes = (
(303,0,o),
(333,30,o),
(333,65,cs),
(333,98,o),
(303,126,o),
(270,126,cs),
(235,126,o),
(208,98,o),
(208,65,cs),
(208,30,o),
(235,0,o),
(270,0,cs)
);
},
{
closed = 1;
nodes = (
(493,0,o),
(523,30,o),
(523,65,cs),
(523,98,o),
(493,126,o),
(460,126,cs),
(425,126,o),
(398,98,o),
(398,65,cs),
(398,30,o),
(425,0,o),
(460,0,cs)
);
}
);
vertWidth = 0;
width = 599;
}
);
unicode = 8230;
},
{
color = 6;
glyphname = exclam;
layers = (
{
layerId = m01;
shapes = (
{
closed = 1;
nodes = (
(88,0,o),
(106,18,o),
(106,39,cs),
(106,59,o),
(88,76,o),
(68,76,cs),
(47,76,o),
(31,59,o),
(31,39,cs),
(31,19,o),
(47,0,o),
(68,0,cs)
);
},
{
closed = 1;
nodes = (
(117,175,o),
(130,181,o),
(135,200,cs),
(239,618,ls),
(244,639,o),
(234,650,o),
(218,650,cs),
(207,650,o),
(194,644,o),
(189,625,cs),
(85,207,ls),
(80,186,o),
(90,175,o),
(106,175,cs)
);
}
);
vertWidth = 0;
width = 272;
},
{
layerId = "6449507E-FEE0-4D4A-A81F-7CAB6A5803D5";
shapes = (
{
closed = 1;
nodes = (
(153,0,o),
(183,30,o),
(183,65,cs),
(183,98,o),
(153,126,o),
(120,126,cs),
(85,126,o),
(58,98,o),
(58,65,cs),
(58,30,o),
(85,0,o),
(120,0,cs)
);
},
{
closed = 1;
nodes = (
(173,176,o),
(198,185,o),
(207,220,cs),
(298,587,ls),
(309,633,o),
(283,650,o),
(252,650,cs),
(233,650,o),
(207,641,o),
(199,607,cs),
(108,240,ls),
(96,193,o),
(123,176,o),
(154,176,cs)
);
}
);
vertWidth = 0;
width = 299;
}
);
unicode = 33;
},
{
color = 6;
glyphname = exclamdown;
layers = (
{
layerId = m01;
shapes = (
{
closed = 1;
nodes = (
(232,574,o),
(248,591,o),
(248,611,cs),
(248,631,o),
(232,650,o),
(211,650,cs),
(191,650,o),
(173,632,o),
(173,611,cs),
(173,591,o),
(191,574,o),
(211,574,cs)
);
},
{
closed = 1;
nodes = (
(72,0,o),
(85,6,o),
(90,25,cs),
(194,443,ls),
(199,464,o),
(189,475,o),
(173,475,cs),
(162,475,o),
(149,469,o),
(144,450,cs),
(40,32,ls),
(35,11,o),
(45,0,o),
(61,0,cs)
);
}
);
vertWidth = 0;
width = 272;
},
{
layerId = "6449507E-FEE0-4D4A-A81F-7CAB6A5803D5";
shapes = (
{
closed = 1;
nodes = (
(277,524,o),
(304,552,o),
(304,585,cs),
(304,620,o),
(277,650,o),
(242,650,cs),
(209,650,o),
(179,620,o),
(179,585,cs),
(179,552,o),
(209,524,o),
(242,524,cs)
);
},
{
closed = 1;
nodes = (
(129,0,o),
(155,9,o),
(163,43,cs),
(254,410,ls),
(266,457,o),
(239,474,o),
(208,474,cs),
(189,474,o),
(164,465,o),
(155,430,cs),
(64,63,ls),
(53,17,o),
(79,0,o),
(110,0,cs)
);
}
);
vertWidth = 0;
width = 299;
}
);
unicode = 161;
},
{
color = 6;
glyphname = question;
layers = (
{
layerId = m01;
shapes = (
{
closed = 1;
nodes = (
(153,0,o),
(171,18,o),
(171,39,cs),
(171,59,o),
(153,76,o),
(133,76,cs),
(112,76,o),
(96,59,o),
(96,39,cs),
(96,19,o),
(112,0,o),
(133,0,cs)
);
},
{
closed = 1;
nodes = (
(168,175,o),
(181,181,o),
(186,200,cs),
(210,298,l),
(189,280,l),
(322,280,o),
(425,379,o),
(424,512,cs),
(423,597,o),
(369,650,o),
(282,650,cs),
(194,650,o),
(118,589,o),
(92,489,cs),
(87,468,o),
(97,457,o),
(113,457,cs),
(124,457,o),
(137,463,o),
(142,482,cs),
(161,558,o),
(212,605,o),
(282,605,cs),
(340,605,o),
(376,567,o),
(376,506,cs),
(376,404,o),
(304,326,o),
(207,326,cs),
(176,326,o),
(164,316,o),
(158,293,cs),
(136,207,ls),
(131,186,o),
(141,175,o),
(157,175,cs)
);
}
);
vertWidth = 0;
width = 424;
},
{
layerId = "6449507E-FEE0-4D4A-A81F-7CAB6A5803D5";
shapes = (
{
closed = 1;
nodes = (
(212,0,o),
(242,30,o),
(242,65,cs),
(242,98,o),
(212,126,o),
(179,126,cs),
(144,126,o),
(117,98,o),
(117,65,cs),
(117,30,o),
(144,0,o),
(179,0,cs)
);
},
{
closed = 1;
nodes = (
(229,175,o),
(255,184,o),
(263,219,cs),
(277,277,l),
(251,256,l),
(359,256,o),
(449,332,o),
(477,447,cs),
(506,565,o),
(440,650,o),
(327,650,cs),
(227,650,o),
(147,587,o),
(120,482,cs),
(109,436,o),
(135,418,o),
(165,418,cs),
(185,418,o),
(209,427,o),
(219,462,cs),
(232,517,o),
(268,554,o),
(320,554,cs),
(368,554,o),
(389,512,o),
(377,463,cs),
(361,398,o),
(314,350,o),
(252,350,cs),
(203,350,o),
(188,336,o),
(180,303,cs),
(164,239,ls),
(152,192,o),
(179,175,o),
(210,175,cs)
);
}
);
vertWidth = 0;
width = 456;
}
);
unicode = 63;
},
{
color = 6;
glyphname = questiondown;
layers = (
{
layerId = m01;
shapes = (
{
closed = 1;
nodes = (
(242,0,o),
(318,61,o),
(344,161,cs),
(349,182,o),
(339,193,o),
(323,193,cs),
(312,193,o),
(299,187,o),
(294,168,cs),
(275,92,o),
(224,45,o),
(154,45,cs),
(96,45,o),
(60,83,o),
(60,144,cs),
(60,246,o),
(132,324,o),
(229,324,cs),
(260,324,o),
(272,334,o),
(278,357,cs),
(300,443,ls),
(305,464,o),
(295,475,o),
(279,475,cs),
(268,475,o),
(255,469,o),
(250,450,cs),
(226,352,l),
(247,370,l),
(114,370,o),
(11,271,o),
(12,138,cs),
(13,53,o),
(67,0,o),
(154,0,cs)
);
},
{
closed = 1;
nodes = (
(324,574,o),
(340,591,o),
(340,611,cs),
(340,631,o),
(324,650,o),
(303,650,cs),
(283,650,o),
(265,632,o),
(265,611,cs),
(265,591,o),
(283,574,o),
(303,574,cs)
);
}
);
vertWidth = 0;
width = 424;
},
{
layerId = "6449507E-FEE0-4D4A-A81F-7CAB6A5803D5";
shapes = (
{
closed = 1;
nodes = (
(301,0,o),
(381,63,o),
(408,168,cs),
(419,214,o),
(393,232,o),
(363,232,cs),
(343,232,o),
(319,223,o),
(309,188,cs),
(296,133,o),
(260,96,o),
(208,96,cs),
(160,96,o),
(139,138,o),
(151,187,cs),
(167,252,o),
(214,300,o),
(276,300,cs),
(325,300,o),
(340,314,o),
(348,347,cs),
(364,411,ls),
(376,458,o),
(349,475,o),
(318,475,cs),
(299,475,o),
(273,466,o),
(265,431,cs),
(251,373,l),
(277,394,l),
(169,394,o),
(79,318,o),
(51,203,cs),
(22,85,o),
(88,0,o),
(201,0,cs)
);
},
{
closed = 1;
nodes = (
(384,524,o),
(411,552,o),
(411,585,cs),
(411,620,o),
(384,650,o),
(349,650,cs),
(316,650,o),
(286,620,o),
(286,585,cs),
(286,552,o),
(316,524,o),
(349,524,cs)
);
}
);
vertWidth = 0;
width = 456;
}
);
unicode = 191;
},
{
color = 6;
glyphname = periodcentered;
layers = (
{
layerId = m01;
shapes = (
{
closed = 1;
nodes = (
(122,176,o),
(140,194,o),
(140,215,cs),
(140,235,o),
(122,252,o),
(102,252,cs),
(81,252,o),
(65,235,o),
(65,215,cs),
(65,195,o),
(81,176,o),
(102,176,cs)
);
}
);
vertWidth = 0;
width = 252;
},
{
layerId = "6449507E-FEE0-4D4A-A81F-7CAB6A5803D5";
shapes = (
{
closed = 1;
nodes = (
(150,149,o),
(180,179,o),
(180,214,cs),
(180,247,o),
(150,275,o),
(117,275,cs),
(82,275,o),
(55,247,o),
(55,214,cs),
(55,179,o),
(82,149,o),
(117,149,cs)
);
}
);
vertWidth = 0;
width = 219;
}
);
unicode = 183;
},
{
color = 6;
glyphname = bullet;
layers = (
{
layerId = m01;
shapes = (
{
closed = 1;
nodes = (
(214,278,o),
(251,314,o),
(251,355,cs),
(251,396,o),
(215,430,o),
(175,430,cs),
(133,430,o),
(101,395,o),
(101,355,cs),
(101,316,o),
(132,278,o),
(174,278,cs)
);
}
);
vertWidth = 0;
width = 330;
},
{
layerId = "6449507E-FEE0-4D4A-A81F-7CAB6A5803D5";
shapes = (
{
closed = 1;
nodes = (
(259,258,o),
(306,304,o),
(306,355,cs),
(306,407,o),
(260,450,o),
(210,450,cs),
(157,450,o),
(116,406,o),
(116,355,cs),
(116,305,o),
(157,258,o),
(210,258,cs)
);
}
);
vertWidth = 0;
width = 330;
}
);
unicode = 8226;
},
{
color = 6;
glyphname = asterisk;
layers = (
{
layerId = m01;
shapes = (
{
closed = 1;
nodes = (
(255,380,o),
(259,392,o),
(259,412,cs),
(259,648,ls),
(259,668,o),
(255,680,o),
(240,680,cs),
(223,680,o),
(220,668,o),
(220,648,cs),
(220,412,ls),
(220,392,o),
(224,380,o),
(239,380,cs)
);
},
{
closed = 1;
nodes = (
(362,618,o),
(350,615,o),
(333,605,cs),
(128,487,ls),
(111,477,o),
(103,468,o),
(110,455,cs),
(119,440,o),
(130,444,o),
(148,454,cs),
(352,572,ls),
(370,582,o),
(378,591,o),
(370,604,cs)
);
},
{
closed = 1;
nodes = (
(103,592,o),
(111,583,o),
(128,573,cs),
(333,455,ls),
(350,445,o),
(362,442,o),
(370,455,cs),
(378,470,o),
(370,478,o),
(352,488,cs),
(148,606,ls),
(130,616,o),
(118,619,o),
(111,606,cs)
);
}
);
vertWidth = 0;
width = 367;
},
{
layerId = "6449507E-FEE0-4D4A-A81F-7CAB6A5803D5";
shapes = (
{
closed = 1;
nodes = (
(295,380,o),
(301,390,o),
(301,432,cs),
(301,628,ls),
(301,671,o),
(294,680,o),
(270,680,cs),
(243,680,o),
(238,670,o),
(238,628,cs),
(238,432,ls),
(238,389,o),
(245,380,o),
(269,380,cs)
);
},
{
closed = 1;
nodes = (
(387.404,626.651,o),
(375.744,626.847,o),
(339.37,605.847,cs),
(169.63,507.847,ls),
(132.39,486.347,o),
(128.096,475.785,o),
(140.096,455,cs),
(153.596,431.617,o),
(164.756,432.287,o),
(201.13,453.287,cs),
(370.87,551.287,ls),
(408.11,572.787,o),
(412.404,583.349,o),
(400.404,604.134,cs)
);
},
{
closed = 1;
nodes = (
(127.596,583.349,o),
(133.256,573.153,o),
(169.63,552.153,cs),
(339.37,454.153,ls),
(376.61,432.653,o),
(387.904,434.215,o),
(399.904,455,cs),
(413.404,478.383,o),
(407.244,487.713,o),
(370.87,508.713,cs),
(201.13,606.713,ls),
(163.89,628.213,o),
(152.596,626.651,o),
(140.596,605.866,cs)
);
}
);
vertWidth = 0;
width = 367;
}
);
unicode = 42;
},
{
color = 6;
glyphname = numbersign;
layers = (
{
layerId = m01;
shapes = (
{
closed = 1;
nodes = (
(621,214,ls),
(638,214,o),
(647,226,o),
(647,237,cs),
(647,248,o),
(639,259,o),
(621,259,cs),
(96,259,ls),
(78,259,o),
(70,248,o),
(70,237,cs),
(70,226,o),
(79,214,o),
(96,214,cs)
);
},
{
closed = 1;
nodes = (
(664,391,ls),
(682,391,o),
(691,402,o),
(691,413,cs),
(691,424,o),
(682,436,o),
(664,436,cs),
(141,436,ls),
(123,436,o),
(114,424,o),
(114,413,cs),
(114,402,o),
(123,391,o),
(141,391,cs)
);
},
{
closed = 1;
nodes = (
(209,0,o),
(214,13,o),
(217,23,cs),
(403,617,ls),
(409,635,o),
(402,650,o),
(385,650,cs),
(366,650,o),
(359,641,o),
(354,625,cs),
(166,29,ls),
(161,14,o),
(169,0,o),
(187,0,cs)
);
},
{
closed = 1;
nodes = (
(399,0,o),
(404,13,o),
(407,23,cs),
(593,617,ls),
(599,635,o),
(592,650,o),
(575,650,cs),
(556,650,o),
(549,641,o),
(544,625,cs),
(356,29,ls),
(351,14,o),
(359,0,o),
(377,0,cs)
);
}
);
vertWidth = 0;
width = 754;
},
{
layerId = "6449507E-FEE0-4D4A-A81F-7CAB6A5803D5";
shapes = (
{
closed = 1;
nodes = (
(625,196,ls),
(661,196,o),
(676,223,o),
(676,244,cs),
(676,266,o),
(664,292,o),
(625,292,cs),
(144,292,ls),
(105,292,o),
(93,266,o),
(93,244,c),
(93,223,o),
(108,196,o),
(144,196,cs)
);
},
{
closed = 1;
nodes = (
(664,358,ls),
(703,358,o),
(716,384,o),
(716,406,cs),
(716,427,o),
(702,454,o),
(664,454,cs),
(185,454,ls),
(147,454,o),
(133,427,o),
(133,406,cs),
(133,384,o),
(146,358,o),
(185,358,cs)
);
},
{
closed = 1;
nodes = (
(283,0,o),
(292,25,o),
(296,43,cs),
(429,586,ls),
(439,630,o),
(418,650,o),
(386,650,cs),
(353,650,o),
(338,635,o),
(331,606,cs),
(196,61,ls),
(187,28,o),
(204,0,o),
(242,0,cs)
);
},
{
closed = 1;
nodes = (
(465,0,o),
(474,25,o),
(478,43,cs),
(611,586,ls),
(621,630,o),
(600,650,o),
(568,650,cs),
(535,650,o),
(520,635,o),
(513,606,cs),
(378,61,ls),
(369,28,o),
(386,0,o),
(424,0,cs)
);
}
);
vertWidth = 0;
width = 737;
}
);
unicode = 35;
},
{
color = 6;
glyphname = slash;
layers = (
{
layerId = m01;
shapes = (
{
closed = 1;
nodes = (
(54,0,o),
(63,10,o),
(71,23,cs),
(411,606,ls),
(425,629,o),
(416,650,o),
(395,650,cs),
(382,650,o),
(373,640,o),
(365,627,cs),
(25,44,ls),
(11,21,o),
(20,0,o),
(41,0,cs)
);
}
);
vertWidth = 0;
width = 403;
},
{
layerId = "6449507E-FEE0-4D4A-A81F-7CAB6A5803D5";
shapes = (
{
closed = 1;
nodes = (
(93,0,o),
(110,12,o),
(124,34,cs),
(435,568,ls),
(468,623,o),
(433,650,o),
(397,650,cs),
(377,650,o),
(360,638,o),
(346,616,cs),
(35,82,ls),
(2,27,o),
(37,0,o),
(73,0,cs)
);
}
);
vertWidth = 0;
width = 403;
}
);
unicode = 47;
},
{
color = 6;
glyphname = backslash;
layers = (
{
layerId = m01;
shapes = (
{
closed = 1;
nodes = (
(289,0,o),
(299,15,o),
(295,34,cs),
(158,627,ls),
(155,639,o),
(151,650,o),
(134,650,cs),
(117,650,o),
(107,635,o),
(111,616,cs),
(248,23,ls),
(251,11,o),
(255,0,o),
(272,0,cs)
);
}
);
vertWidth = 0;
width = 403;
},
{
layerId = "6449507E-FEE0-4D4A-A81F-7CAB6A5803D5";
shapes = (
{
closed = 1;
nodes = (
(329,0,o),
(353,25,o),
(345,64,cs),
(220,608,ls),
(213,632,o),
(202,650,o),
(171,650,cs),
(139,650,o),
(115,625,o),
(123,586,cs),
(248,42,ls),
(255,18,o),
(266,0,o),
(297,0,cs)
);
}
);
vertWidth = 0;
width = 403;
}
);
unicode = 92;
},
{
color = 6;
glyphname = hyphen;
kernLeft = hyphen_left;
kernRight = hyphen_right;
layers = (
{
layerId = m01;
shapes = (
{
closed = 1;
nodes = (
(218,177,ls),
(237,177,o),
(249,185,o),
(249,200,cs),
(249,215,o),
(238,223,o),
(220,223,cs),
(72,223,ls),
(53,223,o),
(41,215,o),
(41,200,cs),
(41,185,o),
(52,177,o),
(70,177,cs)
);
}
);
vertWidth = 0;
width = 338;
},
{
layerId = "6449507E-FEE0-4D4A-A81F-7CAB6A5803D5";
shapes = (
{
closed = 1;
nodes = (
(265,154,ls),
(301,154,o),
(323,172,o),
(323,200,cs),
(323,227,o),
(304,244,o),
(274,244,cs),
(129,244,ls),
(93,244,o),
(71,226,o),
(71,198,cs),
(71,171,o),
(90,154,o),
(120,154,cs)
);
}
);
vertWidth = 0;
width = 382;
}
);
unicode = 45;
},
{
color = 6;
glyphname = endash;
kernLeft = hyphen_left;
kernRight = hyphen_right;
layers = (
{
layerId = m01;
shapes = (
{
closed = 1;
nodes = (
(268,177,ls),
(287,177,o),
(299,185,o),
(299,200,cs),
(299,215,o),
(288,223,o),
(270,223,cs),
(72,223,ls),
(53,223,o),
(41,215,o),
(41,200,cs),
(41,185,o),
(52,177,o),
(70,177,cs)
);
}
);
vertWidth = 0;
width = 388;
},
{
layerId = "6449507E-FEE0-4D4A-A81F-7CAB6A5803D5";
shapes = (
{
closed = 1;
nodes = (
(346,154,ls),
(382,154,o),
(404,172,o),
(404,200,cs),
(404,227,o),
(385,244,o),
(355,244,cs),
(129,244,ls),
(93,244,o),
(71,226,o),
(71,198,cs),
(71,171,o),
(90,154,o),
(120,154,cs)
);
}
);
vertWidth = 0;
width = 463;
}
);
unicode = 8211;
},
{
color = 6;
glyphname = emdash;
kernLeft = hyphen_left;
kernRight = hyphen_right;
layers = (
{
layerId = m01;
shapes = (
{
closed = 1;
nodes = (
(418,177,ls),
(437,177,o),
(449,185,o),
(449,200,cs),
(449,215,o),
(438,223,o),
(420,223,cs),
(72,223,ls),
(53,223,o),
(41,215,o),
(41,200,cs),
(41,185,o),
(52,177,o),
(70,177,cs)
);
}
);
vertWidth = 0;
width = 538;
},
{
layerId = "6449507E-FEE0-4D4A-A81F-7CAB6A5803D5";
shapes = (
{
closed = 1;
nodes = (
(438,154,ls),
(474,154,o),
(496,172,o),
(496,200,cs),
(496,227,o),
(477,244,o),
(447,244,cs),
(129,244,ls),
(93,244,o),
(71,226,o),
(71,198,cs),
(71,171,o),
(90,154,o),
(120,154,cs)
);
}
);
vertWidth = 0;
width = 555;
}
);
unicode = 8212;
},
{
color = 6;
glyphname = underscore;
kernLeft = hyphen_left;
kernRight = hyphen_right;
layers = (
{
layerId = m01;
shapes = (
{
closed = 1;
nodes = (
(271,-80,ls),
(290,-80,o),
(302,-72,o),
(302,-57,cs),
(302,-42,o),
(291,-34,o),
(273,-34,cs),
(25,-34,ls),
(6,-34,o),
(-6,-42,o),
(-6,-57,cs),
(-6,-72,o),
(5,-80,o),
(23,-80,cs)
);
}
);
vertWidth = 0;
width = 438;
},
{
layerId = "6449507E-FEE0-4D4A-A81F-7CAB6A5803D5";
shapes = (
{
closed = 1;
nodes = (
(300,-98,ls),
(336,-98,o),
(358,-80,o),
(358,-52,cs),
(358,-25,o),
(339,-8,o),
(309,-8,cs),
(83,-8,ls),
(47,-8,o),
(25,-26,o),
(25,-54,cs),
(25,-81,o),
(44,-98,o),
(74,-98,cs)
);
}
);
vertWidth = 0;
width = 464;
}
);
unicode = 95;
},
{
color = 6;
glyphname = parenleft;
layers = (
{
layerId = m01;
shapes = (
{
closed = 1;
nodes = (
(144,-193,o),
(151,-179,o),
(141,-161,cs),
(103,-89,o),
(85,-9,o),
(85,79,cs),
(85,272,o),
(192,481,o),
(333,607,cs),
(347,619,o),
(350,633,o),
(341,643,cs),
(333,652,o),
(317,651,o),
(302,638,cs),
(151,508,o),
(35,293,o),
(35,79,cs),
(35,-9,o),
(55,-97,o),
(100,-179,cs),
(109,-196,o),
(120,-203,o),
(132,-198,cs)
);
}
);
vertWidth = 0;
width = 358;
},
{
layerId = "6449507E-FEE0-4D4A-A81F-7CAB6A5803D5";
shapes = (
{
closed = 1;
nodes = (
(193,-185,o),
(214,-160,o),
(192,-121,cs),
(159,-59,o),
(143,12,o),
(143,89,cs),
(143,261,o),
(239,448,o),
(365,560,cs),
(396,587,o),
(392,614,o),
(375,633,cs),
(360,649,o),
(332,660,o),
(299,631,cs),
(153,505,o),
(41,296,o),
(41,89,cs),
(41,2,o),
(60,-84,o),
(105,-165,cs),
(124,-202,o),
(148,-204,o),
(170,-195,cs)
);
}
);
vertWidth = 0;
width = 341;
}
);
unicode = 40;
},
{
color = 6;
glyphname = parenright;
layers = (
{
layerId = m01;
shapes = (
{
closed = 1;
nodes = (
(148,-59,o),
(264,156,o),
(264,370,cs),
(264,458,o),
(244,546,o),
(199,628,cs),
(190,645,o),
(179,652,o),
(167,647,cs),
(155,642,o),
(148,628,o),
(158,610,cs),
(196,538,o),
(214,458,o),
(214,370,cs),
(214,177,o),
(107,-32,o),
(-34,-158,cs),
(-48,-170,o),
(-51,-184,o),
(-42,-194,cs),
(-34,-203,o),
(-18,-202,o),
(-3,-189,cs)
);
}
);
vertWidth = 0;
width = 358;
},
{
layerId = "6449507E-FEE0-4D4A-A81F-7CAB6A5803D5";
shapes = (
{
closed = 1;
nodes = (
(200,-56,o),
(312,153,o),
(312,360,cs),
(312,447,o),
(293,533,o),
(248,614,cs),
(229,651,o),
(205,653,o),
(183,644,cs),
(160,634,o),
(139,609,o),
(161,570,cs),
(194,508,o),
(210,437,o),
(210,360,cs),
(210,188,o),
(114,1,o),
(-12,-111,cs),
(-43,-138,o),
(-39,-165,o),
(-22,-184,cs),
(-7,-200,o),
(21,-211,o),
(54,-182,cs)
);
}
);
vertWidth = 0;
width = 341;
}
);
unicode = 41;
},
{
color = 6;
glyphname = braceleft;
layers = (
{
guides = (
{
name = " [#dLwT1o6isy]";
pos = (226,246);
}
);
layerId = m01;
shapes = (
{
closed = 1;
nodes = (
(118,-208,o),
(131,-210,o),
(140,-201,cs),
(150,-191,o),
(150,-179,o),
(138,-168,cs),
(92,-124,o),
(63,-75,o),
(63,-41,cs),
(63,11,o),
(113,73,o),
(113,121,cs),
(113,156,o),
(101,194,o),
(65,246,c),
(57,204,l),
(135,256,o),
(167,314,o),
(167,371,cs),
(167,434,o),
(180,493,o),
(202,524,cs),
(224,557,o),
(268,584,o),
(329,608,cs),
(342,613,o),
(348,623,o),
(344,636,cs),
(340,648,o),
(329,652,o),
(313,646,cs),
(243,622,o),
(189,584,o),
(161,544,cs),
(134,504,o),
(117,440,o),
(117,378,cs),
(117,339,o),
(101,289,o),
(62,260,cs),
(46,248,o),
(35,240,o),
(32,228,cs),
(30,218,o),
(34,208,o),
(46,192,cs),
(58,175,o),
(64,149,o),
(64,126,cs),
(64,79,o),
(13,18,o),
(13,-36,cs),
(13,-86,o),
(48,-148,o),
(105,-197,cs)
);
}
);
vertWidth = 0;
width = 358;
},
{
guides = (
{
name = " [#dLwT1o6isy]";
pos = (286,246);
}
);
layerId = "6449507E-FEE0-4D4A-A81F-7CAB6A5803D5";
shapes = (
{
closed = 1;
nodes = (
(164,-214,o),
(188,-209,o),
(205,-192,cs),
(227,-171,o),
(229,-145,o),
(203,-121,cs),
(168,-87,o),
(142,-50,o),
(142,-23,cs),
(142,25,o),
(188,83,o),
(188,128,cs),
(188,166,o),
(175,198,o),
(154,227,c),
(147,208,l),
(205,246,o),
(239,299,o),
(239,361,cs),
(239,413,o),
(248,462,o),
(266,487,cs),
(285,515,o),
(322,536,o),
(372,556,cs),
(400,567,o),
(412,589,o),
(403,616,cs),
(395,641,o),
(375,658,o),
(337,643,cs),
(266,619,o),
(211,579,o),
(182,538,cs),
(154,497,o),
(136,431,o),
(136,367,cs),
(136,339,o),
(125,301,o),
(96,280,cs),
(74,263,o),
(62,250,o),
(58,234,cs),
(55,218,o),
(58,202,o),
(76,177,cs),
(84,166,o),
(87,148,o),
(87,132,cs),
(87,89,o),
(39,32,o),
(39,-19,cs),
(39,-71,o),
(74,-138,o),
(135,-190,cs)
);
}
);
vertWidth = 0;
width = 362;
}
);
unicode = 123;
},
{
color = 6;
glyphname = braceright;
layers = (
{
layerId = m01;
shapes = (
{
closed = 1;
nodes = (
(58,-180,o),
(112,-142,o),
(140,-102,cs),
(167,-62,o),
(184,2,o),
(184,64,cs),
(184,103,o),
(200,153,o),
(239,182,cs),
(255,194,o),
(266,202,o),
(269,214,cs),
(271,224,o),
(267,234,o),
(255,250,cs),
(243,267,o),
(237,293,o),
(237,316,cs),
(237,363,o),
(288,424,o),
(288,478,cs),
(288,528,o),
(253,590,o),
(196,639,cs),
(183,650,o),
(170,652,o),
(161,643,cs),
(151,633,o),
(151,621,o),
(163,610,cs),
(209,566,o),
(238,517,o),
(238,483,cs),
(238,431,o),
(188,369,o),
(188,321,cs),
(188,286,o),
(200,248,o),
(236,196,c),
(244,238,l),
(166,186,o),
(134,128,o),
(134,71,cs),
(134,8,o),
(121,-51,o),
(99,-82,cs),
(77,-115,o),
(33,-142,o),
(-28,-166,cs),
(-41,-171,o),
(-47,-181,o),
(-43,-194,cs),
(-39,-206,o),
(-28,-210,o),
(-12,-204,cs)
);
}
);
vertWidth = 0;
width = 358;
},
{
layerId = "6449507E-FEE0-4D4A-A81F-7CAB6A5803D5";
shapes = (
{
closed = 1;
nodes = (
(107,-176,o),
(162,-137,o),
(191,-96,cs),
(219,-55,o),
(237,11,o),
(237,75,cs),
(237,103,o),
(248,141,o),
(277,162,cs),
(299,179,o),
(312,192,o),
(315,208,cs),
(318,223,o),
(315,240,o),
(297,265,cs),
(289,276,o),
(286,294,o),
(286,310,cs),
(286,353,o),
(334,410,o),
(334,461,cs),
(334,513,o),
(299,580,o),
(238,632,cs),
(209,656,o),
(185,651,o),
(168,634,cs),
(146,613,o),
(144,587,o),
(170,563,cs),
(205,529,o),
(231,492,o),
(231,465,cs),
(231,417,o),
(185,359,o),
(185,314,cs),
(185,276,o),
(198,244,o),
(219,215,c),
(226,234,l),
(168,196,o),
(134,143,o),
(134,81,cs),
(134,29,o),
(125,-20,o),
(107,-45,cs),
(88,-73,o),
(51,-94,o),
(1,-114,cs),
(-27,-125,o),
(-39,-147,o),
(-30,-174,cs),
(-21,-200,o),
(-3,-216,o),
(35,-202,cs)
);
}
);
vertWidth = 0;
width = 363;
}
);
unicode = 125;
},
{
color = 6;
glyphname = bracketleft;
layers = (
{
layerId = m01;
shapes = (
{
closed = 1;
nodes = (
(124,-199,ls),
(141,-199,o),
(150,-187,o),
(150,-176,cs),
(150,-165,o),
(142,-154,o),
(124,-154,cs),
(-21,-154,l),
(2,-183,l),
(206,634,l),
(169,605,l),
(323,605,ls),
(340,605,o),
(349,616,o),
(350,627,cs),
(351,638,o),
(342,650,o),
(323,650,cs),
(185,650,ls),
(165,650,o),
(156,641,o),
(152,625,cs),
(-47,-171,ls),
(-50,-185,o),
(-44,-199,o),
(-25,-199,cs)
);
}
);
vertWidth = 0;
width = 358;
},
{
layerId = "6449507E-FEE0-4D4A-A81F-7CAB6A5803D5";
shapes = (
{
closed = 1;
nodes = (
(153,-199,ls),
(189,-199,o),
(205,-172,o),
(205,-149,cs),
(205,-127,o),
(193,-101,o),
(153,-101,cs),
(45,-101,l),
(73,-136,l),
(250,573,l),
(223,552,l),
(339,552,ls),
(374,552,o),
(390,576,o),
(392,598,cs),
(394,620,o),
(382,650,o),
(339,650,cs),
(210,650,ls),
(174,650,o),
(159,634,o),
(152,605,cs),
(-34,-138,ls),
(-41,-169,o),
(-27,-199,o),
(14,-199,cs)
);
}
);
vertWidth = 0;
width = 344;
}
);
unicode = 91;
},
{
color = 6;
glyphname = bracketright;
layers = (
{
layerId = m01;
shapes = (
{
closed = 1;
nodes = (
(118,-199,ls),
(138,-199,o),
(147,-190,o),
(151,-174,cs),
(350,622,ls),
(353,636,o),
(347,650,o),
(328,650,cs),
(179,650,ls),
(162,650,o),
(153,638,o),
(153,627,cs),
(153,616,o),
(161,605,o),
(179,605,cs),
(324,605,l),
(301,634,l),
(97,-183,l),
(134,-154,l),
(-20,-154,ls),
(-37,-154,o),
(-46,-165,o),
(-47,-176,cs),
(-48,-187,o),
(-39,-199,o),
(-20,-199,cs)
);
}
);
vertWidth = 0;
width = 358;
},
{
layerId = "6449507E-FEE0-4D4A-A81F-7CAB6A5803D5";
shapes = (
{
closed = 1;
nodes = (
(146,-199,ls),
(182,-199,o),
(197,-183,o),
(204,-154,cs),
(390,589,ls),
(397,620,o),
(383,650,o),
(342,650,cs),
(203,650,ls),
(167,650,o),
(151,623,o),
(151,600,cs),
(151,578,o),
(163,552,o),
(203,552,cs),
(311,552,l),
(283,587,l),
(106,-122,l),
(133,-101,l),
(17,-101,ls),
(-18,-101,o),
(-34,-125,o),
(-36,-147,cs),
(-38,-169,o),
(-26,-199,o),
(17,-199,cs)
);
}
);
vertWidth = 0;
width = 343;
}
);
unicode = 93;
},
{
color = 6;
glyphname = quotedbl;
kernLeft = quote_left;
kernRight = quote_right;
layers = (
{
layerId = m01;
shapes = (
{
closed = 1;
nodes = (
(164,452,o),
(177,458,o),
(181,474,cs),
(218,619,ls),
(223,638,o),
(209,650,o),
(196,650,cs),
(184,650,o),
(171,643,o),
(167,626,cs),
(130,482,ls),
(125,464,o),
(139,452,o),
(152,452,cs)
);
},
{
closed = 1;
nodes = (
(304,452,o),
(317,458,o),
(321,474,cs),
(358,619,ls),
(363,638,o),
(349,650,o),
(336,650,cs),
(324,650,o),
(311,643,o),
(307,626,cs),
(270,482,ls),
(265,464,o),
(279,452,o),
(292,452,cs)
);
}
);
vertWidth = 0;
width = 369;
},
{
layerId = "6449507E-FEE0-4D4A-A81F-7CAB6A5803D5";
shapes = (
{
closed = 1;
nodes = (
(213,405,o),
(232,420,o),
(238,439,cs),
(278,597,ls),
(286,627,o),
(270,650,o),
(234,650,cs),
(209,650,o),
(190,635,o),
(184,614,cs),
(144,457,ls),
(137,427,o),
(153,405,o),
(188,405,cs)
);
},
{
closed = 1;
nodes = (
(375,405,o),
(394,420,o),
(400,439,cs),
(441,597,ls),
(449,627,o),
(433,650,o),
(397,650,cs),
(372,650,o),
(353,635,o),
(347,614,cs),
(307,457,ls),
(300,427,o),
(316,405,o),
(351,405,cs)
);
}
);
vertWidth = 0;
width = 412;
}
);
unicode = 34;
},
{
color = 6;
glyphname = quotesingle;
kernLeft = quote_left;
kernRight = quote_right;
layers = (
{
layerId = m01;
shapes = (
{
closed = 1;
nodes = (
(164,452,o),
(177,458,o),
(181,474,cs),
(218,619,ls),
(223,638,o),
(209,650,o),
(196,650,cs),
(184,650,o),
(171,643,o),
(167,626,cs),
(130,482,ls),
(125,464,o),
(139,452,o),
(152,452,cs)
);
}
);
vertWidth = 0;
width = 229;
},
{
layerId = "6449507E-FEE0-4D4A-A81F-7CAB6A5803D5";
shapes = (
{
closed = 1;
nodes = (
(213,405,o),
(232,420,o),
(238,439,cs),
(278,597,ls),
(286,627,o),
(270,650,o),
(234,650,cs),
(209,650,o),
(190,635,o),
(184,614,cs),
(144,457,ls),
(137,427,o),
(153,405,o),
(188,405,cs)
);
}
);
vertWidth = 0;
width = 249;
}
);
unicode = 39;
},
{
color = 6;
glyphname = at;
layers = (
{
layerId = m01;
shapes = (
{
closed = 1;
nodes = (
(319,52,o),
(366,126,o),
(393,234,cs),
(419,338,o),
(406,406,o),
(339,406,cs),
(259,406,o),
(192,332,o),
(165,224,cs),
(139,120,o),
(172,52,o),
(239,52,cs)
);
},
{
closed = 1;
nodes = (
(210,97,o),
(196,137,o),
(215,215,cs),
(236,300,o),
(280,361,o),
(328,361,cs),
(368,361,o),
(382,321,o),
(363,243,cs),
(342,158,o),
(298,97,o),
(250,97,cs)
);
},
{
closed = 1;
nodes = (
(276,-80,o),
(325,-68,o),
(355,-60,cs),
(375,-55,o),
(379,-41,o),
(376,-29,cs),
(371,-13,o),
(352,-12,o),
(340,-16,cs),
(310,-25,o),
(267,-35,o),
(232,-35,cs),
(111,-35,o),
(42,77,o),
(76,214,cs),
(118,382,o),
(228,481,o),
(358,481,cs),
(480,481,o),
(549,385,o),
(517,250,cs),
(498,172,o),
(444,97,o),
(404,97,cs),
(388,97,o),
(386,131,o),
(400,185,cs),
(448,374,ls),
(452,390,o),
(448,402,o),
(431,402,cs),
(412,402,o),
(402,395,o),
(397,377,cs),
(351,196,ls),
(328,107,o),
(348,52,o),
(399,52,cs),
(462,52,o),
(541,146,o),
(567,251,cs),
(606,409,o),
(517,526,o),
(360,526,cs),
(203,526,o),
(73,410,o),
(26,223,cs),
(-17,49,o),
(75,-80,o),
(235,-80,cs)
);
}
);
vertWidth = 0;
width = 624;
},
{
layerId = "6449507E-FEE0-4D4A-A81F-7CAB6A5803D5";
shapes = (
{
closed = 1;
nodes = (
(382,49,o),
(413,124,o),
(441,229,cs),
(470,337,o),
(474,408,o),
(405,408,cs),
(328,408,o),
(256,341,o),
(229,233,cs),
(201,119,o),
(236,49,o),
(316,49,cs)
);
},
{
closed = 1;
nodes = (
(316,139,o),
(310,167,o),
(322,213,cs),
(338,278,o),
(369,318,o),
(403,318,cs),
(423,318,o),
(429,292,o),
(418,249,cs),
(401,181,o),
(370,139,o),
(337,139,cs)
);
},
{
closed = 1;
nodes = (
(341,-120,o),
(399,-111,o),
(447,-98,cs),
(484,-88,o),
(501,-64,o),
(492,-33,cs),
(483,-4,o),
(453,6,o),
(412,-8,cs),
(382,-18,o),
(338,-25,o),
(309,-25,cs),
(188,-25,o),
(124,78,o),
(158,215,cs),
(201,384,o),
(309,489,o),
(441,489,cs),
(558,489,o),
(622,395,o),
(593,268,cs),
(575,192,o),
(533,136,o),
(502,136,cs),
(487,136,o),
(492,164,o),
(496,179,cs),
(540,354,ls),
(549,390,o),
(534,408,o),
(502,408,cs),
(472,408,o),
(456,397,o),
(449,369,cs),
(406,200,ls),
(375,80,o),
(418,49,o),
(470,49,c),
(569,49,o),
(664,137,o),
(693,254,cs),
(741,443,o),
(634,584,o),
(444,584,cs),
(260,584,o),
(113,453,o),
(60,240,cs),
(9,34,o),
(116,-120,o),
(311,-120,cs)
);
}
);
vertWidth = 0;
width = 720;
}
);
unicode = 64;
},
{
color = 6;
glyphname = ampersand;
layers = (
{
guides = (
{
angle = 76;
name = " [#5Q9LBHOic4]";
pos = (224,422);
}
);
layerId = m01;
shapes = (
{
closed = 1;
nodes = (
(274,0,o),
(399,111,o),
(507,290,c),
(515,302,o),
(510,316,o),
(498,322,cs),
(486,328,o),
(472,324,o),
(463,311,c),
(365,147,o),
(253,45,o),
(173,45,cs),
(127,45,o),
(98,79,o),
(98,135,cs),
(98,203,o),
(152,275,o),
(259,347,cs),
(378,426,o),
(438,496,o),
(438,556,cs),
(438,614,o),
(394,650,o),
(324,650,cs),
(238,650,o),
(173,588,o),
(173,505,cs),
(173,463,o),
(199,413,o),
(231,355,cs),
(418,14,ls),
(423,4,o),
(443,-7,o),
(458,4,cs),
(471,14,o),
(467,29,o),
(460,41,cs),
(272,383,ls),
(245,432,o),
(223,470,o),
(223,514,cs),
(223,566,o),
(261,605,o),
(313,605,cs),
(362,605,o),
(388,583,o),
(388,549,cs),
(388,509,o),
(339,454,o),
(234,384,cs),
(112,304,o),
(48,217,o),
(48,127,cs),
(48,48,o),
(93,0,o),
(162,0,cs)
);
}
);
vertWidth = 0;
width = 627;
},
{
guides = (
{
angle = 76;
name = " [#5Q9LBHOic4]";
pos = (284,422);
}
);
layerId = "6449507E-FEE0-4D4A-A81F-7CAB6A5803D5";
shapes = (
{
closed = 1;
nodes = (
(313,0,o),
(437,102,o),
(544,279,cs),
(560,303,o),
(550,334,o),
(524,347,cs),
(502,358,o),
(473,354,o),
(457,328,cs),
(372,190,o),
(282,96,o),
(214,96,cs),
(186,96,o),
(173,120,o),
(173,151,cs),
(173,207,o),
(222,264,o),
(308,322,cs),
(430,403,o),
(484,476,o),
(484,537,cs),
(484,604,o),
(437,650,o),
(352,650,cs),
(257,650,o),
(186,581,o),
(186,490,cs),
(186,448,o),
(211,397,o),
(243,339,cs),
(414,27,ls),
(424,8,o),
(462,-12,o),
(491,9,cs),
(515,27,o),
(515,54,o),
(501,79,cs),
(329,391,ls),
(307,431,o),
(287,462,o),
(287,498,cs),
(287,530,o),
(310,554,o),
(342,554,cs),
(363,554,o),
(383,549,o),
(383,530,cs),
(383,498,o),
(336,456,o),
(255,402,cs),
(132,322,o),
(72,233,o),
(72,144,cs),
(72,52,o),
(126,0,o),
(204,0,cs)
);
}
);
vertWidth = 0;
width = 620;
}
);
unicode = 38;
},
{
color = 6;
glyphname = degree;
layers = (
{
guides = (
{
name = " [#a8lJXTlcRe]";
pos = (263,516);
}
);
layerId = m01;
shapes = (
{
closed = 1;
nodes = (
(343,391,o),
(398,447,o),
(398,521,cs),
(398,595,o),
(344,650,o),
(271,650,cs),
(198,650,o),
(144,595,o),
(144,521,cs),
(144,447,o),
(198,391,o),
(270,391,cs)
);
},
{
closed = 1;
nodes = (
(225,436,o),
(193,472,o),
(194,521,cs),
(194,569,o),
(227,605,o),
(271,605,cs),
(314,605,o),
(346,569,o),
(346,521,cs),
(346,472,o),
(314,436,o),
(270,436,cs)
);
}
);
vertWidth = 0;
width = 438;
},
{
guides = (
{
name = " [#a8lJXTlcRe]";
pos = (323,516);
}
);
layerId = "6449507E-FEE0-4D4A-A81F-7CAB6A5803D5";
shapes = (
{
closed = 1;
nodes = (
(373,372,o),
(436,430,o),
(436,511,cs),
(436,592,o),
(374,650,o),
(300,650,cs),
(225,650,o),
(162,592,o),
(162,511,cs),
(162,430,o),
(225,372,o),
(299,372,cs)
);
},
{
closed = 1;
nodes = (
(273,458,o),
(252,483,o),
(252,511,cs),
(252,539,o),
(274,564,o),
(300,564,cs),
(324,564,o),
(344,538,o),
(344,511,cs),
(344,484,o),
(324,458,o),
(299,458,cs)
);
}
);
vertWidth = 0;
width = 433;
}
);
unicode = 176;
},
{
color = 6;
glyphname = bar;
layers = (
{
layerId = m01;
shapes = (
{
closed = 1;
nodes = (
(-3,-299,o),
(3,-286,o),
(5,-276,cs),
(237,667,ls),
(241,685,o),
(236,700,o),
(219,700,cs),
(200,700,o),
(192,691,o),
(188,675,cs),
(-46,-270,ls),
(-50,-285,o),
(-43,-299,o),
(-25,-299,cs)
);
}
);
vertWidth = 0;
width = 249;
},
{
layerId = "6449507E-FEE0-4D4A-A81F-7CAB6A5803D5";
shapes = (
{
closed = 1;
nodes = (
(72,-299,o),
(82,-273,o),
(86,-255,cs),
(304,634,ls),
(315,679,o),
(293,700,o),
(260,700,cs),
(226,700,o),
(211,684,o),
(203,655,cs),
(-17,-237,ls),
(-26,-270,o),
(-9,-299,o),
(30,-299,cs)
);
}
);
vertWidth = 0;
width = 280;
}
);
unicode = 124;
},
{
color = 6;
glyphname = brokenbar;
layers = (
{
layerId = m01;
shapes = (
{
closed = 1;
nodes = (
(136,260,o),
(142,273,o),
(144,283,cs),
(237,667,ls),
(241,685,o),
(236,700,o),
(219,700,cs),
(200,700,o),
(192,691,o),
(188,675,cs),
(93,289,ls),
(89,274,o),
(96,260,o),
(114,260,cs)
);
},
{
closed = 1;
nodes = (
(-3,-299,o),
(3,-286,o),
(5,-276,cs),
(98,108,ls),
(102,126,o),
(97,141,o),
(80,141,cs),
(61,141,o),
(53,132,o),
(49,116,cs),
(-46,-270,ls),
(-50,-285,o),
(-43,-299,o),
(-25,-299,cs)
);
}
);
vertWidth = 0;
width = 249;
},
{
layerId = "6449507E-FEE0-4D4A-A81F-7CAB6A5803D5";
shapes = (
{
closed = 1;
nodes = (
(211,260,o),
(220,286,o),
(225,305,cs),
(304,634,ls),
(315,679,o),
(293,700,o),
(260,700,cs),
(226,700,o),
(210,684,o),
(203,655,cs),
(122,323,ls),
(114,290,o),
(130,260,o),
(169,260,cs)
);
},
{
closed = 1;
nodes = (
(72,-299,o),
(82,-273,o),
(86,-255,cs),
(165,75,ls),
(176,120,o),
(154,141,o),
(121,141,cs),
(87,141,o),
(71,125,o),
(64,96,cs),
(-17,-237,ls),
(-25,-270,o),
(-9,-299,o),
(30,-299,cs)
);
}
);
vertWidth = 0;
width = 280;
}
);
unicode = 166;
},
{
color = 6;
glyphname = dollar;
layers = (
{
layerId = m01;
shapes = (
{
closed = 1;
nodes = (
(319,0,o),
(382,63,o),
(408,164,cs),
(435,278,o),
(396,338,o),
(274,370,cs),
(202,389,o),
(182,424,o),
(195,473,cs),
(213,546,o),
(270,591,o),
(339,591,cs),
(381,591,o),
(403,560,o),
(424,496,cs),
(428,483,o),
(442,479,o),
(454,481,cs),
(470,484,o),
(476,499,o),
(473,509,cs),
(449,594,o),
(412,637,o),
(344,637,cs),
(249,637,o),
(169,579,o),
(146,484,cs),
(127,403,o),
(160,348,o),
(265,320,cs),
(350,297,o),
(377,254,o),
(358,172,cs),
(340,94,o),
(297,46,o),
(229,46,cs),
(164,46,o),
(110,93,o),
(102,168,cs),
(101,182,o),
(91,188,o),
(75,187,cs),
(59,186,o),
(51,178,o),
(52,163,cs),
(63,62,o),
(136,0,o),
(226,0,cs)
);
},
{
closed = 1;
nodes = (
(194,-96,o),
(200,-83,o),
(202,-73,cs),
(384,667,ls),
(388,685,o),
(383,700,o),
(366,700,cs),
(347,700,o),
(339,691,o),
(335,675,cs),
(151,-67,ls),
(147,-82,o),
(154,-96,o),
(172,-96,cs)
);
}
);
vertWidth = 0;
width = 532;
},
{
layerId = "6449507E-FEE0-4D4A-A81F-7CAB6A5803D5";
shapes = (
{
closed = 1;
nodes = (
(374,-7,o),
(464,58,o),
(492,167,cs),
(521,291,o),
(461,357,o),
(327,392,cs),
(286,403,o),
(255,422,o),
(264,454,cs),
(277,508,o),
(329,543,o),
(381,543,cs),
(410,543,o),
(440,513,o),
(453,474,cs),
(461,449,o),
(487,437,o),
(512,441,cs),
(548,448,o),
(558,482,o),
(552,503,cs),
(525,599,o),
(460,641,o),
(385,641,cs),
(284,641,o),
(189,579,o),
(164,478,cs),
(143,388,o),
(185,324,o),
(305,292,cs),
(364,276,o),
(405,246,o),
(391,187,cs),
(378,131,o),
(329,92,o),
(278,92,cs),
(231,92,o),
(184,127,o),
(178,180,cs),
(176,208,o),
(160,225,o),
(123,223,cs),
(89,221,o),
(74,202,o),
(76,171,cs),
(88,60,o),
(178,-7,o),
(276,-7,cs)
);
},
{
closed = 1;
nodes = (
(267,-96,o),
(276,-71,o),
(281,-52,cs),
(450,635,ls),
(460,679,o),
(438,700,o),
(406,700,cs),
(372,700,o),
(357,684,o),
(350,656,cs),
(179,-34,ls),
(171,-67,o),
(187,-96,o),
(225,-96,cs)
);
}
);
vertWidth = 0;
width = 570;
}
);
unicode = 36;
},
{
color = 6;
glyphname = plus;
layers = (
{
layerId = m01;
shapes = (
{
closed = 1;
nodes = (
(181,88,o),
(191,94,o),
(195,110,cs),
(250,331,ls),
(254,349,o),
(243,361,o),
(231,362,cs),
(221,363,o),
(211,356,o),
(206,341,cs),
(152,120,ls),
(148,101,o),
(159,89,o),
(171,88,cs)
);
},
{
closed = 1;
nodes = (
(314,205,ls),
(332,205,o),
(341,217,o),
(341,228,cs),
(341,239,o),
(332,250,o),
(314,250,cs),
(87,250,ls),
(69,250,o),
(60,239,o),
(60,228,cs),
(60,216,o),
(69,205,o),
(87,205,cs)
);
}
);
vertWidth = 0;
width = 426;
},
{
layerId = "6449507E-FEE0-4D4A-A81F-7CAB6A5803D5";
shapes = (
{
closed = 1;
nodes = (
(213,68,o),
(233,76,o),
(240,105,cs),
(294,327,ls),
(302,362,o),
(278,382,o),
(257,382,cs),
(240,382,o),
(218,377,o),
(211,348,cs),
(157,125,l),
(149,87,o),
(174,68,o),
(195,68,cs)
);
},
{
closed = 1;
nodes = (
(337,184,ls),
(371,184,o),
(383,208,o),
(383,227,cs),
(383,247,o),
(371,270,o),
(337,270,cs),
(110,270,ls),
(76,270,o),
(64,247,o),
(64,227,cs),
(64,207,o),
(76,184,o),
(110,184,cs)
);
}
);
vertWidth = 0;
width = 426;
}
);
unicode = 43;
},
{
color = 6;
glyphname = minus;
layers = (
{
layerId = m01;
shapes = (
{
closed = 1;
nodes = (
(314,205,ls),
(332,205,o),
(341,217,o),
(341,228,cs),
(341,239,o),
(332,250,o),
(314,250,cs),
(87,250,ls),
(69,250,o),
(60,239,o),
(60,228,cs),
(60,216,o),
(69,205,o),
(87,205,cs)
);
}
);
vertWidth = 0;
width = 426;
},
{
layerId = "6449507E-FEE0-4D4A-A81F-7CAB6A5803D5";
shapes = (
{
closed = 1;
nodes = (
(337,184,ls),
(371,184,o),
(383,208,o),
(383,227,cs),
(383,247,o),
(371,270,o),
(337,270,cs),
(110,270,ls),
(76,270,o),
(64,247,o),
(64,227,cs),
(64,207,o),
(76,184,o),
(110,184,cs)
);
}
);
vertWidth = 0;
width = 426;
}
);
unicode = 8722;
},
{
color = 6;
glyphname = multiply;
layers = (
{
layerId = m01;
shapes = (
{
closed = 1;
nodes = (
(341,327,ls),
(355,339,o),
(355,352,o),
(346,360,cs),
(337,369,o),
(323,370,o),
(309,358,cs),
(41,123,ls),
(29,113,o),
(29,100,o),
(37,91,cs),
(46,82,o),
(59,79,o),
(75,93,cs)
);
},
{
closed = 1;
nodes = (
(272,79,o),
(285,80,o),
(294,87,cs),
(305,95,o),
(308,107,o),
(298,121,cs),
(126,353,ls),
(115,368,o),
(101,370,o),
(92,363,cs),
(82,355,o),
(79,340,o),
(88,327,cs),
(261,93,ls)
);
}
);
vertWidth = 0;
width = 426;
},
{
layerId = "6449507E-FEE0-4D4A-A81F-7CAB6A5803D5";
shapes = (
{
closed = 1;
nodes = (
(371,300,ls),
(401,327,o),
(392,348,o),
(376,364,cs),
(362,378,o),
(338,385,o),
(313,363,cs),
(73,150,ls),
(50,130,o),
(53,105,o),
(68,89,cs),
(83,73,o),
(104,63,o),
(133,88,cs)
);
},
{
closed = 1;
nodes = (
(291,65,o),
(316,70,o),
(332,82,cs),
(351,96,o),
(359,118,o),
(340,144,c),
(179,354,ls),
(156,385,o),
(131,379,o),
(116,368,cs),
(98,354,o),
(91,327,o),
(108,305,cs),
(270,92,ls)
);
}
);
vertWidth = 0;
width = 426;
}
);
unicode = 215;
},
{
color = 6;
glyphname = divide;
layers = (
{
layerId = m01;
shapes = (
{
closed = 1;
nodes = (
(190,87,o),
(206,103,o),
(206,120,cs),
(206,138,o),
(189,152,o),
(172,152,cs),
(153,152,o),
(141,136,o),
(141,120,cs),
(141,103,o),
(154,87,o),
(172,87,cs)
);
},
{
closed = 1;
nodes = (
(314,205,ls),
(332,205,o),
(341,217,o),
(341,228,cs),
(341,239,o),
(332,250,o),
(314,250,cs),
(87,250,ls),
(69,250,o),
(60,239,o),
(60,228,cs),
(60,217,o),
(69,205,o),
(87,205,cs)
);
},
{
closed = 1;
nodes = (
(244,303,o),
(260,319,o),
(260,336,cs),
(260,353,o),
(244,368,o),
(227,368,cs),
(209,368,o),
(195,352,o),
(195,336,cs),
(195,320,o),
(209,303,o),
(227,303,cs)
);
}
);
vertWidth = 0;
width = 426;
},
{
layerId = "6449507E-FEE0-4D4A-A81F-7CAB6A5803D5";
shapes = (
{
closed = 1;
nodes = (
(228,48,o),
(255,75,o),
(255,106,cs),
(255,135,o),
(228,160,o),
(199,160,cs),
(168,160,o),
(144,135,o),
(144,106,cs),
(144,75,o),
(168,48,o),
(199,48,cs)
);
},
{
closed = 1;
nodes = (
(337,184,ls),
(371,184,o),
(383,208,o),
(383,227,cs),
(383,247,o),
(371,270,o),
(337,270,cs),
(110,270,ls),
(76,270,o),
(64,247,o),
(64,227,cs),
(64,207,o),
(76,184,o),
(110,184,cs)
);
},
{
closed = 1;
nodes = (
(267,294,o),
(294,321,o),
(294,352,cs),
(294,381,o),
(267,406,o),
(238,406,cs),
(207,406,o),
(183,381,o),
(183,352,cs),
(183,321,o),
(207,294,o),
(238,294,cs)
);
}
);
vertWidth = 0;
width = 426;
}
);
unicode = 247;
},
{
color = 6;
glyphname = equal;
layers = (
{
layerId = m01;
shapes = (
{
closed = 1;
nodes = (
(293,129,ls),
(311,129,o),
(320,141,o),
(320,152,cs),
(320,163,o),
(311,174,o),
(293,174,cs),
(66,174,ls),
(48,174,o),
(39,162,o),
(39,151,cs),
(39,140,o),
(48,129,o),
(66,129,cs)
);
},
{
closed = 1;
nodes = (
(330,280,ls),
(348,280,o),
(357,292,o),
(357,303,cs),
(357,314,o),
(348,325,o),
(330,325,cs),
(103,325,ls),
(85,325,o),
(76,313,o),
(76,302,cs),
(76,291,o),
(85,280,o),
(103,280,cs)
);
}
);
vertWidth = 0;
width = 426;
},
{
layerId = "6449507E-FEE0-4D4A-A81F-7CAB6A5803D5";
shapes = (
{
closed = 1;
nodes = (
(315,120,ls),
(349,120,o),
(361,144,o),
(361,163,cs),
(361,183,o),
(349,206,o),
(315,206,cs),
(88,206,ls),
(54,206,o),
(42,183,o),
(42,163,cs),
(42,143,o),
(54,120,o),
(88,120,cs)
);
},
{
closed = 1;
nodes = (
(348,251,ls),
(382,251,o),
(394,275,o),
(394,294,cs),
(394,314,o),
(382,337,o),
(348,337,cs),
(121,337,ls),
(87,337,o),
(75,314,o),
(75,294,cs),
(75,274,o),
(87,251,o),
(121,251,cs)
);
}
);
vertWidth = 0;
width = 426;
}
);
unicode = 61;
},
{
color = 6;
glyphname = notequal;
layers = (
{
layerId = m01;
shapes = (
{
closed = 1;
nodes = (
(293,129,ls),
(311,129,o),
(320,141,o),
(320,152,cs),
(320,163,o),
(311,174,o),
(293,174,cs),
(66,174,ls),
(48,174,o),
(39,162,o),
(39,151,cs),
(39,140,o),
(48,129,o),
(66,129,cs)
);
},
{
closed = 1;
nodes = (
(330,280,ls),
(348,280,o),
(357,292,o),
(357,303,cs),
(357,314,o),
(348,325,o),
(330,325,cs),
(103,325,ls),
(85,325,o),
(76,313,o),
(76,302,cs),
(76,291,o),
(85,280,o),
(103,280,cs)
);
},
{
closed = 1;
nodes = (
(279,338,ls),
(293,362,o),
(279,377,o),
(265,377,cs),
(255,377,o),
(248,373,o),
(241,362,cs),
(102,110,ls),
(93,92,o),
(100,80,o),
(111,75,cs),
(120,71,o),
(134,73,o),
(143,89,cs)
);
}
);
vertWidth = 0;
width = 426;
},
{
layerId = "6449507E-FEE0-4D4A-A81F-7CAB6A5803D5";
shapes = (
{
closed = 1;
nodes = (
(315,120,ls),
(349,120,o),
(361,144,o),
(361,163,cs),
(361,183,o),
(349,206,o),
(315,206,cs),
(88,206,ls),
(54,206,o),
(42,183,o),
(42,163,cs),
(42,143,o),
(54,120,o),
(88,120,cs)
);
},
{
closed = 1;
nodes = (
(348,251,ls),
(382,251,o),
(394,275,o),
(394,294,cs),
(394,314,o),
(382,337,o),
(348,337,cs),
(121,337,ls),
(87,337,o),
(75,314,o),
(75,294,cs),
(75,274,o),
(87,251,o),
(121,251,cs)
);
},
{
closed = 1;
nodes = (
(336,337,ls),
(370,393,o),
(326,407,o),
(303,407,cs),
(286,407,o),
(274,402,o),
(262,383,cs),
(96,111,ls),
(77,80,o),
(96,56,o),
(115,47,cs),
(131,40,o),
(158,43,o),
(174,69,cs)
);
}
);
vertWidth = 0;
width = 426;
}
);
unicode = 8800;
},
{
color = 6;
glyphname = greater;
layers = (
{
guides = (
{
name = " [#GqRMvt6B8x]";
pos = (71,333);
}
);
layerId = m01;
shapes = (
{
closed = 1;
nodes = (
(322,198,ls),
(330,202,o),
(336,210,o),
(336,218,cs),
(336,225,o),
(333,231,o),
(326,237,cs),
(157,362,ls),
(142,373,o),
(129,373,o),
(120,364,cs),
(111,353,o),
(113,338,o),
(128,327,cs),
(293,205,l),
(296,235,l),
(78,139,ls),
(58,130,o),
(54,120,o),
(57,108,cs),
(60,98,o),
(71,88,o),
(90,96,cs)
);
}
);
vertWidth = 0;
width = 426;
},
{
guides = (
{
name = " [#GqRMvt6B8x]";
pos = (131,333);
}
);
layerId = "6449507E-FEE0-4D4A-A81F-7CAB6A5803D5";
shapes = (
{
closed = 1;
nodes = (
(350,182,ls),
(366,188,o),
(376,206,o),
(376,221,cs),
(376,233,o),
(374,246,o),
(359,255,cs),
(190,358,ls),
(162,375,o),
(143,372,o),
(127,356,cs),
(109,338,o),
(108,307,o),
(137,290,cs),
(282,205,l),
(287,247,l),
(101,178,ls),
(65,165,o),
(65,144,o),
(70,125,cs),
(75,106,o),
(92,82,o),
(130,98,cs)
);
}
);
vertWidth = 0;
width = 426;
}
);
unicode = 62;
},
{
color = 6;
glyphname = less;
layers = (
{
layerId = m01;
shapes = (
{
closed = 1;
nodes = (
(263,91,o),
(276,91,o),
(285,100,cs),
(294,111,o),
(292,126,o),
(277,137,cs),
(112,259,l),
(109,229,l),
(327,325,ls),
(347,334,o),
(351,344,o),
(348,356,cs),
(345,366,o),
(334,376,o),
(315,368,c),
(83,266,ls),
(75,262,o),
(69,254,o),
(69,246,cs),
(69,239,o),
(72,233,o),
(79,227,cs),
(248,102,ls)
);
}
);
vertWidth = 0;
width = 426;
},
{
layerId = "6449507E-FEE0-4D4A-A81F-7CAB6A5803D5";
shapes = (
{
closed = 1;
nodes = (
(281,93,o),
(308,94,o),
(322,108,cs),
(341,126,o),
(341,157,o),
(312,174,cs),
(167,259,l),
(162,217,l),
(348,286,ls),
(384,299,o),
(384,320,o),
(379,339,cs),
(374,358,o),
(357,381,o),
(319,366,cs),
(99,282,ls),
(83,276,o),
(73,258,o),
(73,243,cs),
(73,231,o),
(75,218,o),
(90,209,cs),
(259,106,ls)
);
}
);
vertWidth = 0;
width = 426;
}
);
unicode = 60;
},
{
color = 6;
glyphname = greaterequal;
layers = (
{
layerId = m01;
shapes = (
{
closed = 1;
nodes = (
(290,129,ls),
(308,129,o),
(317,140,o),
(317,152,cs),
(317,163,o),
(308,174,o),
(290,174,cs),
(63,174,ls),
(45,174,o),
(36,162,o),
(36,151,cs),
(36,140,o),
(45,129,o),
(63,129,cs)
);
},
{
closed = 1;
nodes = (
(316,234,ls),
(334,234,o),
(343,245,o),
(343,257,cs),
(343,263,o),
(340,270,o),
(334,274,cs),
(148,392,ls),
(132,402,o),
(119,401,o),
(111,391,cs),
(103,380,o),
(106,366,o),
(121,356,cs),
(267,263,l),
(272,279,l),
(89,279,ls),
(71,279,o),
(62,267,o),
(62,256,cs),
(62,245,o),
(71,234,o),
(89,234,cs)
);
}
);
vertWidth = 0;
width = 426;
},
{
layerId = "6449507E-FEE0-4D4A-A81F-7CAB6A5803D5";
shapes = (
{
closed = 1;
nodes = (
(315,106,ls),
(349,106,o),
(361,130,o),
(361,149,cs),
(361,169,o),
(349,192,o),
(315,192,cs),
(88,192,ls),
(54,192,o),
(42,169,o),
(42,149,cs),
(42,129,o),
(54,106,o),
(88,106,cs)
);
},
{
closed = 1;
nodes = (
(323,221,ls),
(356,221,o),
(369,244,o),
(369,264,cs),
(369,277,o),
(364,290,o),
(351,299,cs),
(179,415,ls),
(150,435,o),
(129,425,o),
(116,409,c),
(102,389,o),
(99,362,o),
(130,345,cs),
(229,292,l),
(242,307,l),
(118,307,ls),
(84,307,o),
(71,283,o),
(71,264,c),
(71,245,o),
(83,221,o),
(118,221,cs)
);
}
);
vertWidth = 0;
width = 426;
}
);
unicode = 8805;
},
{
color = 6;
glyphname = lessequal;
layers = (
{
layerId = m01;
shapes = (
{
closed = 1;
nodes = (
(290,129,ls),
(308,129,o),
(317,140,o),
(317,152,cs),
(317,163,o),
(308,174,o),
(290,174,cs),
(63,174,ls),
(45,174,o),
(36,162,o),
(36,151,cs),
(36,140,o),
(45,129,o),
(63,129,cs)
);
},
{
closed = 1;
nodes = (
(316,234,ls),
(334,234,o),
(343,245,o),
(343,257,cs),
(343,268,o),
(334,279,o),
(316,279,cs),
(149,279,l),
(152,265,l),
(328,356,ls),
(344,364,o),
(346,380,o),
(338,391,cs),
(330,401,o),
(318,401,o),
(301,392,cs),
(75,276,ls),
(66,271,o),
(62,264,o),
(62,256,cs),
(62,245,o),
(71,234,o),
(89,234,cs)
);
}
);
vertWidth = 0;
width = 426;
},
{
layerId = "6449507E-FEE0-4D4A-A81F-7CAB6A5803D5";
shapes = (
{
closed = 1;
nodes = (
(315,106,ls),
(349,106,o),
(361,130,o),
(361,149,cs),
(361,169,o),
(349,192,o),
(315,192,cs),
(88,192,ls),
(54,192,o),
(42,169,o),
(42,149,cs),
(42,129,o),
(54,106,o),
(88,106,cs)
);
},
{
closed = 1;
nodes = (
(323,221,ls),
(356,221,o),
(369,244,o),
(369,264,cs),
(369,283,o),
(357,307,o),
(323,307,cs),
(191,307,l),
(202,281,l),
(344,343,ls),
(375,356,o),
(375,388,o),
(360,408,cs),
(347,425,o),
(328,432,o),
(299,416,cs),
(95,302,ls),
(77,292,o),
(71,278,o),
(71,264,cs),
(71,245,o),
(83,221,o),
(117,221,cs)
);
}
);
vertWidth = 0;
width = 426;
}
);
unicode = 8804;
},
{
color = 6;
glyphname = plusminus;
layers = (
{
layerId = m01;
shapes = (
{
closed = 1;
nodes = (
(202,186,o),
(212,192,o),
(216,208,cs),
(249,340,ls),
(254,358,o),
(242,371,o),
(229,371,c),
(220,371,o),
(209,365,o),
(205,350,cs),
(173,218,ls),
(168,199,o),
(180,186,o),
(192,186,cs)
);
},
{
closed = 1;
nodes = (
(324,257,ls),
(342,257,o),
(351,269,o),
(351,280,cs),
(351,291,o),
(342,302,o),
(324,302,cs),
(97,302,ls),
(79,302,o),
(70,291,o),
(70,280,cs),
(70,268,o),
(79,257,o),
(97,257,cs)
);
},
{
closed = 1;
nodes = (
(293,129,ls),
(311,129,o),
(320,141,o),
(320,152,cs),
(320,163,o),
(311,174,o),
(293,174,cs),
(66,174,ls),
(48,174,o),
(39,163,o),
(39,152,cs),
(39,140,o),
(48,129,o),
(66,129,cs)
);
}
);
vertWidth = 0;
width = 426;
},
{
layerId = "6449507E-FEE0-4D4A-A81F-7CAB6A5803D5";
shapes = (
{
closed = 1;
nodes = (
(247,206,o),
(267,214,o),
(274,243,cs),
(328,465,ls),
(336,500,o),
(312,520,o),
(291,520,cs),
(274,520,o),
(252,515,o),
(245,486,cs),
(191,263,l),
(183,225,o),
(208,206,o),
(229,206,cs)
);
},
{
closed = 1;
nodes = (
(371,322,ls),
(405,322,o),
(417,346,o),
(417,365,cs),
(417,385,o),
(405,408,o),
(371,408,cs),
(144,408,ls),
(110,408,o),
(98,385,o),
(98,365,cs),
(98,345,o),
(110,322,o),
(144,322,cs)
);
},
{
closed = 1;
nodes = (
(327,100,ls),
(361,100,o),
(373,124,o),
(373,143,cs),
(373,163,o),
(361,186,o),
(327,186,cs),
(100,186,ls),
(66,186,o),
(54,163,o),
(54,143,cs),
(54,123,o),
(66,100,o),
(100,100,cs)
);
}
);
vertWidth = 0;
width = 426;
}
);
unicode = 177;
},
{
color = 6;
glyphname = approxequal;
layers = (
{
layerId = m01;
shapes = (
{
closed = 1;
nodes = (
(89,138,o),
(107,145,o),
(120,145,cs),
(161,145,o),
(195,117,o),
(233,117,cs),
(259,117,o),
(285,127,o),
(303,134,cs),
(318,140,o),
(325,151,o),
(320,164,cs),
(315,177,o),
(303,181,o),
(287,175,cs),
(272,169,o),
(254,162,o),
(241,162,cs),
(203,162,o),
(169,190,o),
(128,190,cs),
(102,190,o),
(76,180,o),
(58,173,cs),
(43,167,o),
(36,156,o),
(41,143,cs),
(46,130,o),
(58,126,o),
(74,132,cs)
);
},
{
closed = 1;
nodes = (
(127,289,o),
(145,296,o),
(158,296,cs),
(199,296,o),
(233,268,o),
(271,268,cs),
(297,268,o),
(323,278,o),
(341,285,cs),
(356,291,o),
(363,302,o),
(358,315,cs),
(353,328,o),
(341,332,o),
(325,326,cs),
(310,320,o),
(292,313,o),
(279,313,cs),
(241,313,o),
(207,341,o),
(166,341,cs),
(140,341,o),
(114,331,o),
(96,324,cs),
(81,318,o),
(74,307,o),
(79,294,cs),
(84,281,o),
(96,277,o),
(112,283,cs)
);
}
);
vertWidth = 0;
width = 426;
},
{
layerId = "6449507E-FEE0-4D4A-A81F-7CAB6A5803D5";
shapes = (
{
closed = 1;
nodes = (
(124,124,o),
(136,131,o),
(146,131,cs),
(179,131,o),
(214,109,o),
(249,109,cs),
(276,109,o),
(303,116,o),
(323,124,cs),
(354,137,o),
(362,162,o),
(353,183,cs),
(343,205,o),
(322,215,o),
(288,201,cs),
(278,197,o),
(265,192,o),
(256,192,cs),
(221,192,o),
(190,214,o),
(153,214,cs),
(125,214,o),
(98,205,o),
(79,196,cs),
(47,181,o),
(38,157,o),
(48,136,cs),
(58,114,o),
(80,104,o),
(113,119,cs)
);
},
{
closed = 1;
nodes = (
(159,264,o),
(171,271,o),
(181,271,cs),
(214,271,o),
(249,249,o),
(284,249,cs),
(311,249,o),
(338,256,o),
(358,264,cs),
(389,277,o),
(397,302,o),
(388,323,cs),
(378,345,o),
(357,355,o),
(323,341,cs),
(313,337,o),
(300,332,o),
(291,332,cs),
(256,332,o),
(225,354,o),
(188,354,cs),
(160,354,o),
(133,345,o),
(114,336,cs),
(82,321,o),
(73,297,o),
(83,276,cs),
(93,254,o),
(115,244,o),
(148,259,cs)
);
}
);
vertWidth = 0;
width = 426;
}
);
unicode = 8776;
},
{
color = 6;
glyphname = asciicircum;
layers = (
{
layerId = m01;
shapes = (
{
closed = 1;
nodes = (
(268,409,l),
(226,413,l),
(324,296,ls),
(335,283,o),
(350,285,o),
(359,293,cs),
(369,302,o),
(372,317,o),
(362,329,cs),
(269,439,ls),
(261,449,o),
(244,451,o),
(230,439,cs),
(97,328,ls),
(85,318,o),
(86,304,o),
(94,295,cs),
(103,286,o),
(115,281,o),
(131,294,cs)
);
}
);
vertWidth = 0;
width = 456;
},
{
layerId = "6449507E-FEE0-4D4A-A81F-7CAB6A5803D5";
shapes = (
{
closed = 1;
nodes = (
(299,388,l),
(269,390,l),
(359,284,ls),
(377,262,o),
(401,267,o),
(415,279,cs),
(430,292,o),
(435,316,o),
(419,335,cs),
(319,454,ls),
(306,469,o),
(283,475,o),
(260,456,cs),
(124,342,ls),
(104,325,o),
(107,302,o),
(120,287,c),
(134,273,o),
(153,264,o),
(177,284,cs)
);
}
);
vertWidth = 0;
width = 473;
}
);
unicode = 94;
},
{
color = 6;
glyphname = infinity;
layers = (
{
layerId = m01;
shapes = (
{
closed = 1;
nodes = (
(223,80,o),
(290,128,o),
(353,193,c),
(325,230,l),
(269,175,o),
(210,125,o),
(161,125,cs),
(121,125,o),
(103,169,o),
(117,227,cs),
(132,286,o),
(161,316,o),
(204,316,cs),
(238,316,o),
(274,288,o),
(311,233,cs),
(347,180,ls),
(392,114,o),
(440,80,o),
(487,80,cs),
(564,80,o),
(613,125,o),
(633,215,cs),
(648,281,o),
(627,361,o),
(546,361,cs),
(476,361,o),
(409,313,o),
(346,248,c),
(374,211,l),
(430,266,o),
(489,316,o),
(538,316,cs),
(578,316,o),
(596,272,o),
(582,214,cs),
(567,155,o),
(538,125,o),
(495,125,cs),
(461,125,o),
(425,153,o),
(388,208,cs),
(352,261,ls),
(307,327,o),
(259,361,o),
(212,361,cs),
(135,361,o),
(86,316,o),
(66,226,cs),
(51,160,o),
(72,80,o),
(153,80,cs)
);
}
);
vertWidth = 0;
width = 745;
},
{
layerId = "6449507E-FEE0-4D4A-A81F-7CAB6A5803D5";
shapes = (
{
closed = 1;
nodes = (
(266,70,o),
(338,121,o),
(395,181,c),
(337,246,l),
(297,206,o),
(245,157,o),
(209,157,cs),
(179,157,o),
(167,181,o),
(177,220,cs),
(187,260,o),
(213,284,o),
(245,284,cs),
(265,284,o),
(295,258,o),
(322,217,cs),
(352,173,ls),
(396,109,o),
(452,70,o),
(496,70,cs),
(582,70,o),
(644,124,o),
(662,211,cs),
(687,310,o),
(643,371,o),
(546,371,cs),
(483,371,o),
(411,320,o),
(354,260,c),
(412,195,l),
(452,235,o),
(504,284,o),
(540,284,cs),
(572,284,o),
(582,261,o),
(572,221,cs),
(562,181,o),
(538,157,o),
(504,157,cs),
(479,157,o),
(449,183,o),
(427,224,cs),
(397,278,ls),
(365,335,o),
(309,371,o),
(251,371,cs),
(169,371,o),
(107,317,o),
(87,230,cs),
(64,131,o),
(108,70,o),
(203,70,cs)
);
}
);
vertWidth = 0;
width = 730;
}
);
unicode = 8734;
},
{
color = 6;
glyphname = percent;
layers = (
{
layerId = m01;
shapes = (
{
closed = 1;
nodes = (
(183,0,o),
(190,10,o),
(200,23,cs),
(630,606,ls),
(647,629,o),
(635,650,o),
(614,650,cs),
(601,650,o),
(594,640,o),
(584,627,cs),
(154,44,ls),
(137,21,o),
(149,0,o),
(170,0,cs)
);
},
{
closed = 1;
nodes = (
(316,343,o),
(398,443,o),
(398,554,cs),
(398,611,o),
(361,650,o),
(300,650,c),
(208,650,o),
(126,550,o),
(126,439,cs),
(126,382,o),
(163,343,o),
(224,343,c)
);
},
{
closed = 1;
nodes = (
(194,388,o),
(176,416,o),
(176,449,cs),
(176,524,o),
(231,605,o),
(293,605,cs),
(330,605,o),
(348,577,o),
(348,544,cs),
(348,462,o),
(287,388,o),
(231,388,cs)
);
},
{
closed = 1;
nodes = (
(587,0,o),
(669,100,o),
(669,211,cs),
(669,268,o),
(632,307,o),
(571,307,c),
(479,307,o),
(397,207,o),
(397,96,cs),
(397,39,o),
(434,0,o),
(495,0,c)
);
},
{
closed = 1;
nodes = (
(465,45,o),
(447,73,o),
(447,106,cs),
(447,181,o),
(502,262,o),
(564,262,cs),
(601,262,o),
(619,234,o),
(619,201,cs),
(619,119,o),
(558,45,o),
(502,45,cs)
);
}
);
vertWidth = 0;
width = 788;
},
{
layerId = "6449507E-FEE0-4D4A-A81F-7CAB6A5803D5";
shapes = (
{
closed = 1;
nodes = (
(272,0,o),
(285,10,o),
(301,32,cs),
(695,566,ls),
(734,619,o),
(696,650,o),
(659,650,cs),
(639,650,o),
(626,640,o),
(609,618,cs),
(215,84,ls),
(176,31,o),
(215,0,o),
(252,0,cs)
);
},
{
closed = 1;
nodes = (
(358,314,o),
(448,416,o),
(448,535,cs),
(448,603,o),
(405,650,o),
(331,650,cs),
(235,650,o),
(144,549,o),
(144,429,cs),
(144,361,o),
(188,314,o),
(262,314,cs)
);
},
{
closed = 1;
nodes = (
(251,410,o),
(245,425,o),
(245,439,cs),
(245,490,o),
(279,554,o),
(325,554,cs),
(342,554,o),
(348,539,o),
(348,525,cs),
(348,470,o),
(309,410,o),
(268,410,cs)
);
},
{
closed = 1;
nodes = (
(677,0,o),
(768,101,o),
(768,221,cs),
(768,289,o),
(724,336,o),
(650,336,cs),
(554,336,o),
(464,234,o),
(464,115,cs),
(464,47,o),
(507,0,o),
(581,0,cs)
);
},
{
closed = 1;
nodes = (
(570,96,o),
(564,111,o),
(564,125,cs),
(564,176,o),
(598,240,o),
(644,240,cs),
(661,240,o),
(667,225,o),
(667,211,cs),
(667,156,o),
(629,96,o),
(587,96,cs)
);
}
);
vertWidth = 0;
width = 840;
}
);
unicode = 37;
},
{
color = 6;
glyphname = grave;
layers = (
{
layerId = m01;
shapes = (
{
closed = 1;
nodes = (
(303,447,o),
(316,444,o),
(325,449,cs),
(333,453,o),
(336,463,o),
(330,477,cs),
(288,573,ls),
(282,586,o),
(269,591,o),
(258,591,cs),
(242,590,o),
(227,576,o),
(240,554,cs),
(294,462,ls)
);
}
);
vertWidth = 0;
width = 500;
},
{
layerId = "6449507E-FEE0-4D4A-A81F-7CAB6A5803D5";
shapes = (
{
closed = 1;
nodes = (
(319,442,o),
(342,448,o),
(355,455,cs),
(367,461,o),
(393,479,o),
(379,506,cs),
(330,602,ls),
(321,620,o),
(305,628,o),
(290,628,cs),
(264,628,o),
(224,598,o),
(246,562,cs),
(303,468,ls)
);
}
);
vertWidth = 0;
width = 500;
}
);
unicode = 96;
},
{
color = 6;
glyphname = tilde;
layers = (
{
layerId = m01;
shapes = (
{
closed = 1;
nodes = (
(157,420,o),
(173,422,o),
(183,434,cs),
(193,446,o),
(205,455,o),
(223,455,cs),
(246,455,o),
(277,424,o),
(308,424,cs),
(339,424,o),
(369,438,o),
(387,460,cs),
(396,472,o),
(400,485,o),
(390,495,cs),
(381,504,o),
(364,502,o),
(355,490,cs),
(344,476,o),
(331,469,o),
(314,469,cs),
(293,469,o),
(263,500,o),
(230,500,cs),
(198,500,o),
(168,486,o),
(151,464,cs),
(142,453,o),
(139,438,o),
(148,429,cs)
);
}
